<svg width="32" height="32" viewBox="0 0 32 32" fill="none" xmlns="http://www.w3.org/2000/svg">
<path d="M27.3137 4.68625C24.2917 1.66425 20.2738 0 16 0C11.7262 0 7.70831 1.66425 4.68631 4.68619C1.66431 7.70825 0 11.7262 0 16C0 20.2737 1.66425 24.2916 4.68625 27.3137C7.70831 30.3357 11.7262 32 16 32C20.2736 32 24.2916 30.3357 27.3137 27.3137C30.3357 24.2916 32 20.2737 32 16C32 11.7262 30.3357 7.70819 27.3137 4.68625ZM25.3787 13.3287C25.5532 13.1543 25.795 13.0542 26.0419 13.0542C26.2887 13.0542 26.5301 13.1543 26.7044 13.3287C26.8787 13.5031 26.9789 13.7449 26.9789 13.9917C26.9789 14.2386 26.8787 14.4799 26.7044 14.6543C26.5301 14.8293 26.2888 14.9292 26.0419 14.9292C25.795 14.9292 25.5532 14.8292 25.3787 14.6543C25.2044 14.4799 25.1044 14.2387 25.1044 13.9917C25.1045 13.7449 25.2045 13.5031 25.3787 13.3287ZM22.3663 8.30806C22.5407 8.13369 22.7826 8.03306 23.0294 8.03306C23.2757 8.03306 23.5176 8.13369 23.692 8.30806C23.8669 8.48244 23.9669 8.72431 23.9669 8.97112C23.9669 9.21737 23.8669 9.45931 23.692 9.63369C23.5176 9.80806 23.2757 9.90862 23.0294 9.90862C22.7826 9.90862 22.5407 9.80806 22.3663 9.63369C22.192 9.45931 22.0913 9.21744 22.0913 8.97112C22.0913 8.72431 22.192 8.48244 22.3663 8.30806ZM17.3451 5.29556C17.5201 5.12119 17.7613 5.02056 18.0081 5.02056C18.2551 5.02056 18.4969 5.12119 18.6713 5.29556C18.8456 5.46994 18.9456 5.71119 18.9456 5.95869C18.9456 6.20487 18.8456 6.44681 18.6713 6.62119C18.4969 6.79556 18.2551 6.89556 18.0081 6.89556C17.7613 6.89556 17.5201 6.79556 17.3451 6.62119C17.1707 6.44681 17.0706 6.20494 17.0706 5.95869C17.0707 5.71181 17.1707 5.46994 17.3451 5.29556ZM13.3289 8.00675C13.5032 7.83238 13.7444 7.73238 13.9919 7.73238C14.2388 7.73238 14.4801 7.83238 14.6544 8.00675C14.8289 8.18112 14.9294 8.423 14.9294 8.66925C14.9294 8.91612 14.8289 9.158 14.6544 9.33237C14.4801 9.50675 14.2382 9.60675 13.9919 9.60675C13.7451 9.60675 13.5032 9.50675 13.3289 9.33237C13.1544 9.158 13.0544 8.91612 13.0544 8.66925C13.0545 8.42306 13.1544 8.18112 13.3289 8.00675ZM6.52069 19.7755C6.34631 19.9505 6.10444 20.0505 5.85756 20.0505C5.61131 20.0505 5.36944 19.9504 5.19506 19.7755C5.02069 19.6011 4.92069 19.3599 4.92069 19.113C4.92069 18.8661 5.02069 18.6243 5.19506 18.4499C5.36944 18.2755 5.61131 18.1755 5.85756 18.1755C6.10444 18.1755 6.34631 18.2755 6.52069 18.4499C6.69506 18.6243 6.79506 18.8661 6.79506 19.113C6.79506 19.3599 6.69513 19.6011 6.52069 19.7755ZM6.62138 10.638C6.447 10.8124 6.20512 10.9124 5.95825 10.9124C5.71138 10.9124 5.47013 10.8124 5.29513 10.638C5.12075 10.463 5.02075 10.2218 5.02075 9.97494C5.02075 9.72806 5.12075 9.48675 5.29513 9.31181C5.47013 9.13744 5.71138 9.03744 5.95825 9.03744C6.20512 9.03744 6.447 9.13744 6.62138 9.31181C6.79575 9.48681 6.89575 9.72806 6.89575 9.97494C6.89575 10.2218 6.79575 10.463 6.62138 10.638ZM7.53137 14.4936C7.53137 14.2467 7.63137 14.0055 7.80569 13.8305C7.98012 13.6561 8.22194 13.5561 8.46887 13.5561C8.71569 13.5561 8.95694 13.6561 9.13138 13.8305C9.30638 14.0056 9.40637 14.2467 9.40637 14.4936C9.40637 14.7405 9.30638 14.9824 9.13138 15.1567C8.95694 15.3311 8.71575 15.4311 8.46887 15.4311C8.22194 15.4311 7.98012 15.3311 7.80569 15.1567C7.63137 14.9824 7.53137 14.7406 7.53137 14.4936ZM9.63381 23.1899C9.4595 23.3643 9.21762 23.4643 8.97075 23.4643C8.72388 23.4643 8.482 23.3643 8.30825 23.1899C8.13319 23.0155 8.03325 22.7743 8.03325 22.5274C8.03325 22.2799 8.13325 22.0386 8.30825 21.8643C8.48194 21.6899 8.72381 21.5893 8.97075 21.5893C9.21769 21.5893 9.4595 21.6899 9.63381 21.8643C9.80825 22.0386 9.90825 22.2799 9.90825 22.5274C9.90825 22.7743 9.80825 23.0155 9.63381 23.1899ZM11.642 6.62113C11.4676 6.7955 11.2257 6.8955 10.9795 6.8955C10.7326 6.8955 10.4908 6.7955 10.3163 6.62113C10.142 6.44675 10.042 6.20487 10.042 5.95862C10.042 5.71175 10.142 5.46987 10.3163 5.2955C10.4908 5.12112 10.7326 5.0205 10.9795 5.0205C11.2257 5.0205 11.4676 5.12112 11.642 5.2955C11.8163 5.46987 11.9164 5.71175 11.9164 5.95862C11.9164 6.20487 11.8163 6.44675 11.642 6.62113ZM13.6501 27.2068C13.4757 27.3812 13.2345 27.4812 12.9876 27.4812C12.7407 27.4812 12.4989 27.3812 12.3245 27.2068C12.1501 27.0318 12.0501 26.7906 12.0501 26.5437C12.0501 26.2968 12.1501 26.0556 12.3245 25.8806C12.4989 25.7062 12.7407 25.6062 12.9876 25.6062C13.2344 25.6062 13.4757 25.7062 13.6501 25.8806C13.8251 26.0556 13.9251 26.2968 13.9251 26.5437C13.9251 26.7905 13.8251 27.0318 13.6501 27.2068ZM18.6714 24.1943C18.4969 24.3686 18.2551 24.4686 18.0082 24.4686C17.7614 24.4686 17.5201 24.3686 17.3457 24.1943C17.1707 24.0199 17.0707 23.778 17.0707 23.5311C17.0707 23.2843 17.1707 23.0424 17.3457 22.8681C17.5194 22.6937 17.7613 22.5936 18.0082 22.5936C18.2551 22.5936 18.4969 22.6937 18.6714 22.8681C18.8457 23.0431 18.9457 23.2843 18.9457 23.5311C18.9457 23.778 18.8457 24.0193 18.6714 24.1943ZM16 19.0792C14.3021 19.0792 12.9207 17.6979 12.9207 16C12.9207 14.3021 14.3021 12.9208 16 12.9208C17.6978 12.9208 19.0791 14.3021 19.0791 16C19.0791 17.6979 17.6979 19.0792 16 19.0792ZM22.6882 26.7043C22.5132 26.8793 22.272 26.9792 22.0252 26.9792C21.7783 26.9792 21.537 26.8793 21.362 26.7043C21.1877 26.5299 21.0877 26.2887 21.0877 26.0417C21.0877 25.7949 21.1877 25.5531 21.362 25.3787C21.5371 25.2043 21.7783 25.1042 22.0252 25.1042C22.2714 25.1042 22.5133 25.2043 22.6882 25.3787C22.8626 25.5531 22.9627 25.7949 22.9627 26.0417C22.9626 26.288 22.8626 26.5299 22.6882 26.7043ZM24.1939 18.6711C24.0202 18.8455 23.7783 18.9455 23.5314 18.9455C23.2844 18.9455 23.0426 18.8455 22.8682 18.6711C22.6939 18.4967 22.5939 18.2549 22.5939 18.0086C22.5939 17.7617 22.6939 17.5199 22.8682 17.3455C23.0426 17.1711 23.2844 17.0711 23.5314 17.0711C23.7782 17.0711 24.0201 17.1711 24.1939 17.3455C24.3689 17.5199 24.4689 17.7617 24.4689 18.0086C24.4689 18.2549 24.3689 18.4967 24.1939 18.6711ZM26.7045 22.6881C26.5302 22.8624 26.2889 22.9624 26.042 22.9624C25.7944 22.9624 25.5532 22.8624 25.3788 22.6881C25.2045 22.5137 25.1039 22.2718 25.1039 22.0249C25.1039 21.7781 25.2045 21.5368 25.3788 21.3618C25.5532 21.1874 25.7951 21.0874 26.042 21.0874C26.2882 21.0874 26.5301 21.1874 26.7045 21.3618C26.8788 21.5369 26.9795 21.7781 26.9795 22.0249C26.9795 22.2718 26.8787 22.5137 26.7045 22.6881Z" fill="#B5D2C8"/>
</svg>
