<svg width="32" height="32" viewBox="0 0 32 32" fill="none" xmlns="http://www.w3.org/2000/svg">
<path d="M26.375 13.1875V11.3125H1.875V16C1.875 20.3438 4.16681 24.2163 7.59737 26.375H20.5901C21.4326 25.8448 22.2669 25.2129 22.9549 24.5H25.4375C29.0557 24.5 32 21.5557 32 17.9375V13.1875H26.375ZM30.125 17.9375C30.125 20.5221 28.0221 22.625 25.4375 22.625H24.4171C25.6429 20.7283 26.375 18.4227 26.375 16V15.0625H30.125V17.9375Z" fill="#B5D2C8"/>
<path d="M10.0044 0L8.96433 1.56006C9.33696 1.80819 9.55027 2.20731 9.55027 2.65506C9.55027 3.10281 9.33696 3.50194 8.96433 3.75006C8.07446 4.34331 7.54346 5.33575 7.54346 6.40506C7.54346 7.47438 8.07446 8.46681 8.96433 9.06006L10.0043 7.5C9.63171 7.25187 9.41839 6.85275 9.41839 6.405C9.41839 5.95725 9.63171 5.55813 10.0043 5.31C10.8943 4.71681 11.4253 3.72438 11.4253 2.655C11.4253 1.58569 10.8943 0.59325 10.0044 0Z" fill="#B5D2C8"/>
<path d="M14.6919 0L13.6518 1.56006C14.0245 1.80819 14.2378 2.20731 14.2378 2.65506C14.2378 3.10281 14.0245 3.50194 13.6518 3.75006C12.762 4.34331 12.231 5.33575 12.231 6.40506C12.231 7.47438 12.762 8.46681 13.6518 9.06006L14.6918 7.5C14.3192 7.25187 14.1059 6.85275 14.1059 6.405C14.1059 5.95725 14.3192 5.55813 14.6918 5.31C15.5818 4.71681 16.1128 3.72438 16.1128 2.655C16.1128 1.58569 15.5818 0.59325 14.6919 0Z" fill="#B5D2C8"/>
<path d="M19.3794 0L18.3393 1.56006C18.712 1.80819 18.9253 2.20731 18.9253 2.65506C18.9253 3.10281 18.712 3.50194 18.3393 3.75006C17.4495 4.34331 16.9185 5.33575 16.9185 6.40506C16.9185 7.47438 17.4495 8.46681 18.3393 9.06006L19.3793 7.5C19.0067 7.25187 18.7934 6.85275 18.7934 6.405C18.7934 5.95725 19.0067 5.55813 19.3793 5.31C20.2693 4.71681 20.8003 3.72438 20.8003 2.655C20.8003 1.58569 20.2693 0.59325 19.3794 0Z" fill="#B5D2C8"/>
<path d="M0 28.25C0 30.3211 1.67894 32 3.75 32H24.5C26.5711 32 28.25 30.3211 28.25 28.25H0Z" fill="#B5D2C8"/>
</svg>
