<svg width="35" height="35" viewBox="0 0 35 35" fill="none" xmlns="http://www.w3.org/2000/svg">
<path d="M31.1591 7.44397C30.6976 5.58522 30.1312 3.72742 29.4758 1.92219C29.4051 1.72723 29.3239 1.53815 29.2347 1.35413L30.5189 1.05471C32.5518 0.580642 34.5666 1.9092 34.9403 3.9701L34.9405 3.97126C35.2658 5.76487 34.229 7.52593 32.5067 8.10514L31.3254 8.50245C31.3012 8.15053 31.2466 7.79657 31.1591 7.44397Z" fill="#B5D2C8"/>
<path d="M1.41528 29.5038C1.44502 29.5178 1.47407 29.5327 1.50415 29.5463C3.26317 30.3397 5.05199 30.9526 6.82085 31.3679C7.27148 31.4737 7.73407 31.5273 8.19576 31.5273C8.30958 31.5273 8.42285 31.5236 8.53564 31.5173L8.20649 32.5004C7.62831 34.2273 5.87463 35.2664 4.08881 34.9402L4.08799 34.94C2.03352 34.5647 0.709816 32.5405 1.18402 30.4994L1.41528 29.5038Z" fill="#B5D2C8"/>
<path d="M12.9972 24.0203C15.1087 24.9165 17.5493 24.2612 18.9614 22.4485C19.4419 21.8316 19.9973 21.1815 20.6151 20.5613C21.222 19.9522 21.8577 19.4036 22.4625 18.9272C24.2714 17.5025 24.8888 15.0251 23.9677 12.9105C22.4361 9.39436 20.5114 6.04722 18.211 2.88109C16.6898 0.787387 13.8516 0.164703 11.6075 1.44582C9.98026 2.37482 8.00714 3.76928 5.94597 5.83804C3.86929 7.92238 2.47456 9.91696 1.54904 11.5572C0.293488 13.7824 0.867979 16.5996 2.90741 18.1324C6.10915 20.5387 9.46702 22.5219 12.9972 24.0203Z" fill="#B5D2C8"/>
<path d="M25.8479 12.0917C24.2685 8.46569 22.2573 4.96126 19.8701 1.67578C19.7488 1.50878 19.6206 1.34813 19.4864 1.19357C20.6755 0.757989 21.7795 0.414005 22.7352 0.147405C24.7378 -0.411227 26.8364 0.661944 27.548 2.62208C28.1784 4.35833 28.7196 6.13 29.1686 7.93823C29.6126 9.72617 28.7858 11.5939 27.1577 12.4453C26.851 12.6057 26.5212 12.7877 26.1701 12.9937C26.0835 12.6894 25.9769 12.388 25.8479 12.0917Z" fill="#B5D2C8"/>
<path d="M1.23238 19.4082C1.37443 19.5342 1.52133 19.6562 1.67534 19.772C5.06473 22.3193 8.60437 24.3838 12.196 25.9082C12.3386 25.9687 12.4825 26.0238 12.6274 26.0746C12.1986 26.6675 11.8336 27.2016 11.5283 27.6682C10.61 29.0719 8.91848 29.754 7.28941 29.3714C5.62275 28.9801 3.9757 28.4114 2.34704 27.6769C0.587339 26.8832 -0.352668 24.9322 0.122702 23.0556C0.387321 22.0111 0.748873 20.7644 1.23238 19.4082Z" fill="#B5D2C8"/>
</svg>
