<svg width="34" height="32" viewBox="0 0 34 32" fill="none" xmlns="http://www.w3.org/2000/svg">
<path d="M0 19.3144C0.526572 19.4461 1.14891 19.5299 2.02251 19.5299C3.65007 19.5299 4.40403 19.2426 5.28961 18.9075C6.24699 18.5485 7.3241 18.1416 9.38254 18.1416C11.4409 18.1416 12.5299 18.5485 13.4874 18.9075C14.361 19.2426 15.1269 19.5299 16.7425 19.5299C18.3701 19.5299 19.124 19.2426 20.0096 18.9075C20.9671 18.5485 22.0561 18.1416 24.1145 18.1416C26.1609 18.1416 27.25 18.5485 28.2074 18.9075C29.081 19.2426 29.8469 19.5299 31.4745 19.5299C32.3482 19.5299 32.9824 19.4461 33.509 19.3144V15.2455H0V19.3144Z" fill="#B5D2C8"/>
<path d="M27.3696 21.1575C26.4841 20.8224 25.7301 20.5352 24.1145 20.5352C22.4869 20.5352 21.7329 20.8224 20.8473 21.1575C19.89 21.5165 18.8009 21.9234 16.7425 21.9234C14.6841 21.9234 13.607 21.5165 12.6496 21.1575C11.7641 20.8224 11.0101 20.5352 9.38254 20.5352C7.76689 20.5352 7.00095 20.8224 6.12735 21.1575C5.16996 21.5165 4.08088 21.9234 2.02251 21.9234C1.20873 21.9234 0.550531 21.8635 0 21.7678V24.1014C0.526572 24.2331 1.14891 24.3169 2.02251 24.3169C3.65007 24.3169 4.40403 24.0296 5.28961 23.6946C6.24699 23.3356 7.3241 22.9287 9.38254 22.9287C11.4409 22.9287 12.5299 23.3356 13.4874 23.6946C14.361 24.0296 15.1269 24.3169 16.7425 24.3169C18.3701 24.3169 19.124 24.0296 20.0096 23.6946C20.9671 23.3356 22.0561 22.9287 24.1145 22.9287C26.1609 22.9287 27.25 23.3356 28.2074 23.6946C29.081 24.0296 29.8469 24.3169 31.4745 24.3169C32.3482 24.3169 32.9824 24.2331 33.509 24.1014V21.7678C32.9584 21.8635 32.3002 21.9234 31.4745 21.9234C29.4161 21.9234 28.327 21.5165 27.3696 21.1575Z" fill="#B5D2C8"/>
<path d="M27.3696 25.9445C26.4841 25.6094 25.7301 25.3221 24.1145 25.3221C22.4869 25.3221 21.7329 25.6094 20.8473 25.9445C19.89 26.3035 18.8009 26.7104 16.7425 26.7104C14.6841 26.7104 13.607 26.3035 12.6496 25.9445C11.7641 25.6094 11.0101 25.3221 9.38254 25.3221C7.76689 25.3221 7.00095 25.6094 6.12735 25.9445C5.16996 26.3035 4.08088 26.7104 2.02251 26.7104C1.20873 26.7104 0.550531 26.6505 0 26.5548V30.8033C0 31.4615 0.538552 32 1.19675 32H32.3122C32.9704 32 33.509 31.4615 33.509 30.8033V26.5548C32.9584 26.6505 32.3002 26.7104 31.4745 26.7104C29.4161 26.7104 28.327 26.3035 27.3696 25.9445Z" fill="#B5D2C8"/>
<path d="M28.6022 1.00418C28.3509 0.752907 28.0876 0.501563 27.8243 0.286157C27.4533 -0.0250091 26.9387 -0.084832 26.5079 0.118595L0.897461 12.852H33.5089C33.5089 8.37619 31.7616 4.17559 28.6022 1.00418Z" fill="#B5D2C8"/>
</svg>
