<svg width="19" height="32" viewBox="0 0 19 32" fill="none" xmlns="http://www.w3.org/2000/svg">
<path d="M18.75 13.125C18.75 12.0841 18.3206 11.1072 17.5763 10.4013C17.7319 9.76956 17.8125 9.10125 17.8125 8.4375C17.8125 3.78481 14.0277 0 9.375 0C4.72231 0 0.9375 3.78481 0.9375 8.4375C0.9375 9.0875 1.01531 9.75312 1.16456 10.3949C0.42575 11.0971 0 12.0758 0 13.125C0 15.1932 1.68181 16.875 3.75 16.875C4.86875 16.875 5.87494 16.3824 6.5625 15.6024C7.25006 16.3824 8.25625 16.875 9.375 16.875C10.4937 16.875 11.4999 16.3824 12.1875 15.6024C12.8751 16.3824 13.8813 16.875 15 16.875C17.1806 16.875 18.75 15.0723 18.75 13.125Z" fill="#B5D2C8"/>
<path d="M6.01416 24.6462L8.49685 31.3911C8.63416 31.7573 8.98391 32 9.37485 32C9.76578 32 10.1155 31.7573 10.2528 31.392L14.9493 18.7432C14.416 18.7383 13.8963 18.6453 13.3942 18.4965L6.01416 24.6462Z" fill="#B5D2C8"/>
<path d="M9.37522 18.7499C8.37822 18.7499 7.40959 18.4844 6.56272 17.9946C5.73053 18.4759 4.77953 18.7341 3.80078 18.7432L5.31722 22.7866L10.3099 18.626C10.0002 18.6789 9.69384 18.7499 9.37522 18.7499Z" fill="#B5D2C8"/>
</svg>
