<?xml version="1.0" encoding="utf-8"?>
<!-- Generator: Adobe Illustrator 27.4.0, SVG Export Plug-In . SVG Version: 6.00 Build 0)  -->
<svg version="1.1" id="Calque_1" xmlns="http://www.w3.org/2000/svg" xmlns:xlink="http://www.w3.org/1999/xlink" x="0px" y="0px"
	 viewBox="0 0 31 28" style="enable-background:new 0 0 31 28;" xml:space="preserve">
<style type="text/css">
	.st0{fill:#B5D2C8;}
</style>
<path class="st0" d="M25.5,16.3c-1.5-0.3-4-2.3-6-4.3c-2-2-5.5-3.5-7.5-5.5c-2-2-3.5-7-6.5-6s-8.5,15.3,0,23
	c8.5,7.7,24,3.4,24.5-0.8S27,16.5,25.5,16.3z M6.6,10.1l-0.8,0.8C4.7,9.8,4.7,8.1,5.8,7l0.8,0.8C5.9,8.4,5.9,9.5,6.6,10.1z
	 M10.6,17.1l-0.8,0.8c-1.1-1.1-1.1-2.8,0-3.9l0.8,0.8C9.9,15.4,9.9,16.5,10.6,17.1z M15.6,23.1l-0.8,0.8c-1.1-1.1-1.1-2.8,0-3.9
	l0.8,0.8C14.9,21.4,14.9,22.5,15.6,23.1z M22.6,21.1l-0.8,0.8c-1.1-1.1-1.1-2.8,0-3.9l0.8,0.8C21.9,19.4,21.9,20.5,22.6,21.1z"/>
</svg>
