<svg width="39" height="31" viewBox="0 0 39 31" fill="none" xmlns="http://www.w3.org/2000/svg">
<path fill-rule="evenodd" clip-rule="evenodd" d="M32.978 16.9843H34.7629C34.1964 16.2388 33.6748 15.4603 33.2009 14.6528C32.2535 13.0206 31.3789 11.5112 30.0565 10.804C28.8149 10.2416 27.4424 10.0316 26.0893 10.1971H26.0193H25.9443C25.4486 10.2547 24.9474 10.2449 24.4544 10.1677C23.8398 9.84115 23.288 9.40839 22.8244 8.8894C22.3214 8.96184 21.8596 9.20834 21.5195 9.58599C21.6534 9.71146 21.7865 9.83824 21.9169 9.9644C22.4769 10.5879 23.1526 11.097 23.9064 11.4634C24.619 11.6411 25.3579 11.6886 26.0873 11.6036C27.2083 11.4478 28.3506 11.5974 29.3936 12.0367C30.3705 12.5616 31.1561 13.919 31.9866 15.3556C32.3067 15.9057 32.6353 16.4636 32.978 16.9843Z" fill="#B5D2C8"/>
<path fill-rule="evenodd" clip-rule="evenodd" d="M17.1766 16.9842H19.4191C18.4264 16.2394 17.4843 15.4294 16.5991 14.5595C15.9292 13.8971 15.2191 13.2768 14.473 12.7017C14.2361 13.0913 14.0595 13.4669 13.7939 13.9399C14.5396 14.5096 16.3631 16.2778 17.1766 16.9842Z" fill="#B5D2C8"/>
<path fill-rule="evenodd" clip-rule="evenodd" d="M10.4567 14.8441C10.9749 14.6946 11.465 14.4609 11.9074 14.1524C12.2963 13.7448 12.6111 13.2727 12.838 12.7571C13.1928 11.9204 13.769 11.1963 14.5045 10.6625C15.3341 10.2931 16.2502 10.1623 17.15 10.2848C17.6965 10.3504 18.2503 10.3155 18.7842 10.1818C19.2047 10.083 19.7176 9.48095 19.9636 9.20065V9.19574L19.9705 9.18946L19.9748 9.18524C20.4394 8.57627 21.042 8.08626 21.733 7.75567C21.3646 7.41413 20.9431 7.13482 20.4849 6.92871C19.7288 7.48932 18.9663 8.40948 18.543 8.72903C18.1196 8.91736 17.6485 8.97139 17.1933 8.88394C16.0378 8.74229 14.8659 8.93545 13.817 9.44033C13.5714 9.57715 13.3424 9.74179 13.1344 9.93088C12.4897 10.5511 11.9668 11.2866 11.5927 12.0991C11.0496 13.1853 11.0384 13.1503 9.96899 13.5231C8.60664 14.0136 6.94161 14.6219 6.24219 16.9829H7.7783C8.15878 15.6808 9.46365 15.2028 10.4567 14.8441Z" fill="#B5D2C8"/>
<path fill-rule="evenodd" clip-rule="evenodd" d="M12.9638 15.069C12.3788 15.5837 11.6836 15.9577 10.9316 16.1622C10.3465 16.3137 9.80293 16.5947 9.34082 16.9843H15.0872C14.4523 16.385 13.509 15.4915 12.9638 15.069Z" fill="#B5D2C8"/>
<path fill-rule="evenodd" clip-rule="evenodd" d="M28.9672 15.8084C28.9799 15.8273 28.9924 15.847 29.0036 15.8666C29.2139 16.2464 29.4241 16.6178 29.6666 16.983H31.319C31.134 16.6739 30.9525 16.3628 30.7745 16.0558C30.0773 14.8511 29.3561 13.6031 28.7303 13.2695C27.9049 12.9703 27.0186 12.8784 26.1493 13.0018C25.2323 13.106 24.3038 13.0294 23.4163 12.7761C22.4773 12.3497 21.6353 11.7362 20.9418 10.973C20.8122 10.8483 20.6881 10.7291 20.5641 10.6128C20.2439 10.9533 19.861 11.2291 19.4365 11.425C19.5592 11.5435 19.6839 11.6654 19.8142 11.795C20.6824 12.7691 21.744 13.5517 22.9313 14.0929C23.976 14.4132 25.0743 14.5206 26.1612 14.4089L26.2937 14.3991C26.3112 14.3991 26.3777 14.3928 26.3953 14.3928C27.4507 14.3434 28.4444 14.8904 28.9672 15.8084Z" fill="#B5D2C8"/>
<path fill-rule="evenodd" clip-rule="evenodd" d="M17.6434 1.4044C17.2255 1.82267 17.0089 2.40121 17.0492 2.9911C17.0895 3.58099 17.3828 4.12465 17.8536 4.4823C18.7418 5.11342 19.9641 4.96733 20.6785 4.1445C21.4747 3.18226 21.9195 1.97765 21.9399 0.728894C21.9478 0.53275 21.873 0.342279 21.7338 0.203851C21.5946 0.0654241 21.4037 -0.008235 21.2076 0.000732873C19.8869 0.0123834 18.6174 0.512438 17.6434 1.4044Z" fill="#B5D2C8"/>
<path fill-rule="evenodd" clip-rule="evenodd" d="M24.3358 16.9842H28.024C27.9498 16.8525 27.8706 16.7158 27.8019 16.5911C27.7893 16.5728 27.7781 16.5539 27.7676 16.5364C27.5 16.0608 26.9898 15.7739 26.4445 15.7922L26.3744 15.7978C26.3478 15.7978 26.2945 15.8055 26.2679 15.8062C24.9773 15.9354 23.6739 15.799 22.438 15.4053C21.0624 14.8013 19.8321 13.9098 18.8297 12.7907C18.4558 12.3519 18.0074 11.9825 17.5052 11.6996C16.8514 11.635 16.1922 11.6529 15.543 11.7529C16.1814 12.2434 16.857 12.8742 17.5591 13.5392C18.7967 14.7053 20.1997 16.0276 21.4604 16.5638C22.3865 16.873 23.36 17.0154 24.3358 16.9842Z" fill="#B5D2C8"/>
<path fill-rule="evenodd" clip-rule="evenodd" d="M11.479 0.000645276C11.2825 -0.00778606 11.0915 0.0667164 10.9526 0.205987C10.8137 0.345257 10.7397 0.536495 10.7488 0.733022C10.7647 2.05222 11.2633 3.31999 12.1504 4.29649C12.6645 4.80137 13.4062 4.99867 14.1032 4.81571C14.8001 4.63275 15.3494 4.09667 15.5492 3.40438C15.7516 2.54208 15.4252 1.64169 14.7173 1.10929C13.7795 0.411788 12.6475 0.024253 11.479 0.000645276Z" fill="#B5D2C8"/>
<path fill-rule="evenodd" clip-rule="evenodd" d="M3.27197 16.9844H4.79406C5.61044 13.6122 8.02679 12.7362 9.50334 12.2043C9.6141 12.1658 9.8839 12.0705 10.059 11.999C10.1404 11.8588 10.251 11.657 10.3471 11.4643C10.7976 10.4975 11.4261 9.62435 12.2 8.89029C12.4847 8.63053 12.7981 8.40411 13.1341 8.2154C14.4077 7.58175 15.8364 7.32704 17.2505 7.48164C17.4383 7.49284 17.6499 7.5041 17.8182 7.5041C17.9296 7.4004 18.0746 7.25392 18.1805 7.146L18.3207 7.00581C18.5036 6.82078 18.7026 6.62318 18.9129 6.42489C16.7635 5.80902 14.4623 6.01099 12.453 6.99186C12.0327 7.22886 11.6393 7.51085 11.2799 7.83277C10.4214 8.63199 9.71719 9.5822 9.20204 10.6359C9.12064 10.7873 8.9865 10.9035 8.825 10.9625C6.00212 11.7873 3.86577 14.104 3.27197 16.9844Z" fill="#B5D2C8"/>
<path d="M38.235 18.3857H0.700929C0.490452 18.3857 0.291166 18.4803 0.158028 18.6433C0.0248893 18.8063 -0.0279216 19.0205 0.0141585 19.2267L0.228621 20.2933C1.47447 26.5185 6.9405 30.9994 13.2891 30.9999H25.651C31.9967 30.9999 37.4606 26.5218 38.7066 20.2997L38.9218 19.224C38.9629 19.0182 38.9097 18.8048 38.7766 18.6424C38.6436 18.4801 38.4449 18.3859 38.235 18.3857ZM13.2871 29.5983C7.85415 29.599 3.109 25.9237 1.75071 20.6634C1.67705 20.4174 1.74381 20.1509 1.9247 19.9687C2.10559 19.7865 2.37156 19.7177 2.61806 19.7896C2.86456 19.8614 3.05205 20.0621 3.10677 20.313C4.3051 24.9542 8.49156 28.1969 13.285 28.1968C13.672 28.1968 13.9858 28.5106 13.9858 28.8976C13.9858 29.2847 13.6721 29.5984 13.285 29.5984H13.2871V29.5983Z" fill="#B5D2C8"/>
</svg>
