<svg width="37" height="36" viewBox="0 0 37 36" fill="none" xmlns="http://www.w3.org/2000/svg">
<path d="M35.8718 23.0473C32.4699 12.1021 23.9055 3.53769 12.9572 0.134878C11.2793 -0.375575 9.56558 0.614804 9.07011 2.2293C8.53377 3.86962 9.40816 5.61284 11.008 6.15551C11.0472 6.17303 11.0874 6.18744 11.1275 6.20088C20.0278 8.99687 27.0107 15.9798 29.8068 24.8801C29.8192 24.9193 29.8347 24.9584 29.8511 24.9966C30.406 26.6368 32.1855 27.4595 33.7557 26.9447C35.4903 26.421 36.3811 24.5572 35.8718 23.0473Z" fill="#B5D2C9"/>
<path d="M8.87949 12.847C8.52576 12.6911 8.15549 12.6172 7.77882 12.597L5.80615 18.3271C6.32821 18.6897 6.94713 18.909 7.60304 18.909C9.34823 18.9089 10.768 17.4892 10.768 15.744C10.7679 14.4902 10.0272 13.3528 8.87949 12.847Z" fill="#B5D2C9"/>
<path d="M14.6613 29.1114C14.1225 28.0245 13.0356 27.3486 11.8231 27.3486C10.0779 27.3486 8.6582 28.7684 8.6582 30.5136C8.6582 31.3852 9.0054 32.197 9.63487 32.7997C9.68185 32.8446 9.737 32.8764 9.78617 32.9182L14.9057 31.1555C15.0435 30.4489 14.9771 29.749 14.6613 29.1114Z" fill="#B5D2C9"/>
<path d="M20.263 21.0188C19.6809 21.0188 19.208 21.4917 19.208 22.0737C19.208 22.6558 19.6808 23.1287 20.263 23.1287C20.845 23.1287 21.3179 22.6558 21.3179 22.0737C21.3179 21.4917 20.845 21.0188 20.263 21.0188Z" fill="#B5D2C9"/>
<path d="M27.8519 25.6724C24.9631 16.5047 18.8511 11.3787 10.1462 8.08216C9.908 8.00331 9.6742 7.88858 9.44433 7.76099L8.4811 10.5587C8.90595 10.6298 9.3263 10.738 9.73208 10.9163C11.6432 11.7601 12.8784 13.6547 12.8784 15.7441C12.8784 18.6525 10.512 21.0189 7.60361 21.0189C6.71354 21.0189 5.87038 20.7568 5.11184 20.3455L0.0578118 34.602C-0.0740746 34.9832 0.0238379 35.4056 0.309205 35.6909C0.599074 35.9808 1.02582 36.0721 1.39813 35.9423L7.61388 33.6661C6.9311 32.7602 6.54866 31.6732 6.54866 30.5135C6.54866 27.6051 8.91509 25.2387 11.8235 25.2387C13.8438 25.2387 15.6559 26.3637 16.5523 28.1749C16.9038 28.8846 17.0264 29.649 17.0382 30.4216L28.2506 26.5614C28.0922 26.2803 27.9571 25.9838 27.8519 25.6724ZM14.6794 22.8197C14.2674 23.2317 13.5995 23.2317 13.1874 22.8197C12.7754 22.4077 12.7754 21.7398 13.1874 21.3278C13.5994 20.9158 14.2673 20.9158 14.6794 21.3278C15.0914 21.7398 15.0914 22.4078 14.6794 22.8197ZM15.2974 14.38C14.8854 13.9679 14.8854 13.3003 15.2974 12.8882C15.7095 12.4762 16.3771 12.4762 16.7892 12.8882L18.8991 14.9981C19.3111 15.4102 19.3111 16.0778 18.8991 16.4899C18.487 16.902 17.8194 16.902 17.4073 16.4899L15.2974 14.38ZM20.2632 25.2387C18.518 25.2387 17.0982 23.819 17.0982 22.0738C17.0982 20.3286 18.518 18.9089 20.2632 18.9089C22.0084 18.9089 23.4281 20.3286 23.4281 22.0738C23.4281 23.819 22.0084 25.2387 20.2632 25.2387Z" fill="#B5D2C9"/>
</svg>
