<svg width="32" height="32" viewBox="0 0 32 32" fill="none" xmlns="http://www.w3.org/2000/svg">
<path d="M2.17882 11.4846C3.26268 13.1614 4.45759 14.7636 5.75552 16.2807H6.72619C6.60386 15.5796 6.42991 14.8885 6.20577 14.2131C5.34875 11.7074 3.85457 9.46773 1.87005 7.71425L2.62345 6.88225C4.75148 8.7645 6.3529 11.1683 7.27019 13.8571C7.4184 14.299 7.54023 14.752 7.64858 15.2095C7.6991 15.1175 7.75131 15.0265 7.79566 14.9288C9.05938 12.1218 8.44521 7.65194 5.75945 6.10134C5.11468 5.76854 4.40912 5.56995 3.68542 5.51755C2.96172 5.46516 2.23491 5.56005 1.54893 5.7965C1.23595 5.87587 0.942605 6.01867 0.68708 6.21606C0.431555 6.41345 0.219294 6.66122 0.0634531 6.94401C-0.234652 7.69685 0.583874 9.01839 2.17882 11.4846Z" fill="#B5D2C8"/>
<path d="M15.1249 10.8233C15.0824 10.4846 14.9977 10.1524 14.8728 9.83469C13.9976 7.61378 11.4432 6.37588 9.91282 6.83174C9.41037 7.0012 8.9768 7.32973 8.67773 7.7676C9.71172 10.0201 9.8289 12.5865 9.00447 14.9238C9.03647 14.8845 9.07465 14.8497 9.10609 14.8115C10.2987 13.2693 11.0358 11.4239 11.2338 9.48437L12.3499 9.60676C12.1321 11.7567 11.313 13.8019 9.98637 15.5077C9.77247 15.7783 9.53724 16.0326 9.29696 16.2824H11.8862L11.9328 16.2605C11.6383 15.1164 11.809 13.9022 12.4074 12.8836C13.0058 11.865 13.9833 11.1248 15.126 10.825L15.1249 10.8233Z" fill="#B5D2C8"/>
<path d="M25.3766 16.2807H30.999C30.6414 15.7626 30.1407 15.36 29.5579 15.122C29.1775 14.9937 28.7803 14.9218 28.379 14.9086C27.8636 14.8704 27.2792 14.8267 27.0086 14.286C26.7279 13.719 27.1113 13.2413 27.419 12.8567C27.7317 12.5169 27.9603 12.1085 28.0865 11.6643C28.3638 10.4544 28.3672 8.42385 27.2354 7.78722C26.9724 7.65298 26.685 7.57307 26.3904 7.55224C26.0959 7.5314 25.8002 7.57008 25.5209 7.66596C24.6783 7.91896 23.9629 8.48159 23.5183 9.24069C23.081 10.0862 23.3364 11.0237 23.5835 11.9293C23.8305 12.8348 24.0887 13.7869 23.4083 14.4404C22.7172 15.1057 21.7078 14.8334 20.7304 14.5667C20.813 15.1392 20.7775 15.7225 20.626 16.2807H24.2352C24.3756 15.4857 24.5339 14.6897 24.7175 13.9065C25.0319 12.5681 25.4148 11.2286 25.8555 9.92561L26.9187 10.2849C26.4898 11.5542 26.1171 12.8595 25.8111 14.1636C25.6472 14.862 25.5051 15.5716 25.3766 16.2807Z" fill="#B5D2C8"/>
<path d="M19.4562 16.2807C19.5592 15.9902 19.6206 15.6867 19.6386 15.3791L18.705 15.6901L18.3502 14.6234L19.5191 14.2338C19.3436 13.6234 18.9994 13.0749 18.5261 12.6515C18.0527 12.228 17.4695 11.9467 16.8434 11.84V12.9122H15.7206V11.84C15.1835 11.9318 14.6767 12.1523 14.2434 12.4826C13.81 12.813 13.4632 13.2433 13.2325 13.7369L14.2138 14.0642L13.859 15.1309L12.931 14.821C12.9196 14.9329 12.9138 15.0454 12.9136 15.1579C12.9128 15.5406 12.9785 15.9205 13.1078 16.2807H19.4562ZM15.7206 14.0351H16.8434V15.1579H15.7206V14.0351Z" fill="#B5D2C8"/>
<path d="M4.29773 16.2807C3.6697 15.5157 3.06507 14.7267 2.48383 13.9138C1.97072 14.0846 1.47411 14.3015 1.00004 14.5617C0.615053 14.7291 0.301796 15.0274 0.115831 15.4038C0.00131937 15.6812 -0.0291357 15.9861 0.0282518 16.2807H4.29773Z" fill="#B5D2C8"/>
<path d="M0.0112305 17.4036C0.160944 21.3223 1.82185 25.031 4.64578 27.7522C7.4697 30.4733 11.2374 31.9957 15.159 32.0001H16.2818C20.2035 31.9957 23.9711 30.4733 26.7951 27.7522C29.619 25.031 31.2799 21.3223 31.4296 17.4036H0.0112305ZM9.30077 29.1369C6.64506 27.8552 4.41804 25.8308 2.88955 23.309L3.84955 22.7262C5.26579 25.0626 7.32893 26.9383 9.7892 28.1264L9.30077 29.1369ZM11.7906 29.7544H10.6678V28.6316H11.7906V29.7544Z" fill="#B5D2C8"/>
<path d="M24.1416 2.80701V1.6842H21.896C20.7049 1.6842 19.5625 2.15739 18.7202 2.99965C17.878 3.84192 17.4048 4.98428 17.4048 6.17543V7.29824H19.6504C20.8415 7.29824 21.9839 6.82506 22.8262 5.98279C23.6684 5.14052 24.1416 3.99816 24.1416 2.80701Z" fill="#B5D2C8"/>
<path d="M13.4749 3.92982C14.095 3.92982 14.5977 3.42712 14.5977 2.80701C14.5977 2.1869 14.095 1.6842 13.4749 1.6842C12.8547 1.6842 12.3521 2.1869 12.3521 2.80701C12.3521 3.42712 12.8547 3.92982 13.4749 3.92982Z" fill="#B5D2C8"/>
<path d="M6.17652 2.24561C6.79663 2.24561 7.29932 1.74292 7.29932 1.12281C7.29932 0.502698 6.79663 0 6.17652 0C5.55641 0 5.05371 0.502698 5.05371 1.12281C5.05371 1.74292 5.55641 2.24561 6.17652 2.24561Z" fill="#B5D2C8"/>
</svg>
