<svg width="43" height="29" viewBox="0 0 43 29" fill="none" xmlns="http://www.w3.org/2000/svg">
<path d="M17.8313 7.48418H21.2978C21.8218 6.09105 21.7273 4.48016 20.9 3.10596C20.9 3.10512 20.8992 3.10345 20.8984 3.10262C19.8985 1.44637 18.0979 0.571541 16.2924 0.674118C14.8782 3.02423 15.6095 6.02008 17.8313 7.48418Z" fill="#B5D2C8"/>
<path d="M22.9652 7.48418H25.6361C27.8542 6.02249 28.5914 3.0279 27.175 0.674118C25.3695 0.571541 23.569 1.44637 22.5691 3.10262C22.5691 3.10429 22.5682 3.10512 22.5674 3.10596C23.3948 4.48024 23.4892 6.09105 22.9652 7.48418Z" fill="#B5D2C8"/>
<path d="M4.87944 19.5862L1.34085 21.8844C0.793686 22.2675 0.467773 22.8933 0.467773 23.5613C0.467773 25.0307 1.97024 26.0215 3.32093 25.4426L6.25181 24.4964C6.20561 24.3273 6.16908 24.1539 6.14448 23.9765C5.93432 22.4544 5.50875 20.9801 4.87944 19.5862Z" fill="#B5D2C8"/>
<path d="M7.75739 14.9815C6.2746 15.411 5.52154 17.0714 6.19454 18.46C7.02767 20.178 7.54723 21.9418 7.79659 23.7473C8.00758 25.2685 9.53207 26.2384 11.0015 25.7914C12.562 25.3167 14.166 24.8312 15.5748 24.5728C14.796 20.6236 13.6218 17.1102 12.0096 13.8893C10.6703 14.1375 9.18789 14.5665 7.75739 14.9815Z" fill="#B5D2C8"/>
<path d="M42.1269 21.8844L38.5883 19.5862C37.959 20.9802 37.5334 22.4543 37.3233 23.9756C37.2986 24.1533 37.2621 24.3269 37.2158 24.4964L40.1469 25.4426C41.4975 26.0215 43 25.0307 43 23.5613C42.9999 22.8933 42.674 22.2675 42.1269 21.8844Z" fill="#B5D2C8"/>
<path d="M35.7103 14.9817C34.2831 14.5674 32.8041 14.1393 31.467 13.8906C29.902 17.2537 28.675 20.8313 27.8076 24.5576C29.2369 24.8119 30.8741 25.3071 32.4661 25.7916C33.9355 26.2386 35.46 25.2687 35.671 23.7476C35.9203 21.942 36.4399 20.1782 37.273 18.4602C37.9461 17.0716 37.193 15.4112 35.7103 14.9817Z" fill="#B5D2C8"/>
<path d="M27.9105 9.1521H15.5541C13.6787 9.1521 12.4769 11.1355 13.3326 12.8042C15.4859 17.0034 16.8097 21.5079 17.5643 26.2218C17.7589 27.4373 18.804 28.3333 20.035 28.3333H23.2723C24.4702 28.3333 25.4992 27.4838 25.7278 26.3078C26.6611 21.5059 28.1424 16.978 30.1715 12.724C30.9621 11.0666 29.7469 9.1521 27.9105 9.1521ZM19.2325 17.4918C18.7731 17.4918 18.3986 17.1176 18.3986 16.6579C18.3986 16.1984 18.7728 15.8239 19.2325 15.8239C19.692 15.8239 20.0665 16.1982 20.0665 16.6579C20.0665 17.1173 19.6922 17.4918 19.2325 17.4918ZM19.2325 14.156C18.7731 14.156 18.3986 13.7818 18.3986 13.322C18.3986 12.8626 18.7728 12.488 19.2325 12.488C19.692 12.488 20.0665 12.8624 20.0665 13.322C20.0665 13.7813 19.6922 14.156 19.2325 14.156ZM24.2363 17.4918C23.7768 17.4918 23.4023 17.1175 23.4023 16.6579C23.4023 16.1983 23.7766 15.8239 24.2363 15.8239C24.6957 15.8239 25.0703 16.1982 25.0703 16.6579C25.0703 17.1172 24.696 17.4918 24.2363 17.4918ZM24.2363 14.156C23.7768 14.156 23.4023 13.7817 23.4023 13.322C23.4023 12.8625 23.7766 12.488 24.2363 12.488C24.6957 12.488 25.0703 12.8623 25.0703 13.322C25.0703 13.7813 24.696 14.156 24.2363 14.156Z" fill="#B5D2C8"/>
</svg>
