<svg width="31" height="31" viewBox="0 0 31 31" fill="none" xmlns="http://www.w3.org/2000/svg">
<path d="M15.5 0C6.93964 0 0 6.93964 0 15.5C0 24.0604 6.93964 31 15.5 31C24.0604 31 31 24.0604 31 15.5C30.9903 6.9437 24.0563 0.00973075 15.5 0ZM28.2321 17.1607C28.2346 18.0543 27.8005 18.8925 27.0696 19.4066C27.1055 19.5783 27.1239 19.7531 27.125 19.9286C27.128 20.703 26.8052 21.4428 26.2354 21.9674C25.6657 22.4918 24.9015 22.7524 24.1301 22.6853C23.8363 23.3649 23.2805 23.8968 22.5891 24.1606C22.6599 24.4044 22.6962 24.6569 22.6964 24.9107C22.6945 26.4387 21.4566 27.6767 19.9286 27.6786H19.9169C19.2869 28.5243 18.2273 28.9333 17.1923 28.7303C16.6761 29.4582 15.839 29.8907 14.9464 29.8907C14.0539 29.8907 13.2168 29.4582 12.7005 28.7303C11.6655 28.933 10.6062 28.5241 9.97591 27.6786H9.96428C8.43629 27.6767 7.19832 26.4387 7.19643 24.9107C7.1967 24.6569 7.23292 24.4044 7.30374 24.1606C6.61231 23.8968 6.05658 23.3649 5.76276 22.6853C4.99133 22.7524 4.2272 22.4918 3.65741 21.9674C3.08762 21.4428 2.76488 20.703 2.76786 19.9286C2.76894 19.7531 2.78732 19.5783 2.82327 19.4066C2.07265 18.8749 1.6372 18.0038 1.66288 17.0842C1.68828 16.1649 2.17158 15.3192 2.95058 14.8302C2.50053 13.6541 2.90355 12.3226 3.93041 11.5934C3.89446 11.4217 3.87608 11.2469 3.875 11.0714C3.87122 10.2968 4.19395 9.55641 4.76374 9.03176C5.3338 8.50738 6.09821 8.24681 6.86991 8.31465C7.16372 7.63512 7.71946 7.10318 8.41088 6.83936C8.34006 6.59555 8.30384 6.3431 8.30357 6.08929C8.30546 4.56129 9.54343 3.32332 11.0714 3.32143H11.0831C11.7139 2.47648 12.773 2.06778 13.8077 2.2697C14.3239 1.54178 15.161 1.10931 16.0536 1.10931C16.9461 1.10931 17.7832 1.54178 18.2995 2.2697C19.3342 2.06751 20.3935 2.47648 21.0241 3.32143H21.0357C22.5637 3.32332 23.8017 4.56129 23.8036 6.08929C23.8033 6.3431 23.7671 6.59555 23.6963 6.83936C24.3877 7.10318 24.9434 7.63512 25.2372 8.31465C26.0092 8.24627 26.7739 8.5063 27.3442 9.03094C27.9143 9.55586 28.2365 10.2965 28.2321 11.0714C28.2311 11.2469 28.2127 11.4217 28.1767 11.5934C28.9271 12.1253 29.362 12.997 29.336 13.9163C29.3101 14.8356 28.8265 15.6811 28.0473 16.1698C28.1694 16.486 28.2319 16.8218 28.2321 17.1607Z" fill="#B5D2C8"/>
<path d="M27.291 12.3503C27.0331 12.2254 26.9128 11.9243 27.0142 11.6561C27.2496 11.0709 27.1274 10.4025 26.7004 9.9384C26.2733 9.47429 25.6175 9.29725 25.0148 9.48321C24.8672 9.52511 24.7091 9.50376 24.5777 9.42456C24.4466 9.34536 24.3539 9.21535 24.3223 9.06533C24.1717 8.36499 23.5862 7.84169 22.8735 7.7706C22.6859 7.7506 22.5213 7.63626 22.4369 7.46706C22.3526 7.29812 22.3602 7.09783 22.4572 6.93565C22.6132 6.68103 22.6959 6.38803 22.6964 6.08935C22.6964 5.17222 21.9528 4.42863 21.0357 4.42863C20.9833 4.43025 20.9308 4.43566 20.8789 4.44458L20.8154 4.4535C20.5916 4.48269 20.3727 4.37322 20.2618 4.17671C19.8732 3.45123 19.0031 3.1312 18.2368 3.43231C17.9686 3.53367 17.6675 3.41339 17.5426 3.15553C17.2705 2.57925 16.6907 2.21191 16.0536 2.21191C15.4165 2.21191 14.8367 2.57925 14.5645 3.15553C14.4396 3.41339 14.1385 3.53367 13.8704 3.43231C13.1049 3.13174 12.2359 3.45096 11.8464 4.17509C11.7356 4.3716 11.5166 4.48107 11.2928 4.45188L11.2293 4.44296C11.1771 4.43458 11.1244 4.42971 11.0714 4.42863C10.1543 4.42863 9.41071 5.17222 9.41071 6.08935C9.41179 6.3883 9.49532 6.6813 9.65209 6.93565C9.74913 7.09783 9.7567 7.29812 9.67236 7.46706C9.5883 7.63626 9.42369 7.7506 9.23583 7.7706C8.52305 7.84169 7.93759 8.36499 7.78703 9.06533C7.75541 9.21535 7.66269 9.34536 7.5316 9.42456C7.40023 9.50376 7.24211 9.52511 7.09453 9.48321C6.49257 9.30238 5.8398 9.48105 5.41381 9.94326C4.98782 10.4057 4.86321 11.0707 5.09296 11.6561C5.19433 11.9243 5.07404 12.2254 4.81618 12.3503C4.38073 12.5568 4.05745 12.9433 3.93068 13.4082C3.80418 13.8729 3.88689 14.3699 4.15719 14.7689C4.25261 14.9111 4.27666 15.0895 4.2226 15.2519C4.16827 15.4144 4.04204 15.5425 3.88041 15.5993C3.24385 15.8147 2.80219 16.3956 2.76434 17.0664C2.7265 17.7376 3.10059 18.3644 3.70904 18.6498C3.9669 18.7747 4.08718 19.0758 3.98582 19.344C3.75039 19.9292 3.87257 20.5976 4.29964 21.0617C4.72671 21.5258 5.38245 21.7029 5.98522 21.5169C6.1328 21.475 6.29093 21.4964 6.42229 21.5756C6.55339 21.6548 6.6461 21.7848 6.67773 21.9348C6.82828 22.6351 7.41375 23.1584 8.12653 23.2295C8.31411 23.2495 8.47872 23.3639 8.56306 23.5331C8.64739 23.702 8.63982 23.9023 8.54279 24.0645C8.38682 24.3191 8.30411 24.6121 8.30357 24.9108C8.30357 25.8279 9.04716 26.5715 9.96428 26.5715C10.0167 26.5699 10.0692 26.5645 10.1211 26.5555L10.1846 26.5466C10.4081 26.5182 10.6265 26.6277 10.7381 26.8234C11.1271 27.5489 11.9969 27.8686 12.7632 27.5678C13.0314 27.4664 13.3325 27.5867 13.4574 27.8446C13.7295 28.4209 14.3093 28.7882 14.9464 28.7882C15.5835 28.7882 16.1633 28.4209 16.4355 27.8446C16.5604 27.5867 16.8615 27.4664 17.1296 27.5678C17.8951 27.8681 18.7641 27.5492 19.1536 26.825C19.2653 26.6296 19.4837 26.5204 19.7072 26.5482L19.7707 26.5572C19.8229 26.5655 19.8756 26.5704 19.9286 26.5715C20.8457 26.5715 21.5893 25.8279 21.5893 24.9108C21.5882 24.6118 21.5047 24.3188 21.3479 24.0645C21.2509 23.9023 21.2433 23.702 21.3276 23.5331C21.4117 23.3639 21.5763 23.2495 21.7642 23.2295C22.4769 23.1584 23.0624 22.6351 23.213 21.9348C23.2446 21.7848 23.3373 21.6548 23.4684 21.5756C23.5998 21.4964 23.7579 21.475 23.9055 21.5169C24.5074 21.6977 25.1602 21.5191 25.5862 21.0569C26.0122 20.5944 26.1368 19.9294 25.907 19.344C25.8057 19.0758 25.926 18.7747 26.1838 18.6498C26.6193 18.4433 26.9425 18.0568 27.0693 17.5919C27.1958 17.1273 27.1131 16.6302 26.8428 16.2312C26.7474 16.089 26.7233 15.9106 26.7774 15.7482C26.8317 15.5857 26.958 15.4576 27.1196 15.4009C27.7561 15.1854 28.1978 14.6046 28.2357 13.9337C28.2735 13.2625 27.8994 12.6357 27.291 12.3503ZM8.04625 19.3475L7.26346 20.13C6.18497 19.0483 6.18497 17.2978 7.26346 16.2158L8.04625 16.9986C7.39888 17.6479 7.39888 18.6982 8.04625 19.3475ZM8.30357 13.8393C8.30357 12.9222 7.55998 12.1786 6.64286 12.1786V11.0715C8.17085 11.0734 9.40882 12.3113 9.41071 13.8393H8.30357ZM15.5 4.42863H16.6071V5.53577H15.5V4.42863ZM12.6994 6.35991L13.7839 6.14476C14.0807 7.64221 13.1103 9.0975 11.6139 9.39969L11.3969 8.31471C12.2964 8.1347 12.8797 7.25947 12.6994 6.35991ZM11.0714 18.2679V17.1608H12.1786V18.2679H11.0714ZM13.9047 24.8554L12.8192 24.6383C12.9981 23.7388 12.414 22.8643 11.5142 22.6854L11.7312 21.6004C13.23 21.8994 14.2031 23.3566 13.9047 24.8554ZM13.8393 13.2858V12.1786H14.9464V13.2858H13.8393ZM16.0536 16.0536V17.7143H14.9464V15.5001C14.9464 15.1944 15.1943 14.9465 15.5 14.9465H17.7143V16.0536H16.0536ZM18.2679 25.4643H17.1607V24.3572H18.2679V25.4643ZM18.2679 20.4822H17.1607V19.3751H18.2679V20.4822ZM19.375 8.8572H18.2679V7.75006H19.375V8.8572ZM22.6964 11.6251C22.6964 12.5422 23.44 13.2858 24.3571 13.2858V14.3929C22.8291 14.391 21.5912 13.1531 21.5893 11.6251H22.6964ZM23.9657 19.7665C23.3173 19.1177 22.2656 19.1177 21.6169 19.7665L20.8343 18.9837C21.9158 17.9046 23.6668 17.9046 24.7485 18.9837L23.9657 19.7665Z" fill="#B5D2C8"/>
</svg>
