<svg xmlns="http://www.w3.org/2000/svg" width="357" height="107" fill="none"><path fill="#EFEAD5" d="M85.5 65.9h-.7a1.7 1.7 0 0 1-1.5.6c-1.2 0-1.4-.3-.7-.7.3-.2.6-.2.7 0 .3.2.5.1.5-.3 0-1 .4-1.2 1.6-1 .5 0 .8-.3.8-1 0-.4.2-.6.5-.6.4 0 .4.2.3.4h-.5c0 .4.3.7 1 .7.4 0 .7-.3.7-1-.1-.7 0-.8.3-.3.1.7.4.8.7.4.4-.5.6-.5.5 0 0 .2.2.3.5.3.6-.2.8-.7.7-1.6 0-.2 0-.2.2 0 .2 0 .2.2.2.7 0 .6.1.7.4.3h1.5a.4.4 0 0 0 .4 0 .4.4 0 0 1 .4-.2h.3c.3 0 .7-.1 1-.3.8 0 1.2 0 1.2-.3.2-.2.3-.2.3 0 0 .7.1.8.5.3.2-.2.8-.3 2-.2h1a.7.7 0 0 0 .5-.3h1c.7 0 1.1 0 1.3-.2.4-.2.5-.2.5 0l.1.3c.1 0 .2 0 .2-.3a2.7 2.7 0 0 0 1.5-.3h2.6c1.4-.1 2.8-.3 4.2-.7a32.4 32.4 0 0 1 3-.4 24.9 24.9 0 0 1 2.5 0 3.7 3.7 0 0 1 2-.3c.9 0 1.9 0 2.8-.2a50.3 50.3 0 0 1 3.2-.4 17.9 17.9 0 0 1 1.8 0 2.5 2.5 0 0 1 1.4-.3 6 6 0 0 0 2-.3l1.3-.1a4.7 4.7 0 0 1 1.1-.1l1.3-.1a8.5 8.5 0 0 1 1.8-.1l3.5-.6 8.7-.6a964.5 964.5 0 0 0 25.7-2l7.6-.3a9.8 9.8 0 0 1 2.6-.2 4.9 4.9 0 0 0 2-.3 90.1 90.1 0 0 0 9.5-.2 36.7 36.7 0 0 1 6-.6 79 79 0 0 1 6.7 0 29.9 29.9 0 0 1 2.9-.1l6-.4 34-.3a64.4 64.4 0 0 1 6.4 0 24.1 24.1 0 0 0 4.8-.2l14 .6h7.7c2 .1 3 0 2.9-.2h.5c.2.2.6.4 1.5.4l3.9-.2c.4 0 .6.2.6.4-.2.2-.1.2.2 0a1.2 1.2 0 0 1 1-.3h1.7l1.5.1c.4 0 .6.2.6.4l-.2.3c.1 0 .3 0 .4-.3a3.6 3.6 0 0 1 2-.3 83 83 0 0 0 6.6-.3c0-.5 0-.7.3-.7l.2.7c0 .2.1.3.5.3.3 0 .5 0 .5-.3 0-.2.3-.2.8 0 .3.3.4.3.5 0 0-.2.2-.2.7 0 .7.6.8.6.5 0-.1-.6 0-.7.5-.2.4.2.8.3 1.3.3h1a4 4 0 0 1 1.6-.2c.6 0 .9.2.9.4s0 .2.2 0c.4-.7.6-.6.8 0 .5.5.7.5.7 0 0-.4.2-.6.4-.6.3 0 .5.2.6.7.2.2.3.2.3 0s1.4-.3 4.2-.1h3c.9.1 1.3 0 1.3-.2.4-.4.6-.4.5 0l2.2.2a44.4 44.4 0 0 0 9.9.3h.7c-.1.2.3.4 1.3.4s1.5 0 1.5-.3c0-.4.2-.4.5 0 .3.5 1 .8 1.8.8 1 0 1.6-.2 2-.6.3-.4.6-.4 1 0a.7.7 0 0 0 .4.4 1.2 1.2 0 0 1 1-.3l.8-.1a1 1 0 0 1 .5-.2c.4-.4.5-.4.3 0v.4c.6 0 1-.7 1-2l.6-1.3c.2-.3.3-.6.3-1v-.3c-.2 0 0-.6.3-1.7.5-1.1.8-2.4 1-3.6.1-1.8 0-2.5-.3-2-.1.4-.3.5-.5.1a1.4 1.4 0 0 1 0-1.2l-.2.4c-.3.4-.6.4-.7 0-.3-.5-.6-.6-.8-.4h-.7l-2.5-1c-.4 0-.5-.1-.5-.4l2.2.1c1.5 0 2.3 0 2.3-.2s.2-.2.5 0c.3 0 .8-.3 1.3-.8a2.4 2.4 0 0 0 .8-1.5c0-.2-.5-1.3-1.6-3.4a4.7 4.7 0 0 1-.6-1 1.5 1.5 0 0 0-.6-.7 3 3 0 0 0-.7-.7c0 .3-.4.1-1-.3-.8-.5-1.2-.6-1.2-.4h-.3a.9.9 0 0 1-.7-.4 7.1 7.1 0 0 0-1.5-.7 6.5 6.5 0 0 0-2-.4.7.7 0 0 1-.5-.4c0-.2-.3-.3-1-.4-.3.2-.5.3-.6.2a.4.4 0 0 0-.4-.2c0-.2-.2-.4-.7-.4-.7.4-.9.4-.5 0 .2-.4 0-.6-.7-.7h-1.5c-.2-.3-.6-.4-1.3-.4h-1a3.4 3.4 0 0 1-1.5-.5 2.2 2.2 0 0 0-1.2-.4h-1.2c-.7 0-1-.3-1-.7.2-.2 0-.4-.4-.4a2 2 0 0 0-1.1.3c0 .5-.3.3-.8-.4-.3-.4-1-.7-2.2-.7l-1.2-.7h-1l-1.3-.1-1-.7a15.4 15.4 0 0 1-2-.3 4.3 4.3 0 0 1-1.7-.6l-1.8-.5c-.4-.2-1.3-.4-2.6-.6a25.8 25.8 0 0 0-2.3-.6 9.6 9.6 0 0 0-1.5-.3 2.1 2.1 0 0 0-1.2-.5 14 14 0 0 0-2.3-.3l-4.6-1-7-1.5c-14.3-3-30-5.8-47.1-8.3-17.1-2.5-34-4.5-50.7-6a724 724 0 0 1-13-.8 930 930 0 0 0-17.8-.9 753.2 753.2 0 0 0-17.3-.5 159.4 159.4 0 0 0-15.4 0 166.1 166.1 0 0 0-14.5.7 30.1 30.1 0 0 0-3.3.4c-1 .2-1.6.2-1.7 0l-.3-.6.3.9a1.1 1.1 0 0 1 .2.6v.4c-.2-.2-.5-.3-1 0-.4.4-.6.4-.5 0l.3-.7h-.3c-.3-.3-.5-.3-.6-.2V2c0 .2 0 .3-.2.3-.1 0-.2-.1-.2-.3 0-.3-.2-.4-.5-.4v.7c0 .2-.1.3-.3.3l-.5-.7c0-.4 0-.4-.2 0 0 .7-.2.8-.5.3-.4-.2-.5-.2-.3 0 0 .3-.3.4-.8.3-.6 0-1-.1-1-.3 0-.5-.1-.5-.5 0-.5.4-.7.4-.7 0a.9.9 0 0 0-.7-.4c-.4 0-.4 0 0 .3.3.2.2.5-.3.7-.7 0-1-.2-1-.4 0-.5 0-.7-.2-.7s-.3.1-.3.3c.2.3 0 .4-.3.3h-.7c0 .5-.2.7-.5.7h-.5v-.3c.1-.5-.1-.7-.9-.7a23.4 23.4 0 0 0-4.1.5h-2.4a27.8 27.8 0 0 1-3.1 0l-3 .3c-.6-.1-1.2 0-1.8.2a10.8 10.8 0 0 0-1.5.1l-2 .1-9.8 1a16.9 16.9 0 0 0-4.3.4 360.4 360.4 0 0 0-17 2.5 305.9 305.9 0 0 0-31.7 7.2 125.3 125.3 0 0 0-12 4.2C4 21.6.2 24.4.1 27c0 1.1.4 1.1 1.3 0a3.6 3.6 0 0 1 2-.5.7.7 0 0 0 .5-.3c0-.3.4-.5 1-.8.7-.3 1.2-.4 1.6-.1l.2-.7c.5 0 .9 0 1.3-.3.7-.4 1.1-.5 1.2-.3a.6.6 0 0 0 .6-.3c0-.4 0-.5.2-.3l.6-.3c.3-.4.5-.4.5 0l.5-.3c.3-.2.5-.2.5 0-.6.6-.3.5.7-.3.4 0 .6 0 .7-.2a.5.5 0 0 1 .4-.1h.2c0 .2.2.1.5-.3.4-.4.4-.4.3 0 0 .4 0 .5.2.3l1.5-1a3.2 3.2 0 0 0 1.6-.5h1.2l.3-.3c0-.2 0-.3.2-.3s.3.1.3.3c-.2.3-.2.4 0 .4.3 0 .6-.2 1-.7.3-.3.7-.6 1.1-.7.5-.1.7 0 .7.1 0 .2.4.2 1.2-.2 1-.9 1.4-1.1 1-.7v.5c.2.2.5 0 .8-.4.7-.3 1.5-.5 2.3-.6a14.8 14.8 0 0 1 3.2-.2c.3 0 .4-.2 0-.7 0-.2.2-.2.5 0 .5.3.9.3 1 0a2 2 0 0 1 1.8-.5 6.6 6.6 0 0 0 2.8-.6 3.2 3.2 0 0 1 1.5-.6c1-.1 1.8-.3 2.8-.3a5 5 0 0 0 2-.5c3.7-.7 5.3-.7 5 0l.5-.7c.4-.5.6-.7.8-.7.2.3.5.5.9.6.4.1.6 0 .6-.2a.8.8 0 0 1 .6-.8c.5 0 .8 0 1 .2 0 .3.4.5.6.6.4.1.5 0 .6-.5h.2a.4.4 0 0 0 .4-.2.5.5 0 0 1 .4-.1c1.2 0 1.8-.2 2-.6.2-.2.3-.2.3 0 0 1.1.6 1 2-.2h.3l.7.6c.8 1 1.2 1.1 1 .4a1 1 0 0 1 .5-1.1 2 2 0 0 1 1.1-.5c.4 0 .6.1.5.4v.3l.5.4c.5 0 .8-.1.8-.3.2 0 .2 0 .2-.2a.5.5 0 0 0-.4-.2c-.6 0-.5-.1 0-.3.9-.6 1.2-.5 1 .4a1 1 0 0 0-.3.5s.2 0 .5-.5c.4-.5.7-.3.8.3.5.3.8.3 1 0h.6a.9.9 0 0 0 .7-.2c.8-1 .7-1.4-.2-1-.5 0-.6.2-.2.6h-.5c-.4-.2-.3-.4.2-.6.9-.4 1.3-.3 1.3.4 0 .4.4.6 1.2.7.8 0 1.4-.3 1.5-1 .2-.6.3-.7.3-.3 0 1 .2 1.1.7.7.5 0 .8-.2.8-.6 0-.2.1-.4.3-.3l.2.6a.5.5 0 0 0 0 .7c.1.2.4.1.7-.3 0-.4.3-.5.8-.3a2.2 2.2 0 0 0 1.3-.3c.3-.4.5-.3.5.4 0 .4.1.4.5 0a.9.9 0 0 1 .7-.3h1.3c.3-.2.6-.2.7 0 .2.5.3.5.3 0 0-.4.3-.5 1-.2.8 0 1.3 0 1.5-.3.3 0 .5.1.5.3 0 .5.1.5.5 0a2 2 0 0 1 1.8-.6c.8-.1 1.2 0 1.2.4 0 .5 0 .6.3.4 0-.2.2-.3.7-.3a.9.9 0 0 0 .5-.2l.5-.1c.5-.2.7-.2.7 0s.2.1.5-.3c.2-.2.3-.2.3 0l.2.3.3-.3c0-.4 0-.4.2 0a1.1 1.1 0 0 0 1 .4c.3-.5 1.7-.6 4-.5h2.3c.7 0 1.2 0 1.4-.2h2.4c1.6.2 2.5 0 2.5-.1 0-.7.3-.7.7 0 1 1 1.3 1 1 0l.3-.1a4 4 0 0 1 1.2-.1c.3 0 .5 0 .6.2a.4.4 0 0 0 .4.1h.5c0 .7.2.7.7 0a2.2 2.2 0 0 1 1.4-.5c.4 0 .5 0 .3.3l.5.7c.3 0 .4-.2.3-.7-.2-.4 0-.4.2 0 .3.5.6.6.7.4.4-.2.6-.2.8 0 .3.5.6.5.7 0 .4-.8.7-.8 1 .1a1.4 1.4 0 0 0 1 .7v-.7c0-.4.4-.6 1-.6h1.3l-1 .7c0 .2 0 .3-.3.3l-.2.3a2.9 2.9 0 0 0 1.5-.2c.5 0 .8-.2.8-.7.2-.2.3-.2.2 0a.9.9 0 0 0 .8.4c.2 0 .3 0 .3-.3l.2-.3c.4 0 .5.1.5.3-.2.2.2.4 1.1.6 1 .1 1.6 0 2-.1h1c0 .5.3.5 1 0 .7-.4 2-.5 3.8-.5l2.3.1c.7 0 1 0 1.3-.3.3-.2.5-.2.5 0-.4.5-.3.8.3.9a1.3 1.3 0 0 0 1.4-.5l.6-.3c-.4.9.1 1.2 1.4.8.9 0 1.1-.2.8-.7h.5c.3.5.7.7 1 .7.3 0 .4 0 .3-.3 0-.2.4-.3 1.2-.3 1.2 0 1.9 0 2-.2.4-.5.4-.3 0 .3s-.2.9.5.7c.5 0 .8.1.8.4 0 .2.2.3.7.3h.5c.2 0 .3 0 .3-.3 0-.2.2-.3.5-.3h.7c0 .2 1 .4 3 .5l13.1.2 4.4.2c1.4 0 2.8.2 4.2.5l5.3.2a.7.7 0 0 1 .4.4h.3c-.8.2-1.5.2-2.3.2l-5.5-.2a54.7 54.7 0 0 0-5.8-.6l-3.5-.2H152.9a101.4 101.4 0 0 0-9-.1c0 .4-.2.4-.5 0a1.5 1.5 0 0 0-1.3-.7c-.5 0-.7.2-.5.6l.1.3s-.2 0-.4-.3c-.5-.5-1.6-.6-3.4-.5-1.8.2-2.6.5-2.4 1l.1.3-.4-.4a1.8 1.8 0 0 0-1.5-.7c-.6 0-1 .2-1 .6l-.2-.3c-.4-.3-.5-.3-.5 0 .3.4.3.6 0 .6-.2 0-.3-.2-.3-.7h-.2a.4.4 0 0 1-.4-.1.5.5 0 0 0-.4-.2c-.5 0-.8.2-.8.6 0 .5-.2.5-.5 0-.3-.4-.5-.6-.7-.3h-.8a2.2 2.2 0 0 0-.9 0 .9.9 0 0 1-.9-.2c-1.5 0-2.2.2-2.3.6.2 0 .2.1 0 .4-.3 0-.5-.3-.4-.7 0-.3-.1-.1-.3.3-.2.2-.3.2-.3 0 0-.5-.3-.7-1-.7-.4 0-.7.2-.7.6 0 .2-.1.2-.3 0-.1-.2-.6-.2-1.2 0-.6.4-.8.5-.8.3.2-.5 0-.7-.4-.7a1.4 1.4 0 0 0-1.1.6c-.2.4-.3.4-.3 0s-.1-.5-.5 0c0 .2 0 .3-.3.3 0-.4-.2-.7-.7-.7-.3 0-.5.1-.5.3h-.5a1 1 0 0 0-.5.2c-.1 0-.4 0-.7-.2-1.1 0-1.7.1-1.7.6l-.5-.4c-.3-.4-.5-.3-.5.3-.2.2-.3.2-.3 0a.8.8 0 0 0-.7-.8c-.5-.2-.7 0-.7.4 0 .3-.2.4-.5.3-.7-.4-.8-.4-.5 0 0 .3-.2.4-.5.4-.4 0-.5-.2-.5-.4l-.5-.4c-.7 0-.8.2-.5.7l-.5.3c-.5 0-.8-.2-.8-.7 0-.2-.1-.1-.5.3-.3.2-.5.2-.7 0-.1-.5-.5-.6-1-.4a1 1 0 0 1-1.2.3c-.4 0-.5.1-.3.3.3.3.2.4-.3.3-.5 0-.6 0-.4-.3 0-.2-.1-.4-.3-.4l-.2.4a1.5 1.5 0 0 1-1.5.6c-.6 0-1-.2-1-.4.2 0 .3 0 .2-.2l-.6-.1c-.4 0-.5.2-.6.6.2 0 .2 0 .2.2l-.7-.2c-.6 0-1 0-1 .3 0 .2 0 .2-.2 0a4 4 0 0 0-1.3-.6c-.5-.1-.7 0-.7.5.1 0 .2 0 0 .2l-.6.1-4.6.1a39 39 0 0 0-5 .5c-.6.2-1 .2-1 0 .1-.3 0-.4-.2-.4a.7.7 0 0 0-.5.3c0 .5-.5.7-1.5.6h-1.5l-.7.1a2 2 0 0 1-.8.1 6.6 6.6 0 0 0-1.3.2 5.8 5.8 0 0 1-1.3 0c-.4.3-1 .4-1.5.3a6.3 6.3 0 0 0-2 .3 18 18 0 0 0-3.3.2l-6 .7a9.8 9.8 0 0 0-1.6.1 8 8 0 0 1-1.6.1 1 1 0 0 0-.6.2.8.8 0 0 1-.5.1H55a2 2 0 0 1-1.1.3 3.6 3.6 0 0 0-1.4.2H51a4 4 0 0 0-1.6.3c-.9 0-1.3 0-1.3.2h-.7c-.4 0-.8 0-1.2.2h-1.4a11.7 11.7 0 0 1-3.7.6 6.6 6.6 0 0 0-1.6 0 4 4 0 0 1-1 .2c0 .5-.5.6-1.7.6l-4.3.5c-.4.2-.6.2-.8.1a1 1 0 0 0-.5-.2c0-.2-.1-.3-.5-.3v.3l.3.4-2.6.5c-.5.4-.7.4-.7 0 0-.5-.1-.6-.5-.4-.2.5-.7.8-1.7 1a56.8 56.8 0 0 1-3.4.5 1.6 1.6 0 0 1-.7.3.7.7 0 0 0-.6.3l-.2-.3c0-.5 0-.5-.3 0a1.5 1.5 0 0 1-1.2.2l-.6-.2v.6c0 .2-.1.2-.5 0-.6 0-1 0-1 .2 0 .5-.3.5-1 0a3.3 3.3 0 0 0-1.7.6 1.3 1.3 0 0 1-1 .6l.2-.6c.2 0 .3-.1.3-.4a1.3 1.3 0 0 0-1 .7.9.9 0 0 1-1.2.3c-.7 0-1 0-.8.3 0 .6-.7.7-2.2.2-.1 0-.2.2-.2.7.3.4.1.4-.5 0a1.4 1.4 0 0 0-1.3.6c-.6.4-1 .5-1.2.3H5c0 .4-.2.6-.5.6-1.1 0-1.8.3-2.2 1h-.5c-.1-.3-.3-.2-.5.2l-.5.7c-.3-.3-.5 0-.6.6a10.2 10.2 0 0 0 0 2.7c.5 3.6 1.1 5.4 2 5.4.4 0 .5 0 .5-.3 0-.2.2-.3.6-.3h1.7a11.2 11.2 0 0 1 3.3-.5L19 34.5c1 0 2.2-.2 3.3-.5a39.8 39.8 0 0 1 2.2-.6c.4 0 .6-.2.8-.6.2-.2.3-.2.3 0 0 .4.5.5 1.5 0 .8-.1 1.2-.6 1-1.2 0-.7.2-1 .3-1 .4 0 .5.3.5 1v.7c.2 0 .2-.2.2-.7a.9.9 0 0 1 .2-.5.8.8 0 0 0 .1-.5v-.3c.2 0 .3.3.3 1-.2.4-.2.7.2.7h.2a1.7 1.7 0 0 1-.2-1c.4-.7.6-.7.8 0 .3.7.4.7.5 0-.5-.7-.4-1 .3-1 .3 0 .4.2.2.7-.2.6 0 1 .4 1 .2 0 .2-.1 0-.3-.3 0-.3-.3 0-.7 0-.9.2-.9.5 0 .4.5.5.5.5 0-.3-.5 0-.7.6-.7a1.4 1.4 0 0 0 1-.6l.1-.3c.1 0 .2.1.2.3l-.8 1.3c-.6.5-.4.6.4.4a8.7 8.7 0 0 1 1.8-.6c.4-.4.2-.4-.5 0h-.2a1 1 0 0 1 1.1-.6c.6 0 .8.1.6.3-.1.3 0 .4.3.4.5 0 .6-.2.3-.7-.3-.9.2-.9 1.5 0 .4.6.8.5 1-.2 0-1.1.2-1.2.5-.3 0 .4.2.7.5.7.3-.2.5-.3.6-.2.1.1 0 .3-.1.5 0 .2 0 .4.2.4a2 2 0 0 0 .6-1c0-1.3.4-1.3 1 0 .3.5.5.7.7.7.2 0 .2 0 0-.3 0-.5.3-.5.7-.3h.5c.2 0 .3-.1.3-.3 0-.3 0-.4.2-.4v.4c.2.2.4.2.6 0v-1h.5c.6 1 1.1.7 1.5-.6a1.3 1.3 0 0 1 .8-.8c.4-.1.5 0 .5.5 0 .6.2 1.2.4 1.7.3.5.5.6.5.4 0-.5.4-.7 1-.7.3.3.5.4.6.2l-.1-.5c0-.4.1-.6.3-.6a.7.7 0 0 1 .5.3c-.2.5-.2.7 0 .7l.7-.6c.3-.5.5-.5.5 0 .1.4.5.5 1.2.3a4.3 4.3 0 0 1 2.4-.5c1 0 1.5 0 1.5-.3h.3l.2.4v.3c-.2.2-.2.3 0 .3.3 0 .6 0 .8-.3.8-.8 1.2-1 1.2-.6a1 1 0 0 0 .8-.3l.4-.3-.1.3c0 .5.1.7.5.7.6.5.8.4.9-.3.2-.4.3-.4.5 0 .3.5.6.5.8 0 .2-.4.4-.4.8.1.3.5.5.3.7-.3 0-.7.2-.8.5-.3h1.3a.7.7 0 0 1 .5.4h.2c0 .4.2.4.5 0l.4-.7-.1.4c-.2.4-.2.6 0 .6.3 0 .5-.2.7-.6 0-.2.5-.3 1.5-.3.3.3.6.3.6.2a.4.4 0 0 1 .4-.1h.2c0-.3.5-.4 1.3-.3 1 0 1.5 0 1.7-.3l.1-.3c.1 0 .2.1.2.3 0 .2.4.4 1.4.4a2.4 2.4 0 0 1 1.4-.3l1.3.1h1a.7.7 0 0 0 .5-.3c.4-.2.6-.2.8 0 .3.5.5.5.5 0 0-.2.3-.3.8-.2a.9.9 0 0 0 .8.2l.7-.2a.7.7 0 0 0 .5-.3h.2c0 .2.5.4 1.5.4a4.7 4.7 0 0 1 2.7-.5h2.7l3.7-.1c2-.2 4.6-.2 7.6-.2l9.7-.1 10-.3a44.5 44.5 0 0 0 6.3 0 .9.9 0 0 1 .5.2c.2 0 .4.2.7.1.5.7.7.7.8 0a16.2 16.2 0 0 1 2.9-.1c.6 0 1.3 0 2 .2l1 .2h.3c2.8-.5 4.4-.4 5 .2.7.5 1 .5.8 0 0-.4.1-.5.3-.2.8.7 1.3.7 1.5 0 .4 0 .9.2 1.2.4 1.2.3 1.7.3 1.5 0 0-.2.5-.3 1.3-.2l2.9.1a30 30 0 0 1 3.1.3 31.8 31.8 0 0 0 2 .2 38 38 0 0 1 4.4-.1 33 33 0 0 1 5.2.5h.5c0-.2.4-.3 1.3-.2 1 0 1.8.1 2.7.4a1.2 1.2 0 0 0 1-.3c.3-.4.5-.4.5 0s0 .6.2.4h.3c0 .2.7.3 2.2.4 1.4 0 2.2.3 2.5.8l.3.3V29c-.2-.5.1-.7.9-.7s1.2.3 1.3.8c.2.2.3.2.3 0 0-.5.4-.7 1.2-.7.9 0 2.5.3 4.8.6a58.5 58.5 0 0 1 9.1 1c.9 0 1.8 0 2.6-.2a5 5 0 0 1 2.8.8c.5.2.8.3 1 0 0-.2.2-.3.5-.3 0 .2.4.4 1.3.4 1 0 2 .2 3 .5a36.6 36.6 0 0 1 3.5.3l2.2.2 1.7.1a9.7 9.7 0 0 1 2.5.4c1.7.1 2.4.3 2.2.5-.3.2-1.3.3-3.2.2a19.3 19.3 0 0 0-5 .4l-4 .2c-2 .1-4.2.4-6.6.7a2503.9 2503.9 0 0 0-30.1 2.6l-15.4 1.5-10.9 1.2-10.9 1.6c-3.2.3-4.8.6-4.8.8h-.7c-.7 0-1.1 0-1.3.3-.4.2-1.5.4-3.5.5-.5 0-1 .3-1.6 1-.2.4 0 .6.2.6.4-.4.6-.4.6 0v.5a.8.8 0 0 0 .2-.5c.4-.4 1-.7 1.5-.7.6-.1.9 0 .9.5 0 .2 0 .2.2 0a1.4 1.4 0 0 1 1-.6c.4 0 .5.2.3.7-.2.4.3.3 1.3-.3.7-.4 1.2-.4 1.3 0 .2.3.3.3.4.2l-.1-.8c0-.2.2-.4.5-.3v.6c0 .5 0 .7.2.7s.3-.3.3-1c0-.2 0-.3.2-.3v.3h.8a1.2 1.2 0 0 1 1 .4c.5.5.8.5.8 0 0-.2.2-.3.5-.3l.4.4-.1-.4c0-.2.2-.3.7-.3a1.1 1.1 0 0 0 1 .2 3.3 3.3 0 0 1 1 0c1-1 1.2-1 .5 0-.1.4.1.5.8.3.8 0 1.2-.2 1.3-.6.1-.2.2-.2.2 0 0 .7.2.7.8 0a.8.8 0 0 1 .8-.4.8.8 0 0 1 .3.1l1 1c.4.5.6.5.6 0a1 1 0 0 1 1-.5h.3l-.3 1c0 .2 0 .3-.2.3l-.1.3v.3c.1.5 0 .7-.4.7a2 2 0 0 1-1.1-.4c-.2-.2-.3-.2-.3 0 0 .4 0 .4-.2 0-.3-.5-.5-.5-.5 0s-.1.5-.3.3c-.3 0-.5.1-.5.3-.4.5-.5.5-.5 0-.3-.9-.5-1-.5-.3-.2.4-.5.5-1 .3-.3-.5-.5-.5-.5 0h-.5a.5.5 0 0 0-.4.1l-.6-.2c-1 0-1.6.2-1.8.6-.2.5-.4.5-.7 0-.4-.5-.5-.4-.6.3 0 .2 0 .2-.2 0-.2-.4-.3-.6-.5-.3-.2.4-.3.4-.5 0-.2-.3-.2-.3-.2 0 0 .6-.4.7-1 .3-.6-.3-.8-.2-.8.2 0 .5-.2.5-.5 0h-.3l-.2.2c0 .1-.1.2-.3.2-.3.4-.4.4-.2 0 0-.3-.2-.4-.5-.4-.2 0-.3.1-.3.3.2.3 0 .4-.3.4l-1.2-.1c-.7.4-1 .4-.8 0h-.5c-.6 0-1 .2-1 .6-.3.4-.5.4-.5 0 0-.2-.3-.3-1-.4-.1 0-.2 0-.2.2l-.3.1h-.2c.1.3 0 .4-.3.4h-.8c-.1.4-.4.4-.7 0 0-.3-.3-.2-1 .2a4 4 0 0 1-2 .3c-.9 0-1.3 0-1.3.2 0 .3 0 .4-.2.4h-2.9a9.7 9.7 0 0 0-2.7.4 1 1 0 0 1-.8.3 3.4 3.4 0 0 0-1.4.3l-1.2.1-.8.1c-.7 0-1.1-.1-1.3-.3-.1-.3-.2-.3-.2 0 .1.4-.3.7-1.3 1h-1.9c-.9 0-1.7.2-2.6.4-.8.2-1.6.3-2.4.2h-1.4c-.5 0-.7 0-.7.3 0 .2-.2.3-.5.3-.4-.5-.5-.5-.5 0a2.5 2.5 0 0 0-.8.1 3 3 0 0 1-1 .1l-2.8.6h-1l-1.5.5c0 .3.2.3.5 0 .3 0 .4.2.2.4 0 .2 0 .3-.2.3h-.5c-.2 0-.3.1-.3.3.3.5.2.5-.5 0-.3 0-.5-.2-.5-.7h.8c0-.2-.2-.3-.5-.3-.7 0-1 .2-1 .6-.4.4-.6.7-.8.6a1.4 1.4 0 0 0-1 .7c-.6.4-.8.4-.8 0 0-.3-.1-.4-.4-.4-.4 0-.6 0-.6.3 0 .2 0 .3-.2.3s-.2-.1 0-.3c0-.5-.1-.5-.3-.4 0 .5-.2.4-.7-.3l-.4-.4.1.4c.2.2 0 .5-.3 1-.5 0-.5.2-.2.6 0 .2-.2.1-.5-.3-.3-.5-.5-.5-.5 0 0 .6-.1 1-.3 1a.9.9 0 0 0-.7-.4c-.4 0-.7-.2-1-.4-.7 0-.9.2-.6.7.2.2 0 .3-.5.3-.3 0-.5 0-.5.3 0 .2-.3.3-.7.1a1.5 1.5 0 0 1-.8-.5 1 1 0 0 0-.3-.7c-.1 0-.2.2-.2.7.1.2 0 .3-.6.3-.7 0-1 0-1 .3h-1.3l-.2-.4c.3-.4.3-.7-.2-.7-.4 0-.5.3-.3 1 0 .5-.6.7-1.6.6h-1c-.2 0-.3-.1-.3-.4.2-.2-.3-.3-1.6-.4a6.9 6.9 0 0 0-3.2.6 1.4 1.4 0 0 0-.8.1.9.9 0 0 1-.5.1c-.3 0-.5.1-.5.4v.3c-.5-.3-1.5-.3-2.8-.1l-2 .2c-.2 0-.2-.2 0-.7.1-.2 0-.2-.3 0-.3 0-.6.3-.6.7l-.5.3c-.3 0-.5-.2-.5-.7 0-.4-.1-.4-.5 0a25.7 25.7 0 0 0-3 .4 142.1 142.1 0 0 0-6.3 1.2h-1a2.2 2.2 0 0 1-1.3.3 5.8 5.8 0 0 0-1.8.2 8.6 8.6 0 0 0-3.5.6l-2-.1c-.3-.2-.5-.3-.5 0 0 .2 0 .3-.3.3-.1-.2-.5-.1-1 .3-.3.2-.4 1.2-.3 3 0 1.4.3 2.7.8 4a1.1 1.1 0 0 0 1.5.8c.8 0 1.3.1 1.4.4h.3a.7.7 0 0 0 .5-.4h2a35.4 35.4 0 0 1 3.6 0l3.7.1a6.7 6.7 0 0 1 2.5.4c.5 0 .7 0 .6-.3 0-.2 0-.3.2-.3s.3.1.3.4v.5a.8.8 0 0 0 .2-.5.7.7 0 0 1 .6-.3c0 .4 0 .6.4.6a.6.6 0 0 0 .6-.3c0-.4.1-.4.5 0 .1.3.3.4.4.4.2-.2.6-.2 1 0 .9.5 1.3.5 1.3 0 0-.1.4-.2 1 0 .5 0 .9.2 1.2.5.4 0 .8-.1 1-.3a1 1 0 0 1 1 .7c.2.5.4.4.8-.3.4-.4.5-.4.5 0 .2.2.2.2.3 0 0-.9.2-.9.5 0 .2.9.4 1 .5.4-.4-.5-.3-.7.2-.7s.6.3.3.7c-.2.2-.1.3.2.3a1.4 1.4 0 0 0 1-.6h.3c0 .4.4.7 1.2.7h.8c.2 0 .3 0 .3-.3-.3-.4 0-.6.8-.6.6 0 .8.4.4 1-.1.5 0 .5.5 0a2.5 2.5 0 0 1 1.7-.8c.8 0 1.2.2 1.2.6 0 .2-.1.3-.3.3-.3-.4-.5-.5-.6 0a1 1 0 0 0-.2.5l.2-.2h.6c.1.7.7.6 1.8-.2.3-.2.5-.2.5 0-.2.4 0 .7.8.9a1.6 1.6 0 0 0 1.7-.5c.2-.2.2 0 0 .4-.2.2 0 .2.3 0 .5-.7.8-.7.7 0 .3.9.5 1 .5.3.4-.8.5-.8.5 0l.3.4c.1 0 .2 0 .2-.2l-.2-.1c0-.5 0-.6.2-.4a1.8 1.8 0 0 0 1.5.8 1.7 1.7 0 0 0 1.6-.6c.5 0 .7.2.7.7.3.9.4.9.5 0 0-.3 0-.4.2-.4 0 .5.3.4.8-.3.5-.4.6-.4.3 0-.2.5-.2.7.2.7h.9c.2.3.7.4 1.7.5 1 0 1.5.1 1.5.4h1c.7 0 1 0 1-.3h.5a1.3 1.3 0 0 0 1.8 0l.3-.2-.1.3c-.3.4-.1.6.7.7a33.8 33.8 0 0 1 9 1.7c1 0 1.7.2 1.9.4l4 .7 2 .2c.7.5 2.6 1 5.4 1.2 3.6.9 7.8 2 12.6 3.4a221.5 221.5 0 0 1 14.2 4.8A205 205 0 0 1 164 98.2a18 18 0 0 1 4.1 3.1 7.4 7.4 0 0 1 1.6 3.5c.3 1.3.6 2 .8 2.2.3 0 .6 0 1-.5.3-.7.5-2.3.6-5 .2-2.6 0-4.7-.5-6a15 15 0 0 0-6.4-8c-3.1-2.3-4.3-3-3.7-2.1 0 .2 0 .2-.2 0a1 1 0 0 0-1-.7c-.2.2-.3.2-.3 0 0-.7-.1-.8-.5-.4-.3 0-.5-.1-.4-.3 0-.2-.6-.6-1.6-1.1a16.3 16.3 0 0 1-2.1-1l-.5-.4h-1.3c-.5 0-.7-.2-.7-.5 0-.2-.3-.5-1-.8-.6-.4-1.1-.5-1.5-.3-.5 0-.7-.1-.7-.3 0-.2-.3-.6-1-.9a3.8 3.8 0 0 0-1.4-.6c-.6 0-.6.2-.3.7h-.3l-.5-.7c-.8-.7-1.3-1-1.7-.7h-.2c.2-.2-.6-.7-2.1-1.3a12.4 12.4 0 0 0-3.6-1 1.8 1.8 0 0 1-1.5-.7c-.1-.2-.2-.1-.2.3a1.8 1.8 0 0 0-1-.3c.2-.5 0-.8-.4-.9a1.4 1.4 0 0 0-1.1.1c-.3.2-.5.2-.5 0 .2-.2-.2-.3-1-.4-.8 0-1.2-.1-1.2-.3-.2-.3-.1-.3.2 0 .2.2.2 0 0-.4-.3-.2-.6-.2-.7 0 0 .4-.2.7-.6.6v-.6c.4-.2.1-.2-.7 0a2 2 0 0 1-1.6-.1c-.6-.3-.9-.6-.8-1 0-.5-.1-.5-.3 0-.2.4-.3.5-.3.3a1.2 1.2 0 0 0-1-.4c-.3.2-.6 0-1-.4 0-.4 0-.7-.4-.7s-.3.1 0 .4c.1.2 0 .3-.6.3-.5 0-.6-.2-.4-.4.1 0 .2 0 .2-.3-.1-.2-.4-.2-.7 0-.5.2-.9.1-1 0a.7.7 0 0 0-.5-.4h-.8c-1-1-1.3-1-1-.1 0 .2-.2.1-.7-.4l-.7-.3c.1.2 0 .3-.3.3s-.5-.1-.5-.4c.2-.2.1-.3-.2-.3-.3 0-.5 0-.5.3 0 .5-.3.4-.8 0a.7.7 0 0 1-.4-.4c0-.2-.4-.3-1.3-.4-.8.2-1.1.1-1-.3.2-.3.2-.3-.2 0h-.2c-.2 0-.4-.2-.5-.4-.3-.2-.5-.2-.5 0 .5.7.2.8-.8.3h-1.4c-2.8-.8-4.3-1.3-4.4-1.6-.2-.2-.3-.2-.3 0 0 .3-.5.3-1.5.3a9.5 9.5 0 0 1-1.5-.2 12.2 12.2 0 0 0-2-.3 4.2 4.2 0 0 1-2.4-.7c0 .2-.8.1-2.4-.1-4.3-.7-6.6-.8-7-.3a2.4 2.4 0 0 0 .2 1.3c0 .5-.2.7-.5.7s-.5-.3-.5-.7c.2-.2.2-.4 0-.4-.3 0-.5 0-.4-.3-.2-.2-.5-.2-1 .3 0 0-.1.2-.5.2Zm266.6-12.6c-.2 0 0-.3.3-.7.1-.4.2-.4.2 0-.4 1-.5 1.1-.5.7Zm-.6.6c-.1 0-.2-.2-.2-.7 0-.4.1-.5.3-.3.1 0 .2.3.2.7 0 .2 0 .3-.3.3Zm-3.4-14.1h.8c-.2-.2-.4-.2-.8 0Zm-12-6.5c0-.3.3-.4.8-.4s.6.2.5.4c-.7.2-1.1.2-1.3 0Zm-37-3.6a.7.7 0 0 1-.6.5.7.7 0 0 1-.3 0 .8.8 0 0 1-.6-.9l.3-.3v-.4c-.2-.4.1-.6.8-.6.3.3.8.4 1.2.4.4 0 .9.1 1.2.4 1 0 1.5.3 1.5.7 0 .2.2.4.5.4.2 0 .3 0 .3-.2 0-.1-.1-.2-.3-.2 0-.4.4-.5 1-.3a1.2 1.2 0 0 0 1.6-.2c0-.5.2-.4.7.3.8 1.2 1.1 1.4 1 .7-.2-.2-.1-.4.2-.6a.8.8 0 0 1 1 0c.2.3.3.3.3.2l-.5-.5c-.1-.5 0-.6.3-.3.3 0 .5.2.4.6 0 .5.1.8.3.9.1 0 .3 0 .5-.5.4-.4.3-.7-.2-.7-.2 0-.2 0 0-.1.1-.2.4 0 .7.2h1.3c.5 0 .6.3.2.7 0 .2.2.2.5 0a.4.4 0 0 0 .4-.2.4.4 0 0 1 .4-.1h.2c.3.5.5.3.6-.3 0-.5.1-.5.5 0a7.8 7.8 0 0 0 2 .6c1 .1 1.4 0 1.4-.1.2-.3-.7-.6-2.6-1.2-2-.5-2.8-.9-2.5-1l.9.1c.5.2 1 .3 1.6.3.5.2 1 .4 1.6.4h1.4l.6.2a.4.4 0 0 0 .4.2h.2c-.2.2 0 .4.5.5a1.5 1.5 0 0 0 1.2 0c.6-.3.9-.3 1 0 0 .2-.1.5-.5 1a.4.4 0 0 0-.4.1l.1.2a.4.4 0 0 0 .4-.2.4.4 0 0 1 .4-.1 2.2 2.2 0 0 1 1.2-.8c.6 0 .8.1.8.6h1l2.5.5 2.7.7c.2.3 1 .4 2.3.5 1.3.5 2 .8 2 1 0 .3.2.3.2 0 0-.4.2-.6.5-.6.2 0 .3.2.3.7 0 .2-.3.3-.8.3l-3-.1a21 21 0 0 0-2.8 0l-1.5.1h-.7c0-.5-.4-.5-1.3 0-.9.3-1.3.3-1.3-.1-.1-.3-.3-.3-.5 0-.4.2-.9.3-1.3.3-.6 0-1-.2-1-.4 0-.5 0-.5-.4 0-.2.4-.4.4-.8 0h-.7a2 2 0 0 1-.9-.3 2.1 2.1 0 0 0-.9-.2 8.3 8.3 0 0 1-1.7-.2 5.9 5.9 0 0 0-1.2-.2h-.8c-.2.1-.7.2-1.5.2l-2.5-.1c-.9 0-1.3-.3-1.2-.7.3-.2.5-.2.7 0v-.3c0-.7-.2-.7-.7 0h-.7l.1.2c0 .3-.5.4-1.5.3a3.5 3.5 0 0 0-1.3-.4h-1.2c-.6 0-1-.3-1-.7l-1.7-.1a1.5 1.5 0 0 1-1.1.1c-.3-.1-.3-.2-.1-.2.3-.4.2-.6-.3-.6-.3-.3-.5-.3-.6-.2a.4.4 0 0 1-.4.1Zm32 5.3-.6.7c-.2 0-.3-.1-.3-.4l.6-.3c.1-.2.2-.2.2 0Zm-8.4-.3h.3c.2 0 .2 0 .3-.2l.2-.1c.2-.2.4-.2.5 0 0 .2-.2.3-.5.3h-.8Zm-1.5 0c-.8-.1-1.1-.2-1-.4a1.9 1.9 0 0 1 1.4-.2c.6.2.9.4.9.6h-1.3Zm-1.5-4.8a1 1 0 0 0-.8.3c-.2.2-.1.3.2.3.4 0 .6-.2.6-.6Zm-7.8-1 .3-.3a.7.7 0 0 1 .5.3.5.5 0 0 1 0 .7c-.2 0-.4-.2-.8-.7Zm-4.2-.5c.1.2 0 .3-.3.3-.5 0-.7-.1-.5-.3h.8Zm-1.9 2c-.3 0-.4 0-.2.2.4.7.7.7.7 0l-.5-.3Zm-19.4-2.9c0 .7-.6.5-1.5-.4.3 0 .5-.2.5-.6 0-.3.9-.3 2.5-.1 1.7.2 2.6.5 2.8 1l.5.3v-.3c0-.3.2-.4.7-.3.2.2.7.3 1.5.4a1.2 1.2 0 0 1 1 .3 1.4 1.4 0 0 0 1 .7c.3 0 .4-.2.2-.6-.1-.2 0-.4.3-.3a.9.9 0 0 1 .7.3c0 .5.2.5.5 0l.3.4c0 .6-.3.7-.8.3-.3 0-.5.2-.5.6-.2.2-.3.2-.3 0-.1-.2-.4-.2-.7 0-.5 0-.8-.2-.7-.7-.4-.4-.6-.7-.9-.7-.2 0-.3.2-.1.7 0 .7-.2.8-.8.3-.5-.3-.8-.3-1 0-.2.2-.3.1-.3 0 0-.5-.4-.7-1.2-.8H289c0 .6-.3.7-.8.3-.3 0-.3-.2 0-.4s.2-.4-.5-.6c-.8-.1-1.2 0-1.2.2Zm-15.5-2.3c0-.2-.5-.6-1.4-1-.9-.1-1.2 0-1 .2.3.5 0 .5-.6 0-.1-.4-.3-.7-.4-.7-.2 0-.3.1-.3.3l-.3.4-.2-.4c.4-.4.3-.6-.2-.7-.7 0-1 .2-1 .7v.3l-.3-.3c-.5-.7-.7-.9-.7-.4-1 0-1.5-.4-1.5-1 0-.3.2-.4.5-.4l1.7.7 1.6.1c.6 0 1.2.2 1.7.4.8 0 1.5.1 2.2.3l2 .2c1.2 0 2 .3 2.3.8 0 .4.2.5.7 0a1.8 1.8 0 0 1 1.5 0c.8.6 1.2.6 1.3.1 0-.4.4-.4 1.2 0 .7.6 1 .6 1 .1.2 0 .3.2.3.4s.6.3 2 .4c1.5 0 2 .3 1.7.7a1 1 0 0 0 .2.7c-.2 0-.4-.2-.7-.7-.4-.2-.5-.1-.5.3 0 .2-.6.2-1.5 0-1.4-.8-2.3-.8-2.8-.2-.5 0-.7-.1-.7-.3-.4-.5-1.1-.7-2.3-.8-1.1 0-1.9-.3-2.2-.7-.3-.5-.6-.4-.8.3-.2.2-.6.2-1.1 0-.6-.3-.8-.3-.8-.1-.2.4-.4.5-.6.3Zm-13.4 14.5-.2-.4c0-.7 2.3-.8 6.8-.4.6 0 1.3.1 1.9.3a8.9 8.9 0 0 0 1.6.2h1.5c.3 0 .4.2.2.4l-4.2.2a21.5 21.5 0 0 1-2.8-.3c-.8-.2-1.2-.3-1.2-.6l-.5.4c-.7.6-1 .8-1 .6 0-1-.2-1-.6-.4-.3.5-.4.5-.2 0 0-.4 0-.6-.2-.6s-.3 0-.3.3c0 .2 0 .3-.3.3h-.5ZM261 22c1.4.3 2 .5 2 .8 0 .2-.4.3-1.3.2a.9.9 0 0 1-.5-.2 1 1 0 0 0-.4-.1h-.3c0-.3-1.7-.4-5-.6-2.1-.3-3.3-.7-3.5-1.1-.1-.3.6-.2 2.3 0l6.7 1Zm-10.2 17.3a4.4 4.4 0 0 1-2.2.2c-1 0-1.6-.2-1.6-.4s.3-.3.8-.3h.7c.2-.2.7-.3 1.4-.3l2.6.1a17.9 17.9 0 0 0 4-.1c0-.2.1-.3.2-.2v.9c0 .6-.1.7-.4.3H255a1 1 0 0 1-1.5-.1l-.4-.4.1.4c.2.4.2.6 0 .6-.1 0-.4-.2-.7-.7h-1.3c-.3.2-.4.2-.2 0 0-.2 0-.2-.2 0ZM250 21c0 .2-.4.2-1.2 0-.8 0-1.3-.2-1.3-.4 0-.5.5-.7 1.2-.7a6.8 6.8 0 0 1 2.1.5.7.7 0 0 0 .5.3c.2 0 .3.1.2.4 0 .4-.2.4-.7 0-.2-.3-.4-.3-.8-.1Zm-3.1-.8c.2-.2.3-.3.4-.2 0 .1 0 .3-.2.5h-.5a4 4 0 0 1-.8-.2 5 5 0 0 0-1.2-.2c-1.1 0-1.8-.2-2-.4h.5a.8.8 0 0 0 .6-.2h.7c1.4 0 2 .2 2 .7h.5Zm-11.4 19.5h-2.3c0-.5.5-.8 1.4-.8a25.8 25.8 0 0 1 3.2 0l5.5.2c2.3-.2 3.4-.1 3.2.1-.3.4-1 .7-2.3.7-1.1.1-1.8-.1-2-.6h-.7c0 .2-.6.3-1.8.3a.9.9 0 0 0-.5.1l-.5.2h-.5a1 1 0 0 1-.9.3c-.4 0-.6-.2-.6-.4s-.1-.3-.5-.3a.9.9 0 0 0-.7.2Zm3.8-20.5a2.4 2.4 0 0 1 1.6-.1c.8.1 1.2.3 1.1.5 0 .5-1 .4-3 0-.1 0 0-.2.3-.4Zm-1 0c-.3.8-.7.8-1 0 0-.5.2-.7.6-.7l.4.7Zm-2.7-.2c-2.1.4-2.7.2-1.7-.7h2l1.3.5-1.6.2Zm-3-1c.5 0 .6.2.2.6 0 .2 0 .3-.3.3l-.2-.3c-.3-.5-.2-.7.3-.7Zm-16.7 21.6a79.6 79.6 0 0 0 9.5-.3l6.3-.4c.9 0 1.1.3.7.7-.1.2-.6.3-1.5.3h-1c0 .2-.8.2-2.5.2-1.7-.1-2.5 0-2.5.2.1.2 0 .2-.3 0-.8-.5-1.2-.6-1.2-.4 0 .2-.9.3-2.5.2-1.7 0-2.5 0-2.5.3l-2.5-.1-2.2-.1a3 3 0 0 0-1.6.2 14.2 14.2 0 0 1-3.5.2c-1.5 0-2.4-.2-2.5-.4-.2-.2.2-.3 1-.3l1.4-.1 1.4-.1h2.2a38 38 0 0 1 3.8-.1Zm15-21.8c.6.5.3.7-.8.7-1.4 0-1.9-.3-1.5-.8.3-.4 1-.3 2.2.1Zm-2.6 0-1 .2c-.1 0-.2 0-.2.2l-.3.1h-.2c-.2 0-.3-.2-.3-.6 0-.5.4-.6 1-.3l1 .3Zm-4.6-.3c-2 0-2.9-.3-2.5-.7h2.3c1.1 0 1.8.2 2 .5.4.2-.2.3-1.8.2Zm-10.5-1.4 1.5-.3h1.5c.2.3.8.5 1.8.5s1.5.2 1.7.4c.2.2-.5.3-1.9.3a13.6 13.6 0 0 1-3.4-.5l-1.2-.4Zm-6-.6c-.6-.7-.2-.8 1-.3h1.4c2 .2 3 .5 3 1.2 0 .2-.1.2-.3 0a5.3 5.3 0 0 1-1-.2 8 8 0 0 0-1.7-.2c-1.7-.1-2.5-.3-2.5-.5Zm-1.6 0c-.5 0-.7-.2-.5-.4h1c.2.3 0 .4-.5.4Zm-.3 24.6h.3c0 .5-.6.7-1.6.7a3.1 3.1 0 0 0-1 0c-.2.2-.5.2-.7.2a.7.7 0 0 1-.5-.3c0-.3.3-.4 1-.3a3.4 3.4 0 0 1 1.8-.3h.7Zm-6.5-24.6-.2.5.2-.8c.2-.5 1-.7 2.3-.6 1.7 0 2.7.2 2.9.4.2.3-.5.4-2.2.3a10.2 10.2 0 0 0-2 0 5 5 0 0 1-1 .2Zm3.1 16.1c0 .3.2.4.5.4s.4-.1.3-.3h-.8Zm-.9 9-1.2.3a.5.5 0 0 0-.4.1.4.4 0 0 1-.4.2h-.5v-.3c0-.3.4-.4 1.3-.3h1.2Zm-4.2-25.8-.2-.4a1.2 1.2 0 0 1 1-.3c1 .5 1 .7-.3.7h-.5Zm-6.2-.3a30.3 30.3 0 0 1-3.7-.3c-.9-.2-1.2-.4-1-.6.1-.2 1-.3 2.6-.2 1.7 0 3.4.3 5.1.6 1.8.2 2.4.4 1.7.5a38 38 0 0 1-4.7 0Zm4.9 26.2c.2.3 0 .4-.3.4s-.5-.2-.5-.4h.8Zm-.4-9.7c-.3-.4-.4-.4-.5 0-.1 0-.2.1 0 .2a.4.4 0 0 0 .3.2c.3 0 .5 0 .5-.2 0 0 0-.2-.2-.2Zm-3 0c-.1-.3-.4-.3-.7-.1-.2 0-.2 0-.1.2l.6.1a.4.4 0 0 0 .4-.1l-.1-.2Zm-1.4 10.2c.2 0 0 .1-.3.3a.4.4 0 0 1-.3-.1c-.1-.2 0-.2.1-.2 0-.5.2-.5.5 0Zm-2 0c.3 0 .5 0 .5.3a1.4 1.4 0 0 1-.8.4c-.3.1-.5 0-.5-.5h.3a.7.7 0 0 0 .5-.3Zm-1.8.2c.2 0 .3 0 .3.2l-.5.1c-.4 0-.6 0-.6-.2-.1-.1 0-.1 0-.1h.8Zm-2 .2c.4 0 .6.1.6.2.1.1 0 .2-.3.2a.9.9 0 0 1-.8-.4c0-.4.2-.4.5 0Zm0-11.6a1 1 0 0 0-.7.3h.5c.3 0 .4-.1.2-.4Zm-1-16.1c-.7 0-.9-.3-.5-.7a1.3 1.3 0 0 1 1.1-.1c.4.1.5.4.3.8h-1Zm-.2 27.7-1 .4a.8.8 0 0 1-.8.5h-.3V42h.3a.4.4 0 0 0 .4-.2.4.4 0 0 1 .4-.3h1ZM182 13.8c-.7 0-1-.3-1-.7a.4.4 0 0 0 .4-.2l.6.2c1.3.5 1.3.8 0 .7Zm0 16c-.6 0-.8.1-.8.3h.5c.3 0 .4 0 .2-.3Zm-2.8 12c.6.2.6.4 0 .6a.9.9 0 0 0-.6.1.9.9 0 0 1-.5.2h-.3v-1c0-.5.2-.7.2-.7.1 0 .2.1.1.4 0 .2.4.3 1 .3Zm-2.3-.2c.7.5.7.7 0 .7a5 5 0 0 0-1.6.1l-.7.1c-.3 1-.5 1-.5 0 0-.4.4-.7 1.2-1 .7-.1 1.3-.1 1.6.1Zm-3.3.6c0 .4-.6.6-1.8.6a7.8 7.8 0 0 0-1.7 0l-1 .2a7.8 7.8 0 0 0-1.4 0 9.7 9.7 0 0 1-1.9.2 8.9 8.9 0 0 1-2.3.2 2.8 2.8 0 0 0-1.5.3 4.8 4.8 0 0 0-1.1.1l-1.4.1a4 4 0 0 0-2.3.6l-.2.3c.1-.2-.1-.5-.8-1-.6 0-1 .2-1 .6.2.2.2.3 0 .3h-.7c-.7.4-1 .4-.8 0h-.2c-.2 0-.2 0-.2-.2 0-.1-.2-.2-.5-.2a.8.8 0 0 0-.4.2.7.7 0 0 1-.5.1h-.2c0 .2-.3.3-1 .3a1.7 1.7 0 0 1-1-1c-.1-.5 0-.7.6-.7h1.6c1.2 0 2.3-.2 3.5-.3 1.3 0 2-.2 2.2-.4.3 0 .5.1.5.4h.7c.2-.2 1-.3 2.3-.2 2.3 0 4.6-.2 6.8-.7a52.7 52.7 0 0 1 3.8-.4c1.1 0 1.8.1 2 .6Zm-27.9 1.1c.6 0 .9 0 .9-.2.2-.3.3-.3.2 0 0 .4.2.4.6 0 .2-.3.4-.3.5 0 .4.9.6.9.6 0l.2-.7h.3c.6.7.5 1.6-.4 2.7a1.5 1.5 0 0 1-1.6.2c-.3-.4-.6-.4-.8 0-.4.4-.6.1-.5-1v-1Zm-3.5.2c-.2 0-.3.2-.3.7 0 .2.2.3.5.3s.5-.2.5-.6l-.2-.3h-.5ZM127 1.8c-.4.5-.6.7-.8.7-.2 0-.2-.3 0-.7h.3a.7.7 0 0 0 .5-.3c.3 0 .3.1 0 .3Zm-1.9 8.6c0-.2.2-.3.5-.3.7.5.7.7 0 .7l-.5-.4Zm-.6-8.4c-.2 0-.3 0-.3-.3l.6-.3c.1 0 .2.1.2.3 0 .2-.2.4-.5.3Zm-3.5 41.3c-.2 0-.3.2-.3.7h-.8c-.6-.3-1-.2-1 .2 0 .5 0 .7-.2.7s-.4-.3-.5-.7c-.2-.5-.3-.5-.3 0 0 .2 0 .3-.2.3-.2-.2-.4-.2-.5 0 0 .9.4 1 1.5.4l.8-.1 1-.2c1.6.6 2.4.1 2.5-1.2 0-.2-.7-.3-2-.1ZM122.6 2c-.5.6-.8.7-.8.3 0-.5.2-.7.6-.7.3-.2.4 0 .2.4Zm-1.5-.4a.5.5 0 0 1 0 .6c-.3 0-.5-.2-.5-.6l.3-.4.2.4Zm-.7.3c0 .4-.2.6-.3.6-.5 0-.6-.2-.3-.6 0-.3.2-.5.3-.7l.3.7Zm-2 .6c-.6 0-.7-.2-.6-.4.2-.2.5-.2 1 0 .4.3.2.4-.5.4Zm-2.1 42.3c.5-.7.6-.6.2.3-.1.2-.2.4-.1.5 0 .1.2 0 .4-.5.3-.2.5-.4.4-.6 0-.2-.3-.4-.6-.4a.5.5 0 0 0-.4.2.4.4 0 0 1-.4.1c0 .2.2.4.5.4Zm-1.5.3c0-.5-.2-.7-.5-.7v.6c0 .3 0 .4.2.4l.3-.3Zm-1.3-.1c-.1-.2-.2-.1-.2.3 0 .7 0 .8.2.4V45Zm-2.7-42.8a.7.7 0 0 0 .5-.4c0-.4 0-.6-.2-.6l-.3.6v.4ZM97.6 65v-.3.3Zm-5.1-2.9.2.2c0 .1-.1.2-.5.2-.3 0-.5-.2-.5-.4h.8Zm-2.7 4a1.2 1.2 0 0 1-1.2-.1c-.4-.2-.4-.6 0-1 .3-.2.6-.2.8 0l.2.4h.5l.5-.2-.8.8ZM88.5 54c.4 0 .4.2 0 .6-.1.5-.3.6-.3.5l.1-.8c0-.2.1-.3.3-.3Zm-3.2 11.9c.2 0 .3-.3.3-.7.2 0 .2 0 .1-.2a.4.4 0 0 0-.3-.1c-.2 0-.3 0-.3.3a1.1 1.1 0 0 0 .2.7Zm0-10.4v.3c-.5 0-.7-.1-.5-.3h.5Zm-1.5-1c0-.3 0-.4-.2-.4-1 .4-1.2.6-.6.6a.9.9 0 0 0 .8-.3ZM82 65c-.9 1.1-1.5 1.2-1.8.3 0-.7-.1-.8-.5-.3l-.2-.4c.2-.2.2-.3 0-.3a.4.4 0 0 1-.4-.2c0-.1 0-.2.2-.2 0-.4.2-.3.7.4.5.5.7.5.7 0 0-.4.3-.5.8-.3a1.3 1.3 0 0 1 1 .4l-.5.6Zm-1.7-8a1.7 1.7 0 0 1-.2-1c.2-.2.3-.1.2.3v.7Zm-1.7 16c0-.5.2-.7.5-.7a.8.8 0 0 1 .6.3c0 .3-.2.4-.6.3h-.5Zm0-8.8c.3-1.3.4-1.2.4.4 0 .4-.2.7-.5.6v-1Zm-.4 8 .2.4c0 .2 0 .3-.3.3h-.5l.6-.7Zm-.5-7.3c.3.4.3.7 0 .6l-.5-.6v-.7c.4 0 .5.2.5.7Zm-1.5 7.3c.1 0 .2 0 0 .1a.4.4 0 0 1-.3.2.7.7 0 0 1-.5-.4l.3-.6c.3 0 .5.2.5.7Zm-.2-7.4c.1 0 .2.1.2.3 0 .5-.2.7-.5.7-.2 0-.3-.2-.3-.7l.6-.3Zm-5.7 2.8.2.1a.4.4 0 0 1-.4.2h-.5v-.4c.3-.2.6-.2.7 0Zm-6.9-9c.5-.2.8-.2.8 0a.8.8 0 0 1-.7.8.7.7 0 0 1-.8-.5c-.2-.2-.2-.3 0-.3h.7Zm-2 0c.5 0 .6.2.3.6a1.8 1.8 0 0 1-1 .3c-.4 0-.4-.1 0-.3 0 .2.2 0 .7-.7ZM60 12c.5-.2.8-.2 1 0 .4.7.4.8-.3.3l-.7-.3Zm-7.5 47.7c.1.2 0 .3-.6.3-.3-.4-.4-.7-.2-.7a.9.9 0 0 1 .8.4ZM50 29c-.3-.5-.8-.4-1.5.3-1 .4-1.2.6-.3.6.3 0 .5 0 .5-.3h.3l.2-.1c0-.2.1-.2.3-.2.8.5 1 .4.5-.3Zm-22.4 2c.1.3 0 .3-.3 0h-.5v-.3c.2-.2.4-.1.7.4ZM26 31c.8.7.8 1 .2 1-.2 0-.3-.1-.3-.3l-.2-.7c0-.4.1-.4.3 0Zm-2 .2.2.7-.3.3-.2-.3c0-.4 0-.7.2-.7Zm-1 .3.1.7c0 1.1-.2 1-.4-.3 0-.5 0-.6.2-.4Zm-6.5-8.2c-.2-.3-.2-.3-.3 0 .2.4.4.6.6.7.3 0 .4-.1.4-.4h-.2l-.5-.3Z"/></svg>
