<svg xmlns="http://www.w3.org/2000/svg" width="392" height="118" fill="none"><path fill="#EFEAD5" d="M298.1 72.6h.8a1.9 1.9 0 0 0 1.7.7c1.2 0 1.5-.3.8-.8-.4-.2-.7-.2-.9 0-.3.3-.5.2-.6-.3.2-1-.4-1.3-1.7-1-.5 0-.8-.3-.8-1 0-.6-.2-.8-.6-.8-.4 0-.5.2-.3.4h.6c0 .5-.4.7-1.1.8-.6 0-.8-.4-.9-1.1.2-.7 0-.9-.3-.4-.1.8-.4 1-.8.4-.4-.4-.6-.4-.5 0 0 .3-.2.4-.5.4-.7-.2-1-.8-.8-1.8 0-.2-.1-.2-.2 0-.2 0-.3.3-.3.8 0 .7 0 .8-.4.4h-1.7a.5.5 0 0 1-.4-.1.5.5 0 0 0-.4-.2h-.3a2 2 0 0 1-1.1-.3c-1 0-1.4 0-1.4-.3-.2-.3-.3-.3-.3 0 0 .7-.1.8-.5.4-.2-.3-1-.4-2.2-.3h-1.1a.7.7 0 0 1-.6-.3h-1.1c-.8 0-1.2 0-1.4-.3-.4-.2-.6-.2-.6 0v.4c-.2 0-.2-.1-.2-.4a3 3 0 0 1-1.7-.3h-2.9a22.5 22.5 0 0 1-4.6-.8 35.4 35.4 0 0 0-3.3-.4 27.2 27.2 0 0 0-2.8 0 4 4 0 0 0-2-.3 14.5 14.5 0 0 1-3.2-.3 55 55 0 0 0-3.5-.4 19.5 19.5 0 0 0-2 0 2.8 2.8 0 0 0-1.6-.4 6.5 6.5 0 0 1-2-.3 5.9 5.9 0 0 1-1.6 0 5.2 5.2 0 0 0-1.2-.2 6.3 6.3 0 0 1-1.4-.1 9.3 9.3 0 0 0-2-.1l-3.8-.6-9.6-.7a1040.6 1040.6 0 0 1-28.1-2.2l-8.5-.4a10.7 10.7 0 0 0-2.7-.2 5.3 5.3 0 0 1-2.2-.3h-4a141 141 0 0 1-6.5-.3 40.2 40.2 0 0 0-6.5-.6 88 88 0 0 0-4.3 0 30.8 30.8 0 0 1-3.2 0 32.6 32.6 0 0 0-3.1-.1l-6.7-.5-37.2-.2a70.4 70.4 0 0 0-7.1-.1 26.4 26.4 0 0 1-5.3-.2l-15.4.7h-8.4c-2.3 0-3.3 0-3.2-.3H76c-.2.3-.7.4-1.7.5l-4.2-.2c-.5 0-.7.1-.7.4.2.2.1.2-.3 0a1.3 1.3 0 0 0-1-.3H66l-1.6.1c-.5 0-.7.2-.7.4l.2.4c-.1 0-.3-.1-.5-.4a4 4 0 0 0-2-.3 90.7 90.7 0 0 1-7.3-.4c0-.5-.2-.7-.3-.7l-.3.7c0 .3-.2.4-.5.4-.4 0-.6 0-.6-.3s-.3-.3-.8 0c-.4.3-.6.3-.6 0s-.3-.2-.8 0c-.7.6-1 .6-.6 0 .2-.7 0-.8-.6-.3-.4.3-.8.4-1.3.4h-1.1a4.4 4.4 0 0 0-1.8-.2c-.6 0-1 .1-1 .4 0 .2 0 .2-.2 0-.4-.7-.7-.7-.8 0-.6.5-.9.5-.9 0 0-.4-.1-.7-.4-.7-.3 0-.5.3-.7.8-.1.3-.2.3-.2 0s-1.6-.3-4.7-.2l-3.3.2c-1 0-1.4 0-1.4-.3-.4-.5-.6-.5-.6 0l-2.3.2a49 49 0 0 1-4.3.4 48.7 48.7 0 0 1-6.6 0h-.9c.2.2-.2.3-1.3.4-1.1 0-1.7 0-1.7-.3 0-.5-.2-.5-.5 0-.4.5-1 .8-2 .8s-1.8-.2-2.2-.6c-.3-.5-.7-.5-1 0a.8.8 0 0 1-.6.4 1.3 1.3 0 0 0-1.1-.3 1.4 1.4 0 0 1-.8-.2 1 1 0 0 0-.6-.1c-.4-.5-.5-.5-.3 0v.3c-.7 0-1.1-.7-1.2-2.1L2.8 56a1.8 1.8 0 0 1-.4-1v-.4c.2 0 .1-.6-.3-1.9a12.7 12.7 0 0 1-1-4c-.3-2-.2-2.7.2-2.2.2.5.4.6.5.2a1.6 1.6 0 0 0 0-1.3l.3.3c.3.5.6.5.8 0 .3-.5.6-.6.8-.4h.8l2.8-1c.4 0 .5-.2.5-.5l-2.4.1c-1.7.1-2.5 0-2.5-.2 0-.3-.2-.3-.6 0-.4 0-.8-.3-1.4-.9a2.6 2.6 0 0 1-.9-1.6 23 23 0 0 1 3-5.7L4 35c0 .2.3.1 1-.4 1-.6 1.4-.7 1.4-.4h.3a1 1 0 0 0 .8-.5 7.8 7.8 0 0 1 1.6-.8 7.1 7.1 0 0 1 2.2-.4.7.7 0 0 0 .5-.4c0-.2.4-.4 1.1-.4.4.2.6.3.7.1a.5.5 0 0 1 .4-.2c0-.2.3-.3.8-.4.8.5 1 .5.6 0-.2-.4 0-.7.8-.7l1.6-.1c.2-.3.6-.4 1.4-.4l1.2-.1a3.7 3.7 0 0 0 1.5-.5c.4-.2.9-.4 1.4-.4h1.3c.8 0 1.1-.3 1.1-.8-.2-.2 0-.4.4-.4s.9 0 1.3.3c0 .5.2.4.8-.4.3-.5 1.1-.8 2.4-.8L32 26H33l1.3-.1 1.1-.8a16.8 16.8 0 0 0 2.2-.3 4.7 4.7 0 0 0 2-.6l2-.6a42 42 0 0 1 2.8-.7 28 28 0 0 1 2.5-.7 10.5 10.5 0 0 1 1.6-.2 2.3 2.3 0 0 1 1.4-.6 15.3 15.3 0 0 1 2.4-.3c1-.3 2.6-.7 5-1.1a250.4 250.4 0 0 0 7.9-1.6C80.8 15 98 12 116.9 9.2a1104.5 1104.5 0 0 1 55.6-6.7l14.2-.8 19.6-1a823.8 823.8 0 0 1 19-.6h12.1a84 84 0 0 1 11.9.3 914.4 914.4 0 0 0 12.4 1c1.2.1 1.8.1 2-.1l.2-.6-.2 1a1.2 1.2 0 0 0-.3.7v.3c.2-.2.6-.2 1.1 0 .4.5.6.5.6 0l-.3-.7h.3c.3-.3.6-.4.6-.2v.5c0 .3 0 .4.2.4s.3-.2.3-.4c0-.3.1-.4.5-.4v.7c0 .3.1.4.3.4l.6-.8c0-.5 0-.5.2 0 0 .8.2.9.6.4.4-.3.5-.3.3 0 0 .2.3.3.8.3.8 0 1.1-.2 1.1-.4 0-.5.2-.5.6 0 .6.5.8.5.8 0a1 1 0 0 1 .8-.4c.4 0 .4 0 0 .3s-.3.5.3.7c.7 0 1.1-.1 1-.4 0-.5.1-.7.3-.7.2 0 .3.1.3.3-.1.3 0 .4.3.4h.8c0 .5.3.7.6.7h.6V3c-.2-.4 0-.7.9-.7 1.5 0 3 .2 4.6.5h2.6c1.1.2 2.3.2 3.4.1a14.4 14.4 0 0 0 3.2.3 4 4 0 0 1 2 .2 11.8 11.8 0 0 1 1.7.2h2.2l10.8 1a18.6 18.6 0 0 1 4.7.6C319 6 325.4 7 331.7 8a334.5 334.5 0 0 1 18.5 3.7c5.9 1.3 11.3 2.8 16.4 4.3a137.1 137.1 0 0 1 13 4.6c8.1 3.3 12.2 6.5 12.3 9.4 0 1.2-.4 1.2-1.4 0a3.9 3.9 0 0 0-2.2-.6.7.7 0 0 1-.6-.3c0-.3-.4-.6-1.1-1-.8-.2-1.3-.3-1.7 0l-.3-.7a2.4 2.4 0 0 1-1.4-.4c-.7-.4-1.2-.5-1.4-.3a.7.7 0 0 1-.5-.3c0-.5-.2-.6-.3-.4l-.6-.3c-.4-.5-.6-.5-.6 0l-.5-.4c-.4-.2-.6-.2-.6 0 .6.7.3.6-.8-.3-.4 0-.6 0-.7-.2a.5.5 0 0 0-.4-.1h-.3c0 .2-.2.1-.5-.4-.4-.4-.5-.4-.3 0 0 .5 0 .6-.3.4l-1.7-1a3.5 3.5 0 0 1-1.6-.7h-1.4l-.3-.3c0-.2-.1-.3-.3-.3-.2 0-.3.1-.2.3.1.3.1.4-.2.4-.2 0-.6-.2-1-.7a2.4 2.4 0 0 0-1.2-.8c-.5-.1-.7 0-.7.2s-.5.1-1.4-.3c-1.1-1-1.5-1.2-1.1-.7.2.2.2.4 0 .5-.2.1-.5 0-.9-.5a15.1 15.1 0 0 0-2.5-.6 16.2 16.2 0 0 0-3.5-.2c-.4 0-.4-.3 0-.8 0-.2-.2-.2-.6 0-.5.3-.9.3-1 0a2.3 2.3 0 0 0-2-.6 7.3 7.3 0 0 1-3-.6 3.5 3.5 0 0 0-1.7-.6c-1-.3-2-.4-3-.5a5.4 5.4 0 0 1-2.3-.4c-4-.8-5.9-.9-5.5-.2l-.6-.7c-.4-.5-.6-.7-.8-.7a1.7 1.7 0 0 1-1 .6c-.4.2-.6.1-.7-.1a.9.9 0 0 0-.7-1c-.4 0-.8 0-1 .3a1.7 1.7 0 0 1-.7.6c-.4.1-.6 0-.6-.6h-.3a.4.4 0 0 1-.4-.1.5.5 0 0 0-.4-.2c-1.3 0-2-.1-2.3-.6-.1-.3-.2-.3-.2 0 0 1.2-.7 1.1-2.3-.3h-.3l-.8.8c-.9 1-1.3 1.1-1.1.4a1 1 0 0 0-.5-1.3 2.1 2.1 0 0 0-1.3-.5c-.3 0-.5.1-.5.4v.4l-.6.4c-.5 0-.8-.1-.8-.4-.2 0-.3 0-.2-.1a.5.5 0 0 1 .5-.2c.5 0 .5-.2 0-.4-1-.7-1.4-.6-1.2.4.2.2.3.3.3.5s-.1 0-.5-.5-.7-.3-.9.4c-.5.3-.9.3-1 0h-.7a1 1 0 0 1-.8-.3c-.8-1.1-.8-1.5.2-1 .5-.1.6.1.3.6h.5c.4-.2.3-.5-.3-.7-1-.4-1.4-.3-1.3.4 0 .5-.5.8-1.4.8-.9 0-1.5-.3-1.7-1-.2-.7-.3-.8-.3-.4 0 1-.2 1.3-.8.8-.5 0-.8-.2-.8-.7 0-.2-.1-.3-.3-.3-.2.2-.2.4-.2.7a.6.6 0 0 1 0 .7c-.2.3-.5.2-.9-.3 0-.5-.2-.6-.8-.3a2.4 2.4 0 0 1-1.4-.3c-.4-.5-.6-.4-.5.4 0 .5-.2.5-.6 0a1 1 0 0 0-.8-.4h-1.4c-.4-.1-.7-.1-.8.1-.2.5-.3.5-.3 0s-.4-.6-1.1-.3c-1 0-1.5 0-1.7-.3-.3 0-.5.1-.5.4 0 .5-.2.5-.6 0a2.3 2.3 0 0 0-1.9-.7c-1-.2-1.4 0-1.4.5 0 .4 0 .6-.2.3 0-.2-.3-.3-.8-.3a1 1 0 0 1-.6-.2 1 1 0 0 0-.5-.1c-.6-.2-.9-.2-.9 0s-.1.1-.5-.4c-.2-.2-.3-.2-.3 0l-.2.4-.3-.3c0-.5-.1-.5-.3 0a1.3 1.3 0 0 1-1 .4c-.4-.5-1.9-.7-4.4-.6l-2.6.1c-.8 0-1.3 0-1.5-.3l-2.7.1c-1.8.1-2.7 0-2.7-.2 0-.8-.3-.7-.8 0-1 1-1.4 1-1 0l-.4-.1a4.4 4.4 0 0 0-1.3-.1c-.4 0-.6 0-.7.2a.5.5 0 0 1-.4.2h-.5c0 .7-.3.7-.8 0a2.4 2.4 0 0 0-1.5-.7c-.5 0-.6.2-.4.4l-.5.8c-.4 0-.5-.2-.3-.7.1-.5 0-.5-.3 0-.4.5-.6.6-.8.4-.4-.3-.7-.3-.8 0-.4.5-.7.5-.8 0-.4-1-.8-1-1.2 0a1.5 1.5 0 0 1-1 .9v-.8c0-.5-.5-.7-1.2-.7h-1.4l1.2.8c0 .2 0 .3.3.3l.3.4a3.1 3.1 0 0 1-1.7-.3c-.6 0-.9-.2-.9-.7-.2-.2-.3-.2-.3 0a1 1 0 0 1-.8.4c-.2 0-.3-.1-.3-.4l-.3-.3c-.3 0-.5.1-.5.4.2.2-.2.4-1.3.6-1 .1-1.7.1-2-.1H252c0 .5-.3.5-1 0-.8-.4-2.2-.6-4.3-.5h-2.5c-.7.1-1.2 0-1.4-.2-.4-.2-.6-.2-.5 0 .3.5.2.8-.4 1a1.4 1.4 0 0 1-1.6-.6l-.6-.3c.4 1-.1 1.2-1.6.8-1 0-1.2-.2-.8-.7h-.6c-.3.5-.7.7-1 .8-.4 0-.5-.1-.4-.4 0-.2-.4-.3-1.3-.3-1.3 0-2 0-2.3-.3-.3-.5-.3-.3 0 .4.4.7.3 1-.5.7-.5 0-.8.2-.8.5 0 .2-.2.3-.8.4h-.6l-.2-.4c0-.3-.2-.4-.6-.3h-.8c0 .2-1.1.4-3.3.5-2.2 0-7 .2-14.4.2l-4.8.2a24.6 24.6 0 0 0-4.6.6l-5.8.2a.7.7 0 0 0-.5.4h-.3a8 8 0 0 0 2.5.3l6-.3a59.9 59.9 0 0 1 6.4-.6l3.9-.2h4l7.6-.1a111.4 111.4 0 0 1 10 0c0 .4.1.4.5 0a1.7 1.7 0 0 1 1.3-.8c.6 0 .8.2.6.7-.1.2-.2.3 0 .3l.3-.3c.5-.6 1.8-.7 3.7-.6 2 .2 2.9.5 2.7 1l-.1.4.4-.4a2 2 0 0 1 1.6-.8c.8 0 1.2.2 1.2.7l.2-.4c.4-.2.6-.2.6 0-.4.5-.3.8 0 .8.2 0 .3-.3.3-.8h.3a.5.5 0 0 0 .4-.2.5.5 0 0 1 .4-.2c.5 0 .8.2.8.7 0 .5.2.5.6 0 .3-.5.6-.6.8-.4h.8l1 .1a1 1 0 0 0 1-.2c1.6 0 2.5.1 2.5.6-.2 0-.2.1 0 .4.4 0 .6-.3.5-.8 0-.2.1-.1.3.4.2.2.3.2.3 0 0-.5.4-.8 1-.8s1 .2 1 .7c0 .2 0 .2.2 0s.7-.3 1.4 0c.6.4.9.5.9.3-.2-.5-.1-.8.4-.8a1.6 1.6 0 0 1 1.2.7c.2.5.3.5.3 0s.2-.5.6 0c0 .2 0 .4.3.4 0-.5.2-.8.7-.8.4 0 .6 0 .6.3h.5a1 1 0 0 1 .6.2c.2.1.4 0 .8-.2 1.2 0 1.9.1 2 .6l.4-.4c.4-.5.6-.4.6.4.2.2.3.2.3 0a.9.9 0 0 1 .7-1c.6-.1.8 0 .9.5 0 .3.2.4.5.4.7-.5.9-.5.6 0 0 .2.2.3.5.3.4 0 .6-.1.5-.4l.6-.4c.7 0 .9.3.6.8l.5.3c.6 0 .8-.3.8-.8 0-.2.2-.1.5.4.4.2.7.2.9 0 .1-.6.5-.7 1-.5a1 1 0 0 0 1.4.3c.4 0 .5.2.3.4-.4.3-.3.4.3.4.5 0 .7-.2.5-.4 0-.3.1-.4.3-.4l.3.3a1.7 1.7 0 0 0 1.5.7c.7 0 1.1-.1 1.1-.4-.2 0-.2 0-.1-.2l.6-.2c.4 0 .6.2.6.7-.1 0-.2.1-.1.2s.3 0 .7-.2c.7 0 1 0 1.1.3 0 .3.1.3.3 0a4.3 4.3 0 0 1 1.3-.6c.6-.1.9 0 .9.5-.2 0-.3.1-.2.2l.7.2a83.8 83.8 0 0 1 11.6.6c0-.2.1-.4.3-.4a.8.8 0 0 1 .6.4c0 .5.6.7 1.7.6h1.6l.7.1 1 .2h1.4c.4.2.9.2 1.3.2.6.3 1.1.4 1.7.3a7 7 0 0 1 2.2.3 19.8 19.8 0 0 1 3.6.2l6.7.8a10.7 10.7 0 0 1 1.7.1 8.7 8.7 0 0 0 1.8.1l.6.2a1 1 0 0 0 .5.2h1.6c.5.2.9.3 1.3.2.6 0 1 .1 1.6.3h1.5a4.4 4.4 0 0 1 1.8.3c.9 0 1.4 0 1.4.3h.8l1.2.1a5.6 5.6 0 0 0 1.6.1c1.3.5 2.7.6 4.1.6a7.3 7.3 0 0 1 1.8.1l1 .2c0 .4.6.7 2 .6l4.6.5c.4.3.7.3.9.2l.5-.2c0-.2.2-.4.5-.4.2 0 .2.1 0 .4l-.2.3c.9.3 1.8.5 2.8.6.6.5.8.5.8 0s.1-.6.5-.4c.2.5.8.8 1.9 1a61.2 61.2 0 0 0 4.5 1 .8.8 0 0 1 .6.3l.3-.4c0-.5 0-.5.3 0a1.7 1.7 0 0 0 1.3.4c.4-.3.6-.4.7-.3v.6c0 .2.1.2.5 0 .7 0 1 0 1 .3 0 .5.5.5 1.2 0 .7 0 1.4.2 2 .6a1.4 1.4 0 0 0 1 .7l-.3-.7c-.1 0-.2-.1-.2-.4a1.4 1.4 0 0 1 1 .7 1 1 0 0 0 1.4.3c.7 0 1 .1.8.4 0 .7.8.8 2.4.2.2 0 .3.3.3.8-.3.5-.1.5.5 0a1.6 1.6 0 0 1 1.4.6c.7.5 1.2.6 1.3.4h.6c0 .4.2.7.5.7 1.3 0 2 .3 2.5 1 .2.2.3.2.5 0 .2-.3.3-.2.5.3l.6.7c.3-.2.6 0 .7.7v3c-.5 4-1.3 6-2.3 6-.3 0-.5-.1-.5-.4 0-.2-.2-.3-.6-.3h-2a12.2 12.2 0 0 0-3.5-.5L371.3 38a18.3 18.3 0 0 1-3.6-.6 43.7 43.7 0 0 0-2.5-.6c-.4 0-.7-.3-.9-.7-.2-.3-.3-.3-.3 0 0 .5-.5.5-1.6 0-1-.2-1.3-.7-1.2-1.4 0-.7-.1-1-.3-1-.4 0-.6.3-.5 1l-.1.8c-.1 0-.2-.3-.2-.7a1 1 0 0 0-.2-.6.9.9 0 0 1-.1-.5v-.4c-.2 0-.3.4-.3 1.1.2.5.2.7-.2.8h-.3l.3-1.2c-.4-.7-.7-.7-.9 0-.3.8-.5.8-.5 0 .5-.7.4-1-.3-1-.4 0-.5.2-.3.7.2.8 0 1.1-.5 1.2-.2 0-.2-.2 0-.4.4 0 .4-.3 0-.8 0-1-.2-1-.5 0-.4.6-.6.6-.6 0 .4-.5.2-.7-.6-.7a1.5 1.5 0 0 1-1.1-.7c0-.2 0-.3-.2-.3v.4c.1.5.4 1 .8 1.4.6.5.4.6-.5.4a9.6 9.6 0 0 0-2-.7c-.4-.4-.2-.5.6 0h.2a1.2 1.2 0 0 0-.5-.5 1.2 1.2 0 0 0-.7-.2c-.7 0-.9.2-.7.4.2.3.1.4-.3.4-.5 0-.6-.2-.3-.7.4-1-.2-1-1.6 0-.6.6-1 .5-1.1-.3 0-1.2-.3-1.3-.6-.3 0 .5-.2.7-.5.8-.4-.3-.6-.3-.7-.2-.1.1 0 .3.1.5 0 .3 0 .4-.2.4a2.2 2.2 0 0 1-.6-1c-.1-1.5-.5-1.5-1.1 0-.4.5-.6.8-.8.8-.2 0-.2-.2 0-.4 0-.5-.3-.6-.9-.3h-.5c-.2 0-.3-.1-.3-.4 0-.2 0-.4-.2-.4 0 0-.1.2 0 .4-.3.3-.4.3-.6 0v-1h-.6c-.7 1-1.3.7-1.7-.7a1.4 1.4 0 0 0-.9-1c-.4 0-.5.2-.5.7a8 8 0 0 1-.5 1.8c-.3.6-.5.7-.5.4 0-.5-.4-.7-1-.7-.4.3-.7.4-.8.3 0-.2 0-.4.2-.6 0-.5-.2-.7-.3-.7a.7.7 0 0 0-.6.4c.2.4.2.7 0 .7-.1 0-.4-.2-.8-.7-.4-.5-.5-.5-.5 0-.2.5-.6.6-1.3.4a4.7 4.7 0 0 0-2.7-.6c-1.1 0-1.7 0-1.7-.3h-.2c-.2 0-.3.2-.3.4v.4c.2.2.2.3 0 .3a2 2 0 0 1-.9-.3c-.9-1-1.3-1.2-1.2-.7a1.1 1.1 0 0 1-1-.3c-.2-.2-.3-.4-.4-.3l.1.3c0 .5-.1.8-.6.8-.5.5-.8.4-.9-.4-.2-.4-.4-.4-.6 0-.3.5-.6.6-.9 0-.2-.4-.4-.4-.8.1s-.6.4-.8-.3c0-.8-.3-.9-.6-.4h-1.4a.7.7 0 0 0-.5.5h-.3c0 .5-.1.5-.5 0-.2-.5-.4-.7-.5-.7l.2.3c.2.5.1.8-.1.8-.3 0-.5-.3-.7-.7 0-.3-.6-.4-1.7-.3l-.6.2a.5.5 0 0 0-.4-.2h-.3c0-.2-.5-.3-1.4-.3-1 0-1.7 0-1.9-.3l-.1-.4-.1.4c0 .3-.5.4-1.6.4a2.7 2.7 0 0 0-1.5-.3l-1.5.1h-1.1a.7.7 0 0 1-.6-.3c-.3-.2-.6-.2-.8 0-.3.5-.5.6-.5 0 0-.2-.3-.3-.9-.3a1 1 0 0 1-1 .2 1.8 1.8 0 0 0-.6-.1.7.7 0 0 1-.6-.4h-.3c0 .3-.5.4-1.6.5a5.1 5.1 0 0 0-3-.6h-2.9l-4-.1c-2.3-.2-5.2-.2-8.5-.2l-10.6-.1-11-.3a48 48 0 0 1-6.9-.1 1 1 0 0 0-.5.2c-.2.2-.5.2-.8.2-.5.8-.8.8-.8 0a17.7 17.7 0 0 0-3.2-.2c-.8 0-1.5.1-2.2.3l-1.3.2h-.2c-3-.6-4.8-.5-5.6.3-.7.5-1 .5-.8 0 0-.5-.1-.6-.3-.3-.9.7-1.4.7-1.6 0a2.4 2.4 0 0 0-1.4.4c-1.3.3-1.8.4-1.6.1 0-.2-.5-.3-1.4-.3l-3.2.1a32.8 32.8 0 0 0-3.4.4 34.5 34.5 0 0 1-2.2.2 41.6 41.6 0 0 0-4.9-.1 35.8 35.8 0 0 0-5.6.6h-.5c0-.3-.6-.4-1.6-.3a11.4 11.4 0 0 0-2.9.5 1.3 1.3 0 0 1-1-.4c-.5-.4-.7-.4-.6 0 0 .5-.1.6-.3.4h-.3c0 .3-.8.4-2.4.5-1.5 0-2.4.3-2.8.8l-.3.4c-.1 0 0-.1 0-.4.2-.4-.1-.7-1-.6-.8 0-1.3.3-1.4.8-.2.2-.3.2-.3 0 0-.5-.5-.8-1.4-.7-.9 0-2.6.2-5.2.6a63.8 63.8 0 0 0-5 .4l-3 .3a8.7 8.7 0 0 1-2 .4 23.4 23.4 0 0 1-3-.2 5.4 5.4 0 0 0-3 .8c-.4.3-.8.3-1 0 0-.2-.2-.3-.6-.3 0 .3-.4.4-1.4.5-1 0-2.2.2-3.3.5a40 40 0 0 0-3.8.3l-2.5.3h-1.9c-1 .1-1.8.3-2.7.6-1.9 0-2.6.2-2.3.4.2.3 1.4.3 3.4.3a21.1 21.1 0 0 1 5.5.5l4.5.1 7.2.8L185 39a789.9 789.9 0 0 1 17.9 1.7l16.8 1.7 12 1.3 12 1.7c3.4.4 5.2.6 5.2.9h.8c.8 0 1.2 0 1.4.3.4.2 1.7.4 4 .6.5 0 1 .3 1.6 1 .2.5.1.8-.3.8-.3-.5-.5-.5-.5 0 0 .4 0 .7-.1.5a.9.9 0 0 1-.2-.5 2.5 2.5 0 0 0-1.6-.9c-.7 0-1 .1-1 .6 0 .3 0 .3-.2 0a1.5 1.5 0 0 0-1.2-.7c-.4 0-.5.3-.3.8s-.2.4-1.4-.3c-.8-.5-1.3-.5-1.4 0-.2.3-.3.4-.4.2v-.9c0-.2-.1-.3-.5-.3v.7c0 .5 0 .8-.2.8s-.3-.4-.4-1.1l-.1-.4c-.1 0-.2.1-.2.4h-.8a1.3 1.3 0 0 0-1 .4c-.6.5-.9.5-.9 0 0-.2-.2-.3-.6-.3l-.4.4.1-.4c0-.2-.3-.4-.8-.3a1.2 1.2 0 0 1-1 .2 3.6 3.6 0 0 0-1.2-.1c-1.1-1-1.3-1-.6 0 .2.5 0 .6-.8.4-.9 0-1.3-.2-1.4-.7-.2-.2-.3-.2-.2 0 0 .7-.3.7-.9 0a1 1 0 0 0-.5-.4.9.9 0 0 0-.7.1 3.8 3.8 0 0 0-1.2 1.2c-.4.5-.5.5-.6 0a1 1 0 0 0-1-.7h-.4l.4 1 .1.4.2.4v.4c-.2.5 0 .7.4.7a2.2 2.2 0 0 0 1.2-.4c.2-.3.3-.3.3 0 0 .5.1.5.3 0 .3-.5.5-.5.5 0s.1.6.3.3c.4 0 .6.1.6.4.4.4.6.4.5 0 .4-1 .5-1.2.6-.4.2.5.6.6 1 .3.4-.5.6-.5.6 0h.6a.5.5 0 0 1 .4.2l.7-.2c1 0 1.8.1 2 .6.1.5.4.5.8 0 .3-.5.5-.4.5.3 0 .3.1.3.3 0 .2-.5.3-.6.5-.4.2.5.4.5.6 0 .2-.2.3-.2.3 0 0 .8.4.9 1 .4.6-.3.9-.2 1 .3 0 .5.1.5.5 0h.2c.2 0 .3 0 .3.2l.3.1c.4.5.5.5.3 0 0-.2.1-.3.5-.4.2 0 .3.1.3.4-.2.2 0 .4.3.4l1.4-.1c.7.5 1 .4.8 0h.6c.7 0 1 .2 1 .6.5.5.7.5.6 0 0-.2.4-.3 1.1-.4.2 0 .3 0 .3.2 0 .1 0 .2.3.2h.2c-.1.2 0 .3.3.3h.9c.2.5.4.5.8 0 0-.2.3-.1 1 .3.8.3 1.6.4 2.3.3 1 0 1.4 0 1.4.3 0 .2 0 .4.3.4h3.1c1 0 2 .2 3 .5a1 1 0 0 0 .9.3c.5 0 1 0 1.5.3a4.7 4.7 0 0 1 1.2.1l1 .2c.7 0 1.2-.2 1.4-.5.1-.2.2-.2.2 0-.1.6.3.9 1.5 1.1h2a21 21 0 0 1 3 .5c.8.2 1.6.3 2.5.3h1.5c.6 0 .9 0 .9.3 0 .2.2.3.5.3.4-.5.6-.5.6 0l.8.1c.4.2.7.2 1.1.2l3 .6h1.1l1.7.6c0 .2-.2.3-.5 0-.4 0-.5.2-.3.4 0 .2.1.4.3.4h.6c.1 0 .2 0 .2.3-.3.5-.1.5.6 0 .4 0 .5-.3.5-.8h-.8c0-.2.2-.4.5-.4.7 0 1.1.2 1.1.7.4.5.7.7.9.7a1.5 1.5 0 0 1 1.1.7c.6.5.9.5.8 0 0-.3.2-.4.6-.4.3 0 .5 0 .6.3 0 .3 0 .4.3.4.1 0 .1-.1 0-.4 0-.5 0-.6.2-.4 0 .5.3.4.8-.4l.4-.3-.1.3c-.2.3 0 .7.3 1.1.6 0 .7.2.3.7 0 .3.2.2.5-.3.4-.5.6-.6.6 0 0 .7.1 1 .3 1a1 1 0 0 1 .8-.4 2 2 0 0 0 1.1-.4c.7 0 1 .2.6.7-.2.3 0 .4.6.4.3 0 .5 0 .6.3 0 .3.2.3.7.2.3-.1.7-.3 1-.6 0-.3 0-.5.2-.8l.3.8c-.2.2 0 .3.6.3.7 0 1 .1 1 .3h1.5l.2-.4c-.3-.4-.3-.7.3-.7.4 0 .5.3.3 1 0 .6.6.8 1.7.7h1.1c.2 0 .3-.1.3-.4-.2-.2.4-.4 1.8-.4a7.5 7.5 0 0 1 3.5.6l.9.1a1 1 0 0 0 .6.2c.3 0 .6 0 .6.3-.2.5-.2.6 0 .4.5-.3 1.5-.3 3-.1l2.1.2c.3 0 .3-.2.1-.7-.1-.2 0-.2.3 0 .4 0 .6.2.6.7l.6.3c.4 0 .5-.2.5-.7 0-.5.2-.5.6 0a152 152 0 0 1 10.3 1.8h1c.5.2 1 .3 1.4.2a6.4 6.4 0 0 1 2 .3 9.4 9.4 0 0 1 3.9.6h2.2c.3-.3.5-.3.5 0 0 .2.1.3.3.3.2-.3.5-.2 1.1.3.4.2.5 1.3.4 3.3a18.4 18.4 0 0 1-.9 4.4 1.2 1.2 0 0 1-.6.8 1.2 1.2 0 0 1-1 0c-1 0-1.5.2-1.6.5h-.3a.7.7 0 0 1-.6-.4h-2a38.8 38.8 0 0 0-4 0l-4.2.1a7.4 7.4 0 0 0-2.8.5c-.5 0-.7 0-.5-.3 0-.3-.2-.4-.3-.4-.2 0-.3.1-.3.4 0 .5 0 .7-.1.5a.9.9 0 0 1-.2-.5.7.7 0 0 0-.6-.4c0 .5-.1.8-.5.8a.7.7 0 0 1-.6-.3c0-.5-.2-.5-.5 0l-.6.3c-.1-.2-.5-.2-1 0-1 .6-1.4.6-1.4.2 0-.3-.4-.3-1.1-.2-.5 0-1 .3-1.4.6a2 2 0 0 1-1.1-.3 1 1 0 0 0-1 .8c-.2.5-.5.3-1-.4-.3-.4-.5-.4-.5 0-.1.3-.2.3-.2 0 0-1-.3-1-.6 0s-.5 1.2-.5.4c.3-.5.2-.7-.3-.7-.6 0-.7.3-.3.7.2.3.1.4-.3.4a1.5 1.5 0 0 1-1.1-.7h-.3c0 .5-.4.8-1.4.8h-.8c-.2 0-.3 0-.3-.3.4-.5 0-.7-.9-.7-.7 0-.9.4-.5 1.1.2.5 0 .5-.5 0a2.7 2.7 0 0 0-1.9-.8c-.8 0-1.2.1-1.2.6 0 .2 0 .4.3.3.3-.5.5-.5.6 0l.3.6-.3-.2h-.6c-.2.8-.8.7-2-.3-.4-.2-.5-.2-.5 0 .2.5-.1.8-1 1a1.8 1.8 0 0 1-1.8-.5c-.2-.2-.2-.1 0 .4.2.2 0 .2-.3 0-.6-.7-.9-.7-.8 0-.4 1-.5 1.1-.6.4-.4-1-.6-1-.5 0l-.3.4c-.1 0-.2 0-.2-.2 0-.1 0-.2.2-.2 0-.5-.1-.6-.3-.3a2 2 0 0 1-1.6.8 1.9 1.9 0 0 1-1.7-.7c-.6 0-.8.3-.8.8-.3 1-.5 1-.5 0 0-.3-.2-.4-.3-.4 0 .5-.3.4-.9-.3-.6-.5-.6-.5-.2 0 .2.5 0 .7-.3.7h-1c-.2.3-.8.5-2 .5-1 0-1.5.2-1.5.5h-1.1c-.8 0-1.1 0-1.1-.3h-.6a1.4 1.4 0 0 1-1.9 0l-.4-.3.1.4c.4.5.2.7-.7.7a37 37 0 0 0-4.7.6 35 35 0 0 0-5.1 1.3 264.4 264.4 0 0 1-8.7 1.5c-.9.5-2.9 1-6 1.3-4 1-8.6 2.2-13.8 3.8a242.2 242.2 0 0 0-15.7 5.2 223.9 223.9 0 0 0-25 11.4 19.9 19.9 0 0 0-4.5 3.5 8.2 8.2 0 0 0-1.8 3.7c-.3 1.5-.6 2.3-.9 2.5-.2 0-.5 0-1-.6-.3-.7-.6-2.5-.7-5.4-.2-3 0-5.2.5-6.7 1.2-3.5 3.5-6.4 7.1-8.8 3.4-2.6 4.8-3.4 4-2.3 0 .2.2.2.3 0a1 1 0 0 1 1.1-.8c.2.2.3.2.3 0 0-.8.1-.9.5-.4.4 0 .6-.2.6-.4s.5-.6 1.7-1.2a18 18 0 0 0 2.3-1.2l.5-.4h1.4c.5 0 .8-.2.8-.4 0-.3.3-.6 1-1 .8-.4 1.3-.5 1.7-.2.6 0 .8-.2.8-.4 0-.3.4-.6 1-1a4.2 4.2 0 0 1 1.7-.6c.6 0 .7.2.3.7h.3l.5-.8c.9-.7 1.5-1 1.9-.8h.3c-.2-.2.6-.7 2.3-1.4a13.6 13.6 0 0 1 4-1 2 2 0 0 0 1.5-.9c.2-.2.3 0 .3.4a2 2 0 0 1 1.1-.4c-.2-.5 0-.8.4-1h.6c.2 0 .4 0 .6.2.4.2.6.2.6 0-.2-.2.1-.4 1-.4 1 0 1.4-.2 1.4-.5.2-.2.1-.2-.3 0V80c.4-.3.7-.3.9 0 0 .4.2.7.6.7v-.8c-.4-.2-.2-.2.8 0a2.2 2.2 0 0 0 1.7 0c.7-.4 1-.7 1-1.2s0-.5.2 0 .3.6.3.3a1.3 1.3 0 0 1 1.1-.4c.4.2.7.1 1-.4 0-.5.2-.7.6-.8.4 0 .4.2 0 .4-.2.3 0 .4.6.4s.7-.2.5-.4c-.2 0-.2-.1-.3-.4.2-.2.5-.2.9 0 .5.2.9.2 1 0a.7.7 0 0 1 .6-.5h.8c1-1 1.5-1 1.1 0 0 .2.3 0 .8-.5l.8-.3c-.1.2 0 .3.3.3.4 0 .6-.1.6-.4-.2-.2-.2-.3.2-.4.4 0 .6.1.6.4 0 .5.3.5.8 0a.7.7 0 0 0 .5-.4c0-.3.5-.4 1.4-.5.9.2 1.2.1 1-.4-.2-.2 0-.2.3 0h.3c.2 0 .3-.1.5-.4.3-.2.5-.2.5 0-.5.8-.2 1 .9.4l1.6-.1c3-.9 4.6-1.4 4.8-1.7.2-.2.3-.2.3 0 0 .3.5.4 1.6.3a10.3 10.3 0 0 0 1.6-.2l2.2-.3c1 0 2-.3 2.7-.8 0 .2.9.2 2.7-.2 4.7-.6 7.2-.8 7.6-.3a2.7 2.7 0 0 1-.2 1.5c0 .5.2.7.6.7.4 0 .5-.2.5-.7-.2-.3-.2-.4 0-.4.4 0 .5-.2.5-.4.2-.3.6-.1 1.1.3 0 .1.1.2.5.2ZM5.4 58.8c.2 0 0-.3-.3-.8-.2-.4-.3-.4-.3 0 .4 1 .6 1.2.6.8Zm.6.7c.2 0 .3-.3.2-.8 0-.5 0-.6-.2-.3-.2 0-.3.2-.3.7 0 .3.1.4.3.4Zm3.8-15.6h-.9c.2-.3.5-.3.8 0Zm13.1-7.2c0-.3-.2-.4-.8-.4-.5 0-.7.2-.5.4.7.2 1.2.2 1.3 0Zm40.7-4a.7.7 0 0 0 1 .6.8.8 0 0 0 .6-1l-.3-.3v-.4c.2-.5-.1-.7-.9-.7a2.4 2.4 0 0 1-1.3.4 2.4 2.4 0 0 0-1.4.4c-1 0-1.6.4-1.6.8 0 .3-.2.4-.5.4l-.3-.1c0-.2 0-.2.3-.2 0-.5-.4-.6-1.2-.3a1.3 1.3 0 0 1-1.6-.4c0-.4-.3-.3-.8.5-.9 1.2-1.3 1.5-1.1.7.2-.2 0-.5-.3-.7a1 1 0 0 0-1.1 0l-.3.3c0-.2.2-.4.5-.6.2-.5.1-.6-.2-.4-.4 0-.6.3-.6.8s0 .8-.2.9c-.2.1-.4 0-.6-.5-.4-.5-.3-.8.3-.8.1 0 .1 0 0-.2-.2 0-.5 0-.9.3h-1.3c-.6 0-.7.3-.3.8 0 .2-.2.2-.5 0a.5.5 0 0 1-.4-.2.5.5 0 0 0-.5-.2H48c-.4.5-.6.4-.6-.3 0-.5-.2-.5-.6 0a8.5 8.5 0 0 1-2.3.6c-1 .2-1.5.2-1.5 0-.2-.3.8-.7 3-1.3 2.1-.6 3-1 2.6-1.2a4.3 4.3 0 0 0-1 .2 7.1 7.1 0 0 1-1.7.2 4.2 4.2 0 0 1-1.8.5h-1.5c-.3 0-.6.1-.7.3a.5.5 0 0 1-.4.2h-.2c.2.2 0 .4-.6.6a1.7 1.7 0 0 1-1.3-.2c-.6-.2-1-.2-1 0 0 .3 0 .7.5 1.2a.5.5 0 0 1 .4.1c0 .2 0 .2-.2.2a.5.5 0 0 1-.4-.2.5.5 0 0 0-.4-.1 2.4 2.4 0 0 0-1.3-.8c-.6-.1-.9 0-.8.6H35l-2.8.5a26.6 26.6 0 0 0-3 .9c-.2.2-1 .4-2.5.4-1.4.6-2.2 1-2.1 1.2-.2.3-.3.3-.3 0 0-.5-.2-.7-.6-.7-.2 0-.3.3-.3.8 0 .2.3.3.9.3l3.3-.1a23 23 0 0 1 3 0l1.7.1h.8c0-.5.4-.5 1.4 0 1 .4 1.4.4 1.4-.1.1-.3.3-.3.5 0a2.7 2.7 0 0 0 1.5.3c.7 0 1-.2 1-.4 0-.5.1-.5.5 0 .2.5.5.4.9 0l.8-.1c.3 0 .6 0 1-.2.2-.2.6-.2.9-.2a9 9 0 0 0 2-.3 6.4 6.4 0 0 1 1.3-.2h.8c.2.2.7.2 1.7.2l2.7-.1c1 0 1.4-.3 1.4-.8-.4-.2-.7-.2-.9 0v-.3c0-.8.3-.8.9 0h.7c0 .2 0 .3-.2.3 0 .2.6.3 1.7.3a3.9 3.9 0 0 1 1.5-.5h1.2c.8 0 1.1-.3 1.1-.8h2a1.6 1.6 0 0 0 1.2 0c.2 0 .3-.1.1-.1-.4-.5-.3-.7.2-.8.4-.2.6-.3.7-.2a.5.5 0 0 0 .5.2Zm-35 6c.1.4.3.7.5.7s.3-.2.3-.4l-.6-.4c-.2-.2-.3-.2-.3 0Zm9-.4h-.3c-.1 0-.2 0-.2-.2 0-.1-.1-.2-.3-.2-.2-.2-.4-.2-.6 0 0 .3.2.4.6.4h.8Zm1.7-.1c.9 0 1.2-.2 1-.4a2 2 0 0 0-1.5-.1c-.6.1-1 .3-1 .6l1.5-.1ZM41 33a1 1 0 0 1 .8.3c.2.2.1.4-.2.4-.4 0-.6-.2-.6-.7Zm8.5-1.1-.3-.4a.7.7 0 0 0-.5.4.6.6 0 0 0 0 .7c.2 0 .4-.2.8-.7Zm4.7-.6c-.2.3-.1.4.3.4.5 0 .7-.2.5-.4h-.8Zm2 2.1c.3 0 .4.1.3.4-.5.7-.8.8-.9 0l.6-.4Zm21.3-3c0 .7.6.5 1.7-.5-.4 0-.6-.2-.6-.7 0-.3-1-.3-2.8 0-1.8.1-2.8.5-3 1l-.5.3v-.3c0-.3-.3-.4-.8-.4-.2.3-.8.4-1.7.5a1.3 1.3 0 0 0-1 .4 1.5 1.5 0 0 1-1.1.8c-.4 0-.5-.2-.3-.7.1-.3 0-.4-.3-.4a1 1 0 0 0-.8.4c0 .5-.2.5-.6 0l-.2.4c0 .7.3.8.8.3.4 0 .6.2.6.7.2.3.3.3.3 0 .1-.2.4-.2.8 0 .5 0 .8-.3.8-.7.3-.6.6-.8 1-.8.2 0 .2.2 0 .7 0 .8.2.9 1 .3.5-.2.8-.2 1 0 .2.2.3.2.3 0 0-.5.4-.8 1.4-.8h1.3c0 .7.3.8.9.3.3 0 .3-.2 0-.4-.4-.2-.3-.5.5-.7.8-.1 1.3 0 1.3.2Zm17-2.6c0-.3.5-.7 1.6-1.2 1 0 1.3 0 1.1.3-.3.5-.1.5.6 0 .2-.5.3-.7.5-.7s.3 0 .3.3l.3.4c.2 0 .3-.2.3-.4-.4-.5-.4-.7.2-.8.7 0 1.1.2 1.1.7l-.1.4.4-.4c.5-.7.8-.9.8-.4 1.1 0 1.7-.4 1.6-1.2 0-.2-.2-.3-.6-.3l-1.9.8h-1.6a5.2 5.2 0 0 0-2 .5l-2.4.3-2.1.3c-1.3 0-2.2.3-2.5.8 0 .5-.3.5-.8 0a2 2 0 0 0-1.7.1c-.9.6-1.3.6-1.4 0 0-.4-.4-.4-1.3.2-.8.5-1.1.5-1.1 0-.2 0-.3.1-.3.4 0 .2-.7.4-2.2.4-1.6.1-2.3.4-1.9.8a1.2 1.2 0 0 1-.2.8c.2 0 .4-.3.8-.8.3-.2.5-.1.5.4 0 .2.6.2 1.7-.1 1.4-.8 2.4-.8 3-.1.6 0 .8-.2.8-.4.4-.5 1.2-.8 2.5-.9 1.2 0 2-.3 2.4-.8.4-.5.7-.4 1 .3.1.3.5.2 1.1 0 .6-.3 1-.3 1 0 .1.4.3.5.5.3Zm14.7 16c.2 0 .3-.2.3-.4 0-.8-2.6-1-7.5-.5-.7 0-1.4.1-2 .3a9.7 9.7 0 0 1-1.8.3h-1.7c-.3 0-.4.2-.2.4 1.5.2 3.1.2 4.7.2a23.5 23.5 0 0 0 3-.3c.9-.2 1.3-.4 1.3-.6l.6.3c.8.7 1.1 1 1.1.7 0-1 .2-1.1.6-.4.4.5.4.5.2 0 0-.5.1-.7.3-.7.2 0 .3 0 .3.3s0 .4.3.4h.5Zm-3.8-19.4c-1.5.3-2.2.6-2.2.8 0 .2.5.4 1.4.3a1 1 0 0 0 .5-.2l.6-.2h.3c0-.2 1.8-.4 5.4-.6 2.4-.3 3.7-.8 3.8-1.3.2-.2-.6-.2-2.4.1l-7.4 1Zm11.2 19a4.8 4.8 0 0 0 2.4.3c1.2 0 1.8-.2 1.8-.5 0-.2-.3-.3-.9-.3h-.8c-.2-.2-.7-.3-1.5-.3l-2.9.1a19.7 19.7 0 0 1-2.9 0l-1.5-.2c0-.2 0-.3-.2-.1v.9c0 .7.2.9.5.3h1.4a1.1 1.1 0 0 0 1.7 0c.1-.3.3-.5.4-.5l-.2.4v.7c.2 0 .5-.2.9-.7h1.6c0-.3 0-.3.2 0Zm.8-20.3c0 .3.5.3 1.4.2 1-.2 1.4-.4 1.4-.6 0-.5-.5-.7-1.3-.7a7.4 7.4 0 0 0-2.3.5.7.7 0 0 1-.5.3c-.2 0-.3.2-.3.4 0 .5.3.5.8 0 .2-.3.5-.3.8 0Zm3.5-.8c-.2-.3-.3-.3-.4-.2-.1.1 0 .3.1.5h.6c.3 0 .6 0 1-.2l1.2-.2c1.3 0 2-.2 2.2-.5h-.6a1 1 0 0 1-.5-.1 1.6 1.6 0 0 0-.9-.2c-1.4 0-2.2.3-2.1.8h-.6Zm12.6 21.5H135.9c0-.6-.5-.9-1.5-1a28.2 28.2 0 0 0-3.5 0l-6 .3c-2.6-.2-3.8-.1-3.6.1.4.5 1.2.8 2.5.8 1.3.1 2-.1 2.2-.6h.8c0 .2.7.3 2 .2a1 1 0 0 1 .5.2l.6.2h.5a1.1 1.1 0 0 0 1 .3c.5 0 .7-.2.7-.4s.1-.4.5-.4a1 1 0 0 1 .9.3Zm-4.3-22.6a2.7 2.7 0 0 0-1.8-.1c-.8.1-1.2.3-1.2.6 0 .4 1.1.4 3.3-.2.2 0 0-.1-.3-.3Zm1.1 0c.4.9.8.9 1.1-.1 0-.5-.2-.7-.6-.7l-.5.7Zm3-.2c2.4.4 3 .1 1.9-.8H133l-1.4.5 1.7.3Zm3.3-1.2c-.5 0-.6.2-.2.7 0 .3 0 .4.3.4l.2-.4c.3-.5.2-.8-.3-.7ZM155 43.7a86.5 86.5 0 0 1-10.5-.3c-3.7-.4-6-.5-7-.5-.9 0-1.1.3-.7.8.2.2.7.3 1.6.3h1.1c0 .2 1 .3 2.8.2 1.8-.1 2.8 0 2.8.2-.2.3-.1.3.2 0 1-.5 1.4-.6 1.4-.4 0 .3 1 .3 2.8.3 1.8-.1 2.7 0 2.7.2l2.8-.1h2.3c.7-.2 1.3 0 1.8.2 1.3.2 2.6.3 3.9.2 1.6 0 2.5-.2 2.7-.5.2-.2-.2-.3-1-.3a8.4 8.4 0 0 1-1.6-.1 9.2 9.2 0 0 0-1.5-.1l-2.5-.1a41.5 41.5 0 0 0-4.2 0Zm-16.5-24c-.7.5-.4.7.9.7 1.4 0 2-.4 1.6-.8-.4-.5-1.2-.5-2.5 0Zm2.8-.1 1 .3c.3 0 .4 0 .4.2l.3.1h.2c.2 0 .3-.2.3-.7 0-.5-.4-.6-1.1-.3l-1.1.4Zm5.1-.3c2.2 0 3.1-.3 2.7-.8h-2.5c-1.2.1-2 .3-2.1.5-.6.3 0 .5 1.9.3Zm11.5-1.5-1.7-.3h-1.6c-.2.3-.8.4-2 .5-1 0-1.7.2-1.8.4-.2.3.5.4 2 .3a14.9 14.9 0 0 0 3.7-.5l1.4-.4Zm6.7-.7c.5-.7.1-.9-1.1-.3h-1.7c-2.2.2-3.3.6-3.2 1.3 0 .2 0 .2.2 0l1.1-.2c.7-.2 1.3-.3 2-.3 1.8 0 2.7-.2 2.7-.5Zm1.6 0c.6 0 .8-.2.6-.5l-1.1.1c-.2.3 0 .4.5.3Zm.3 27.2h-.2c0 .5.6.7 1.7.6.3 0 .7 0 1 .2l.9.1a.8.8 0 0 0 .5-.4c0-.2-.4-.3-1-.3a3.7 3.7 0 0 0-2-.3h-.9Zm7.2-27.2c.2.5.3.7.3.5a4 4 0 0 0-.3-.9c-.2-.5-1-.7-2.5-.6-1.9 0-3 .2-3.2.5-.2.2.5.3 2.4.3a11.1 11.1 0 0 1 2.2 0 5.4 5.4 0 0 0 1 .2Zm-3.4 17.8c0 .2-.2.4-.6.4-.3 0-.4-.1-.2-.4h.8Zm1 9.9 1.3.3a.5.5 0 0 1 .5.2.5.5 0 0 0 .4.1h.5v-.3c0-.3-.4-.4-1.4-.3h-1.4Zm4.6-28.5.2-.4a1.3 1.3 0 0 0-1-.3c-1.2.5-1 .7.2.7h.6Zm6.8-.3a33.1 33.1 0 0 0 4-.4c1-.1 1.4-.3 1.2-.6-.1-.2-1.1-.3-2.9-.2a47.2 47.2 0 0 0-5.6.6c-2 .3-2.6.5-1.9.6h5.2Zm-5.4 29c-.1.2 0 .3.3.3.4 0 .6-.2.6-.4h-.9Zm.4-10.8c.4-.5.5-.5.6 0 .2 0 .2 0 .1.2a.5.5 0 0 1-.4.2l-.5-.1c0-.2 0-.3.2-.3Zm3.3-.1c.2-.3.5-.3.8 0 .2 0 .3 0 .2.1 0 .2-.3.2-.7.3a.5.5 0 0 1-.4-.2c-.1-.1 0-.2.1-.2Zm1.6 11.4c-.2 0 0 0 .3.3a.5.5 0 0 0 .4-.2c0-.1 0-.2-.2-.2 0-.5-.2-.5-.5 0Zm2.2-.1c-.4 0-.6.1-.5.3.2.3.5.5.8.6.4 0 .6-.1.5-.6h-.3a.7.7 0 0 1-.5-.3Zm2 .2c-.3 0-.3.1-.3.2 0 .2.2.2.5.2.4 0 .6 0 .7-.2l-.1-.2h-.9Zm2.1.3-.6.2c-.1.2 0 .2.4.2a1 1 0 0 0 .8-.4c0-.5-.2-.5-.6 0Zm0-12.9a1 1 0 0 1 .9.4h-.6c-.3 0-.4-.1-.3-.4Zm1.2-17.7c.8 0 1-.3.6-.7a1.5 1.5 0 0 0-1.3-.2c-.4.2-.6.5-.4 1h1.1Zm.2 30.6 1.1.5a.9.9 0 0 0 .9.5h.2v-.6h-.2a.4.4 0 0 1-.5-.2.4.4 0 0 0-.4-.3h-1.1Zm1.9-30.7c.7 0 1-.3 1-.8a.5.5 0 0 1-.4-.1l-.6.2c-1.5.5-1.5.8 0 .7Zm0 17.7c.6 0 .9 0 .9.3h-.6c-.3 0-.4 0-.3-.3Zm3 13.1c-.7.3-.6.5.1.8a1 1 0 0 1 .6.1 1 1 0 0 0 .5.2h.3c.2 0 .2-.4 0-1.1 0-.5-.1-.8-.2-.8l-.1.4c0 .3-.4.4-1.1.4Zm2.5 0c-.7.4-.7.7 0 .7a5.4 5.4 0 0 1 1.9 0c.2.2.4.2.6.2.4 1 .6 1 .6 0 0-.5-.5-.8-1.3-1-.8-.3-1.4-.2-1.7 0Zm3.6.5c0 .5.7.7 2 .7a8.6 8.6 0 0 1 2 0 6.4 6.4 0 0 0 1 .2 8.5 8.5 0 0 1 1.6.1c.7.1 1.3.2 2 .1a9.7 9.7 0 0 0 2.5.3 3 3 0 0 1 1.7.3l1.2.1c.5.1 1 .2 1.6.1a4.4 4.4 0 0 1 2.5.7l.3.3c-.2-.2 0-.6.7-1.1.8 0 1.1.2 1.2.7-.2.2-.2.3 0 .3h.8c.7.5 1 .5.8 0h.3l.2-.2c0-.1.1-.2.5-.2l.5.1a.8.8 0 0 0 .5.2h.2c0 .3.4.4 1.1.3a2 2 0 0 0 1-1.1c.2-.5 0-.8-.5-.7h-1.8a36 36 0 0 0-3.9-.3c-1.3-.1-2.1-.3-2.3-.5-.4 0-.6.1-.6.4h-.8c-.2-.2-1-.3-2.5-.2a29.3 29.3 0 0 1-7.4-.8 57.6 57.6 0 0 0-4.2-.4c-1.3 0-2 .1-2.2.6Zm30.7 1.3c-.6 0-1 0-1-.3-.1-.3-.2-.3-.2 0 0 .5-.2.5-.6 0-.2-.3-.4-.2-.6 0-.4 1-.6 1-.6 0a1.2 1.2 0 0 1-.3-.7h-.3c-.7.8-.6 1.7.4 3a1.7 1.7 0 0 0 1.8.2c.4-.5.7-.5.9 0 .4.4.6 0 .5-1.2v-1Zm3.9.2c.1 0 .2.2.3.7 0 .3-.2.4-.6.4-.3 0-.5-.2-.6-.7l.3-.4h.6Zm16.8-46c.4.5.7.7.8.7.2 0 .2-.2 0-.7h-.3a.7.7 0 0 1-.6-.4c-.3 0-.3.2 0 .4Zm2 9.5c0-.2-.2-.3-.5-.3-.8.5-.7.7 0 .7l.5-.4Zm.7-9.3c.2 0 .3 0 .3-.3l-.6-.4c-.2 0-.3.2-.2.4 0 .2.2.4.5.3Zm3.9 45.6c.2 0 .3.2.3.7h.8c.7-.3 1-.2 1.1.3 0 .5.1.7.3.7.2 0 .4-.3.5-.8.2-.5.3-.5.3 0 0 .3.1.4.3.4.2-.3.4-.3.6 0 0 1-.5 1.1-1.7.4a2.4 2.4 0 0 1-1-.1 2.4 2.4 0 0 0-1-.2c-1.7.6-2.7.2-2.7-1.3 0-.3.7-.3 2.2-.1Zm-2-45.6c.7.7 1 .8 1 .3-.1-.5-.3-.7-.7-.7-.3-.2-.4-.1-.2.4Zm1.7-.5a.6.6 0 0 0 0 .8c.4 0 .5-.3.5-.8l-.3-.3-.2.3Zm.8.4c0 .5.2.7.4.7.5 0 .6-.3.2-.7a1.2 1.2 0 0 0-.3-.8l-.3.8Zm2.3.6c.5 0 .7-.1.5-.4-.2-.2-.5-.2-1 0-.4.3-.3.5.5.4Zm2.2 46.7c-.6-.7-.7-.6-.3.4.2.2.3.4.2.5 0 .1-.2 0-.4-.5-.4-.3-.6-.5-.5-.7.1-.3.3-.4.7-.4a.5.5 0 0 1 .4.1.4.4 0 0 0 .4.2c0 .2-.1.4-.5.4Zm1.7.3c0-.5.1-.8.5-.8v.8c0 .2 0 .3-.2.3l-.3-.3Zm1.3 0c.2-.3.3-.2.3.3 0 .7 0 .8-.2.4v-.8Zm3-47.3a.7.7 0 0 1-.6-.4c0-.5.1-.7.3-.7l.3.7v.4Zm14.5 69.3c.2-.5.1-.6 0-.4v.4Zm5.7-3.2c-.2 0-.3.1-.3.2s.2.2.5.2c.4 0 .6-.2.6-.4h-.9Zm2.9 4.3a1.4 1.4 0 0 0 1.4 0c.3-.3.3-.7 0-1.1-.5-.3-.7-.2-1 0l-.2.4h-.5l-.6-.2c0 .1.3.5.9 1Zm1.4-13.3c-.4 0-.4.3 0 .8.2.4.3.6.4.5.1-.1 0-.4-.2-1 0-.2 0-.3-.2-.3Zm3.5 13.1c-.2 0-.3-.2-.3-.7-.2 0-.2 0-.1-.2a.5.5 0 0 1 .4-.2c.1 0 .2.1.3.4 0 .2-.1.5-.3.7Zm0-11.4v.4c.6 0 .8-.2.6-.4h-.5ZM300 60c0-.2 0-.4.3-.4 1 .5 1.3.7.5.8a1 1 0 0 1-.8-.4Zm1.9 11.7c1 1.2 1.6 1.3 2 .3 0-.7 0-.8.4-.4.2 0 .3-.1.3-.3-.2-.3-.2-.4 0-.4a.5.5 0 0 0 .4-.2l-.1-.2c0-.5-.3-.3-.9.4-.5.5-.8.5-.8 0s-.3-.5-.8-.3a1.4 1.4 0 0 0-1.1.4l.6.7Zm1.8-8.9c.2-.3.3-.7.2-1-.2-.3-.3-.2-.2.3v.7Zm1.8 17.6c0-.5-.1-.7-.4-.7a.8.8 0 0 0-.7.4c0 .2.2.4.6.3h.5Zm.2-9.6c-.5-1.4-.6-1.3-.6.4 0 .5.3.8.6.7v-1Zm.4 8.9-.3.3c0 .3 0 .4.3.4h.5l-.5-.7Zm.4-8.2c-.3.6-.3.8 0 .8l.6-.8v-.7c-.4 0-.6.3-.5.7Zm1.8 8c-.2 0-.3.1-.2.3a.5.5 0 0 0 .4.1.7.7 0 0 0 .6-.4 1.3 1.3 0 0 0-.3-.7c-.4 0-.6.3-.5.8Zm.2-8c-.2 0-.3.1-.3.3 0 .5.2.8.6.8.2 0 .3-.3.2-.8l-.5-.3Zm6.2 3c-.2 0-.3 0-.2.2a.5.5 0 0 0 .5.2h.5v-.4c-.4-.2-.7-.2-.8 0Zm7.5-9.9c-.5-.2-.8-.2-.8 0a.8.8 0 0 0 .7 1 .7.7 0 0 0 1-.6c.1-.3.1-.4 0-.4h-.9Zm2.2 0c-.5 0-.6.2-.2.7.3.2.7.3 1.1.3.4 0 .4-.1 0-.4 0 .3-.3 0-.9-.6Zm1.8-51.3c-.6-.2-1-.2-1.1 0-.6.8-.5 1 .2.4l.9-.4Zm8.2 52.7c-.2.2 0 .3.6.3.3-.5.4-.8.2-.8a1 1 0 0 0-.8.5Zm2.7-34c.4-.5 1-.4 1.7.3 1.1.4 1.2.7.3.7-.4 0-.6-.1-.6-.4h-.3l-.3-.1c0-.1 0-.2-.2-.2-1 .5-1 .4-.6-.3Zm24.6 2.3c-.1.2 0 .2.3 0h.6v-.4c-.2-.3-.5-.2-.8.4Zm1.7-.1c-.9.8-1 1.1-.2 1.1.1 0 .2-.1.2-.4l.3-.7c0-.5-.1-.5-.3 0Zm2.2.3-.2.7.2.4.3-.4c0-.5-.1-.7-.3-.7Zm1.1.3-.2.7c0 1.3.2 1.1.5-.4 0-.5 0-.6-.3-.3Zm7-9.1c.2-.3.3-.3.3 0-.1.5-.3.7-.6.7s-.4 0-.4-.3h.2l.6-.4Z"/></svg>
