<svg xmlns="http://www.w3.org/2000/svg" width="377" height="229" fill="none"><path fill="#EFEAD5" stroke="#71B2B8" stroke-width="2" d="m2.5 213.5 62.4-.2c19 9.7 42.7 10.8 63.3 11.3l116.7 2.5c39 .8 77.9 1.5 116.9 1.9h14.4c1 0 1-1.7 0-1.7a4817 4817 0 0 0-112.8-4 63577.4 63577.4 0 0 0-112.3-3c-16.1-.3-32.4-.3-48.5-2-8.4-.8-16.9-2.3-24.9-5h27.6l103-.2H260c12.1 0 24.4-.4 36.4-2.6 11.2-2 22.6-5.8 31.8-12.8a44.4 44.4 0 0 0 6.4-66.3 45.4 45.4 0 0 0-33.9-13.6 43.6 43.6 0 0 0-5.1.5A94.7 94.7 0 0 0 246.9 8.8a97.2 97.2 0 0 0-67.6-5 89.2 89.2 0 0 0-51.8 41 96.1 96.1 0 0 0-11.4 67 59 59 0 0 0-68.5 11.8 58.8 58.8 0 0 0-1.5 74.7 55.7 55.7 0 0 0 10.7 10H2.5c-3.3 0-3.3 5.2 0 5.2Zm37.3-38.9a54.8 54.8 0 0 1 4.3-37.7c12-23.2 42.3-32.4 66-22.8a48 48 0 0 1 8.4 4.4c1.7 1.2 4-.7 3.4-2.6A89.5 89.5 0 0 1 173 11a92.6 92.6 0 0 1 64.6-1 84.5 84.5 0 0 1 46.8 41.8 90.9 90.9 0 0 1 7.7 61.2 86.6 86.6 0 0 1-2.2 7.7c-.6 1.7 1.3 3.3 3 3a39 39 0 0 1 48.8 39.6A39.8 39.8 0 0 1 326 193a68.6 68.6 0 0 1-30.1 12.1c-11.4 2.1-23 2.6-34.5 2.7h-49.1l-98.8.2H66a62.4 62.4 0 0 1-4-2.3 51 51 0 0 1-22.3-31.3Z"/></svg>
