<svg xmlns="http://www.w3.org/2000/svg" width="363" height="220" fill="none"><path fill="#EFEAD5" stroke="#71B2B8" stroke-width="2" d="m360.5 198.5-31.7-.1a49.9 49.9 0 0 0 9.6-13 43.5 43.5 0 0 0 2.2-34.3 31 31 0 0 0-23.5-20.3c-6.7-1.2-14-.3-20.3 2.8a52 52 0 0 0-2.2-35.7 48 48 0 0 0-41.1-27.5 48.8 48.8 0 0 0-22 3.7c5.3-20 3.4-42.8-12-57.8-7.3-7.2-17-12-27.4-12.3a32.7 32.7 0 0 0-25 10.7 33.8 33.8 0 0 0-7.6 13 54.9 54.9 0 0 0-46-27.7 44.4 44.4 0 0 0-31.8 12.5A54 54 0 0 0 70.9 74a53 53 0 0 0-42.3 8.9 50.2 50.2 0 0 0-19.8 46 52 52 0 0 0 8 22.7c-8 1.2-14.7 8.2-16.4 16.3-2.2 10.7 4.6 20.8 13.2 26.6 10.3 7 23.3 7.7 35.4 7.8 14.3.2 28.6.2 43 .2l85.6.4 86 .4 51.1.3a69.4 69.4 0 0 1-6.7 3.6c-13 6.1-27.8 8-42.1 8.4-15.7.5-31.5 0-47.3-.3a9723.6 9723.6 0 0 1-96.2-2c-32.1-.7-64.2-2.2-96.3-2.6l-12-.2c-1.4 0-1.4 2.2 0 2.2 34 2 67.8 3.1 101.7 4.2 33.9 1 67.7 1.9 101.6 2.5 16.5.3 33.1 1 49.7.5 14.8-.5 29.7-2.5 43.2-8.8a69.1 69.1 0 0 0 12.5-7.5l27 .2h10.7c3.3 0 3.3-5.2 0-5.2Zm-38.6-.1-125.4-.5-81.5-.3-41.2-.2-20.6-.1c-6 0-12 0-18-.8-11.5-1.3-24.6-6.6-29-18.3-2-5.3-1.4-10.7 1.7-15.4 2.9-4.2 7.9-7.3 13-6.3 2.6.5 4-2.2 2.5-4.2a47.8 47.8 0 0 1-7-45.5 45.4 45.4 0 0 1 34-28.1 45.8 45.8 0 0 1 25.5 2c2 .7 4-2 2.8-3.8-12.4-17-9.8-42 3.7-57.7 6.8-8 16.3-13.2 26.9-14A48.7 48.7 0 0 1 158.5 39c.2 1.6.5 3.1 1 4.6 1 3.2 5.4 1.8 5-1.4a43.6 43.6 0 0 0-1-4.2C162 23.3 175.7 9.5 190.3 9.1c9-.2 17.6 3.7 24.2 9.6A44 44 0 0 1 228 43.4c2.3 11.7.5 24-3.5 35-.8 2.3 2 4.1 3.8 3 13.5-8 31-7.6 44.5 0 14.1 7.9 21.7 23.3 21.1 39.3a44.4 44.4 0 0 1-5 19 23.5 23.5 0 0 0-3.8 6c-1.3 3 2.3 5 4.3 2.5a44.8 44.8 0 0 0 3.6-5.6 25 25 0 0 1 18.7-7.4c10.4.1 19 6 23.4 15.5 4.7 10 4 22.4-.7 32.1-3 6.1-7.4 11.3-12.6 15.6Z"/></svg>
