<svg xmlns="http://www.w3.org/2000/svg" width="29" height="28" fill="none"><path fill="#50A3AB" d="M14.14 0c3.79 0 4.26.01 5.75.08 1.48.07 2.5.3 3.38.65.92.36 1.7.84 2.48 1.61a6.85 6.85 0 0 1 1.6 2.47c.35.9.58 1.9.65 3.39.07 1.49.09 1.96.09 5.75s-.02 4.26-.09 5.75c-.07 1.48-.3 2.5-.64 3.39a6.81 6.81 0 0 1-1.61 2.47 6.86 6.86 0 0 1-2.48 1.6c-.88.35-1.9.58-3.38.65-1.49.07-1.96.09-5.75.09s-4.26-.02-5.75-.09c-1.49-.07-2.5-.3-3.39-.64a6.82 6.82 0 0 1-2.47-1.61 6.84 6.84 0 0 1-1.6-2.48 10.3 10.3 0 0 1-.66-3.38C.21 18.2.2 17.74.2 13.95s0-4.26.07-5.75c.07-1.5.3-2.5.65-3.4a6.8 6.8 0 0 1 1.61-2.47A6.83 6.83 0 0 1 5 .74C5.9.38 6.9.14 8.4.07 9.88.02 10.35 0 14.14 0Zm0 6.97a6.97 6.97 0 1 0 0 13.95 6.97 6.97 0 0 0 0-13.95Zm9.06-.34a1.74 1.74 0 1 0-3.48 0 1.74 1.74 0 0 0 3.48 0Zm-9.06 3.13a4.18 4.18 0 1 1 0 8.37 4.18 4.18 0 0 1 0-8.37Z"/></svg>
