<svg xmlns="http://www.w3.org/2000/svg" width="162.75" height="121.21" fill="none"><path fill="#5eb2ba" d="M80.64 121.2c33.94.4 62.44-20.35 69-48.21.43.07.87.1 1.3.12a11.66 11.66 0 0 0 8.3-3.32 11.67 11.67 0 0 0 .19-16.5 11.68 11.68 0 0 0-8.21-3.5 9.63 9.63 0 0 0-1.31.08C144 21.86 116 .44 82.06 0 48.1-.42 19.62 20.37 13.07 48.22a11.12 11.12 0 0 0-1.31-.12 11.66 11.66 0 0 0-.28 23.33c.44 0 .86-.02 1.31-.09 5.91 28.03 33.96 49.43 67.85 49.86z"/><path fill="#5aadb5" d="M80.64 121.2c22.1.26 41.88-8.46 54.8-22.24a122.6 122.6 0 0 1-16.03.87c-50.05-.6-91.11-31.3-97.71-70.73a55.59 55.59 0 0 0-8.6 19.1 10.9 10.9 0 0 0-1.32-.12 11.66 11.66 0 0 0-.27 23.33c.43 0 .85-.02 1.3-.09 5.9 28.05 33.94 49.45 67.83 49.88zm20.85-80.33a3.38 3.38 0 1 0-6.76-.12 3.38 3.38 0 0 0 6.76.12zm23.85 10.95a3.37 3.37 0 0 0-2.04-3.16 3.38 3.38 0 1 0-.1 6.24 3.37 3.37 0 0 0 2.14-3.08zm-9.97-21.56a3.38 3.38 0 0 0-6.68-.79 3.38 3.38 0 0 0 1.38 3.5 3.38 3.38 0 0 0 4.27-.35 3.38 3.38 0 0 0 1.03-2.36z"/></svg>
