<svg xmlns="http://www.w3.org/2000/svg" width="27" height="28" fill="none"><path fill="#50A3AB" d="M26.882 8.421v5.264c0 .279-.107.547-.298.744-.191.197-.45.308-.72.308a12.814 12.814 0 0 1-6.117-1.54v4.698c0 1.903-.525 3.766-1.514 5.371a9.789 9.789 0 0 1-4.07 3.69 9.41 9.41 0 0 1-5.353.857 9.537 9.537 0 0 1-4.96-2.247A10.024 10.024 0 0 1 .834 20.92a10.314 10.314 0 0 1-.129-5.592 10.064 10.064 0 0 1 2.8-4.788 9.57 9.57 0 0 1 4.851-2.487.988.988 0 0 1 .829.224c.117.098.212.222.276.363.064.142.096.296.093.452v5.474c0 .2-.054.395-.158.563a1.018 1.018 0 0 1-.428.385 2.574 2.574 0 0 0-1.017.905 2.704 2.704 0 0 0-.155 2.67c.207.42.52.773.905 1.024a2.483 2.483 0 0 0 2.59.083c.399-.226.732-.56.965-.964.232-.404.355-.866.356-1.337V1.053c0-.28.107-.547.299-.745.19-.197.45-.308.72-.308h5.097c.27 0 .53.11.72.308.192.198.3.465.3.745 0 1.675.644 3.281 1.79 4.466a6.019 6.019 0 0 0 4.325 1.85c.27 0 .53.11.72.308.192.197.3.465.3.744Z"/></svg>
