<svg xmlns="http://www.w3.org/2000/svg" width="43" height="28" fill="none"><path fill="#efead5" d="M39.48 8.16 43 4.28h-7.79A24.1 24.1 0 0 0 21.51 0a24.1 24.1 0 0 0-13.7 4.28H0l3.52 3.88a10.96 10.96 0 0 0-3.45 7.56 10.98 10.98 0 0 0 2.82 7.82 10.68 10.68 0 0 0 7.45 3.5c2.84.13 5.62-.9 7.72-2.84L21.5 28l3.44-3.8a10.69 10.69 0 0 0 5.51 2.75c2.06.36 4.18.1 6.1-.76a10.79 10.79 0 0 0 4.69-4.01 11 11 0 0 0 1.75-5.97 11 11 0 0 0-.91-4.4 10.87 10.87 0 0 0-2.6-3.65ZM10.77 23.58a7.2 7.2 0 0 1-4.05-1.24 7.35 7.35 0 0 1-2.67-3.31 7.47 7.47 0 0 1-.42-4.26 7.4 7.4 0 0 1 2-3.77 7.24 7.24 0 0 1 3.72-2.02 7.18 7.18 0 0 1 4.2.42 7.3 7.3 0 0 1 3.26 2.71 7.45 7.45 0 0 1 1.23 4.1c0 1.96-.77 3.83-2.13 5.21a7.22 7.22 0 0 1-5.14 2.16ZM21.5 16c0-4.86-3.48-9.02-8.07-10.8a20.73 20.73 0 0 1 8.07-1.63c2.77 0 5.51.55 8.07 1.63-4.6 1.78-8.07 5.95-8.07 10.8Zm10.74 7.58a7.22 7.22 0 0 1-5.14-2.16 7.43 7.43 0 0 1-2.13-5.21c0-1.96.77-3.83 2.13-5.22a7.22 7.22 0 0 1 5.14-2.16A7.22 7.22 0 0 1 37.38 11a7.43 7.43 0 0 1 2.13 5.22 7.43 7.43 0 0 1-2.13 5.21 7.22 7.22 0 0 1-5.14 2.16ZM10.76 12.34c-.76 0-1.5.23-2.12.66a3.85 3.85 0 0 0-1.4 1.73 3.92 3.92 0 0 0-.22 2.23A3.88 3.88 0 0 0 10 20c.74.15 1.5.07 2.2-.22a3.82 3.82 0 0 0 1.71-1.42 3.9 3.9 0 0 0 .65-2.15v-.01c0-.5-.1-1-.3-1.48a3.86 3.86 0 0 0-.82-1.25 3.8 3.8 0 0 0-1.24-.83 3.76 3.76 0 0 0-1.45-.3Zm21.48 0c-.75 0-1.49.23-2.12.66a3.85 3.85 0 0 0-1.4 1.73 3.92 3.92 0 0 0-.22 2.23 3.88 3.88 0 0 0 3 3.04c.74.15 1.5.07 2.2-.22a3.82 3.82 0 0 0 1.71-1.42 3.9 3.9 0 0 0-.47-4.88 3.79 3.79 0 0 0-2.7-1.14Z"/></svg>
