<svg xmlns="http://www.w3.org/2000/svg" width="55" height="56" fill="none"><path fill="#000" d="m.011 55.869 3.718-13.663A27.378 27.378 0 0 1 0 28.366C0 13.176 12.312.863 27.5.863S55 13.176 55 28.366 42.688 55.87 27.5 55.87a27.371 27.371 0 0 1-13.832-3.727L.01 55.87Zm17.564-40.407a2.644 2.644 0 0 0-1.02.275c-.298.169-.57.38-.809.627-.33.31-.517.58-.717.841a7.506 7.506 0 0 0-1.554 4.616c.005 1.347.357 2.659.908 3.886 1.124 2.48 2.975 5.107 5.42 7.54.588.587 1.163 1.175 1.782 1.723a25.981 25.981 0 0 0 10.56 5.627l1.564.239c.51.028 1.018-.011 1.53-.036a5.472 5.472 0 0 0 2.29-.635c.36-.186.712-.387 1.053-.605 0 0 .119-.077.344-.248.371-.275.6-.47.908-.792.228-.236.426-.514.577-.83.215-.449.43-1.304.517-2.016.066-.545.047-.842.039-1.026-.011-.295-.256-.6-.523-.729l-1.6-.718s-2.393-1.042-3.853-1.708a1.37 1.37 0 0 0-.487-.112 1.325 1.325 0 0 0-1.04.349v-.006c-.013 0-.197.157-2.185 2.566a.963.963 0 0 1-1.012.358 3.893 3.893 0 0 1-.526-.182c-.34-.143-.459-.198-.693-.3l-.013-.005a16.525 16.525 0 0 1-4.318-2.75c-.346-.303-.668-.633-.998-.952a17.315 17.315 0 0 1-2.805-3.487l-.163-.262a2.545 2.545 0 0 1-.28-.563c-.105-.405.168-.73.168-.73s.668-.73.979-1.127c.259-.329.5-.671.723-1.026.325-.522.426-1.058.256-1.474a228.997 228.997 0 0 0-2.387-5.613c-.163-.369-.644-.633-1.081-.685-.149-.016-.297-.033-.446-.044a9.291 9.291 0 0 0-1.108.011v.003Z"/></svg>
