<svg xmlns="http://www.w3.org/2000/svg" width="83" height="30" fill="none"><path fill="#498C93" fill-rule="evenodd" d="M29.35.06c-.7.06-.99.21-1.24.64-.19.32-.2.61-.07 3.2.36 7.37-.86 16.38-2.75 20.21-.45.93-1.11 1.65-1.59 1.74-1.1.2-1.89-1.18-2.42-4.29-.37-2.08-.53-6.53-.39-10.44.24-6.72.25-6.55-.24-6.8-.58-.3-2.53-.34-3.57-.07-.71.18-.95.48-1.57 1.92-1.88 4.42-2.9 6.73-4.6 10.44a264.6 264.6 0 0 1-3.4 7.13L6.42 26l-.07-.37c-.38-2.35-.4-8.08-.06-11.79.21-2.24.86-6.34 1.45-9.22.28-1.35.28-1.82 0-2.1-.3-.29-.57-.32-2-.22-2.33.15-3.2.54-3.78 1.67C1.58 4.69.99 7.8.5 11.62c-.66 5.24-.68 10.82-.04 14.43.54 3.06.84 3.36 3.69 3.76 1.47.21 2.7.2 3.3-.04a3.93 3.93 0 0 0 1.75-1.6c1.06-1.73 3.48-6.55 5.34-10.63l.74-1.63.06.72.15 2.04c.33 4.56 1.1 7.4 2.5 9.24a5.33 5.33 0 0 0 6.44 1.5c3.38-1.69 6.42-7.22 8.5-15.44a53.88 53.88 0 0 0 1.55-10.34 5.96 5.96 0 0 0-.08-1.91C34.18.85 33.8.44 32.97.18c-.46-.14-2.6-.21-3.62-.12Zm32.09.01c-1.17.2-1.63.52-1.9 1.34-.22.64-1.19 5.46-1.76 8.72a39.86 39.86 0 0 1-.5 2.55c-.13.26-1.63 1.64-2.14 1.98a7.1 7.1 0 0 1-1.99.9l-.34.08-.06-.59c-.1-.97-.41-2.2-.76-2.94a5.86 5.86 0 0 0-3.55-3.2 8.13 8.13 0 0 0-3.44-.4 9.2 9.2 0 0 0-3.4.63c-3.85 1.48-6.6 5.09-7.51 9.82-.16.8-.19 1.24-.19 2.8 0 2.09.09 2.7.58 3.98a6.22 6.22 0 0 0 3.06 3.4 10.27 10.27 0 0 0 8.77-.3c2.96-1.61 5.1-4.83 6.15-9.27l.1-.41.56-.14a9.3 9.3 0 0 0 2.74-1.38 3 3 0 0 1 .68-.43l-.17.92a40.2 40.2 0 0 0-.64 5.45 7.9 7.9 0 0 0 .14 2.3c.53 2.63 2.04 3.89 4.91 4.1 2.02.15 4.2-.66 5.96-2.22.65-.59 1.51-1.53 1.95-2.14.18-.26.36-.47.4-.47.03 0 .08.18.1.4a5.62 5.62 0 0 0 1.46 3.05c.97.96 1.98 1.33 3.7 1.35 2.2.03 4-.76 5.74-2.53 1.2-1.2 2.37-2.98 2.37-3.6 0-.44-.78-.98-1.41-.98-.39 0-.43.03-.79.63a7.62 7.62 0 0 1-1.83 2.13c-1.37.97-2.99.93-3.69-.09-.63-.9-.59-2.76.15-7.18.36-2.13.98-5.4 1.03-5.45a54.3 54.3 0 0 1 2.6-.11c1.41-.05 2.74-.12 2.96-.17.94-.21 1.52-.91 1.52-1.82 0-.55-.22-.85-.7-.97-.17-.04-1.27-.12-2.46-.17a109.78 109.78 0 0 1-2.77-.14c-.56-.04-.6-.06-.56-.22l.21-1.13.43-2.23.27-1.29-.19-.38a1.03 1.03 0 0 0-.54-.55 7.99 7.99 0 0 0-2.91-.32c-.87.03-1.04.05-1.3.22-.5.3-.46.18-1.26 4.3l-.27 1.34-1.47-.01c-1.6-.01-1.89.04-2.2.44a5.06 5.06 0 0 0-.5 2.16c-.04.74-.04.8.14.98.33.35.66.4 2.07.34l1.28-.06-.05.2c-.12.48-.48 2.73-.68 4.22a10.27 10.27 0 0 1-.83 3.48c-.94 2.22-2.33 4.04-3.7 4.83-1.19.7-2.49.6-3.08-.2-.45-.62-.53-1.07-.53-2.9 0-1.79.08-2.55.46-4.92.47-2.9 1.17-5.7 1.9-7.63 1.02-2.68 1.84-6.21 1.87-8.04.02-1.45-.27-1.81-1.6-2.03a9.89 9.89 0 0 0-2.59-.03ZM45.58 11.62a2 2 0 0 1 .47.12c.02.02-.02.36-.1.76-.2.98-.2 2.6 0 3.33.2.74.57 1.4 1.1 1.95l.46.48-.22 1.1c-.72 3.5-2.27 6.41-3.88 7.24-.37.18-.56.23-1.03.23-1.78 0-2.7-1.5-2.7-4.35 0-4.98 1.66-9.41 3.97-10.57.7-.35 1.22-.43 1.93-.3Z" clip-rule="evenodd"/></svg>
