<svg xmlns="http://www.w3.org/2000/svg" width="1000" height="1000" fill="none"><g clip-path="url(#a)"><path fill="#E9DFC5" d="M875.1 480.2c-5-187-170.6-353.6-393.7-344-204.6 8.4-350.9 206.2-345.8 392.6 5 187 170.6 344.6 402.3 335 214-9 342.3-196.6 337.3-383.6Z"/><path fill="#EBE2C4" d="M810.8 570.2c-30.5 145.7-141.2 246.3-276.1 249.7-154.2 4.5-331.5-116.4-339.4-297.1a384.2 384.2 0 0 1 6.8-88.2c29.3-142.3 150.2-248.5 286.3-252.5 155.8-4.5 322.4 102.3 330.3 288.7a420 420 0 0 1-7.9 99.4Z"/><path fill="#EBE2C4" d="M466.6 787.8c-118-25-240.7-123.8-246.3-266.1a361.5 361.5 0 0 1 6.2-82c27.1-131 137.3-228.2 262.1-231.6a320.5 320.5 0 0 1 73.5 6.8c102.2 21.4 223.7 101.7 230.5 257 1.7 31.1-1.1 62.2-7.3 92.7-27.7 133.9-128.9 226-252 229.4a326 326 0 0 1-66.7-6.3Z"/><path fill="#E3DAC3" d="M683.6 357.6c-1.7 15.8-16.4 18.7-73.4 58.8-62.2 43.5-82.5 61.6-88.2 57-5-4 6.8-34.4 23.2-109 13-61 9.6-76.3 23.2-84.2 33.9-19.2 120.3 37.3 115.2 77.4ZM401.1 299c-4 13.5 5.1 22 39.6 78.5 43.5 70.6 56.5 93.8 62.1 92.1 6.8-1.7 6.8-37.3 22.6-113.6 11.9-56.5 21-68.9 11.9-81.3C514.7 243 413 259.4 401.1 299Zm-70 345.2c1.7-15.3 15.8-18.1 71.7-57 60.5-41.9 80.2-60 85.9-55.5 5 4-6.8 34-22.6 105.7-13 59.3-9 74-22.6 82-33.3 19.1-117.5-35.7-112.4-75.2Zm280.2 59.3c4-13.6-5-22-39.5-78.5-43.5-70.7-56.5-93.8-62.2-92.1-6.8 1.7-6.8 37.3-22.6 113.5-11.9 56.5-20.9 69-11.9 81.4 22.6 32.2 124.3 15.2 136.2-24.3Zm31.6-24.3c-15.8-1.7-18.6-16.4-58.7-74-43-62.2-61-82.5-57-88.1 3.9-5.1 34.4 6.7 108.4 23.1 60.4 13 75.7 9.6 84.2 23.2 19.8 34.4-36.7 120.9-76.9 115.8Zm56-279.7c-13-4-21 5.1-74.6 37.9-67.2 41.8-89.3 54.2-87.6 59.3 1.7 6.2 35 6.2 108.5 21.5 53.7 11.3 65.5 20.3 77.4 11.3 30-21.5 13.6-118.7-23.7-130Zm-329.4-76.2c15.8 1.7 18.6 16.4 58.7 74 43 62.1 61 82.5 57.1 88.1-4 5-34.5-6.8-108.5-23.2-60.4-13-75.7-9.6-84.1-23.1-19.8-34.5 36.7-121 76.8-115.8Zm-58.8 283c13.6 4 22-5 78-39.5 70.6-43.5 93.2-57.1 92.1-62.2-1.7-6.8-36.7-6.8-113.6-22.6-56.5-11.8-68.3-20.9-81.3-11.8-31.1 22.6-14.2 124.3 24.8 136.1Z"/></g><defs><clipPath id="a"><path fill="#fff" d="M0 0h1000v1000H0z"/></clipPath></defs></svg>