<svg xmlns="http://www.w3.org/2000/svg" width="1000" height="1000" fill="none"><g clip-path="url(#a)"><path fill="#EBE2C4" d="M595.5 226c-130.5-69.5-298.9-103.4-400 23.7A352.9 352.9 0 0 0 157 230a446.1 446.1 0 0 0 15.2 53.7c-.6.6-.6 1.7-1.1 2.3-20.3-5.1-40.7-9-61-10.8a389.9 389.9 0 0 0 39.5 56.5 380.8 380.8 0 0 0-54.2 18.1 348.2 348.2 0 0 0 40.7 21.5C80.7 569 222.5 690.5 369.4 768.5c137.9 73.4 306.8 118 428.2-30a383 383 0 0 0 47.5 25.4 381.6 381.6 0 0 0-16.4-56.5c21 5.7 41.8 9 63.3 11.3a390 390 0 0 0-39.6-56.5 359.4 359.4 0 0 0 54.3-18 399 399 0 0 0-43.5-23.2c59.4-186.5-126.5-319.9-267.7-395Z"/><path fill="#E3DAC3" d="M311.3 622.6c-19.8-19.2-27.1-37.3-37.3-32.8-13.6 5.7-5.6 37.3 14.1 56.5 19.8 19.2 49.2 29.4 57.1 13.6 4.5-10.2-14.7-18-33.9-37.3Zm-1.1-111.3c-11.3-18.6-13.6-33.9-22.6-32.8-11.9 1.7-11.9 27.7-.6 46.4 11.3 18.6 32.2 32.2 41.2 21.4 6.3-6.7-6.7-16.4-18-35Zm-110.8-49.7c-9-14.7-10.7-27.1-17.5-26-9 1.7-9 22-.5 36.7 9 14.7 25.4 25.4 32.7 17 4.5-5.1-5.6-13-14.7-27.7Zm171.8-202.3c-37.3-2.2-62.1 6.2-67.2-4.5-6.8-14.7 32.2-31.6 68.9-29.4 37.3 2.3 73.4 21 65 37.3-5.1 10.2-29.4-1.1-66.7-3.4Zm321.5 130.5C670 378 652 376.3 653 366.1c1.1-13.6 31-15.3 53.7-3.4 22.6 11.9 39.5 35 27.7 46.3-7.4 6.8-19.2-7.9-41.8-19.2Zm-137.9-83c-23.7-5.7-41.2-3.4-42.4-13-1.7-13 26-21.5 49.7-15.8s45.2 23.7 36.8 37.2c-5.7 8.5-20.4-2.2-44.1-8.4Zm34.5 104.5c-18.1-12.4-33.4-15.8-31.7-24.3 2.8-11.3 28.3-10.2 46.3 2.3 18.1 12.4 30 33.9 19.3 42.3-6.8 5.7-15.9-7.9-34-20.3ZM462 737.3c-18.6-11.3-27-21.5-35-16.4-10.7 6.8 2.3 28.8 21 40.1 18.6 11.3 44.5 14.1 46.2 0 1.2-11.9-13.5-12.4-32.2-23.7Z"/></g><defs><clipPath id="a"><path fill="#fff" d="M0 0h1000v1000H0z"/></clipPath></defs></svg>