<svg xmlns="http://www.w3.org/2000/svg" width="1000" height="1000" fill="none"><g clip-path="url(#a)"><path fill="#5BA9B2" d="M391 191s178.5-122.6 302.8-34.5C615.3 281.9 391 191 391 191Z"/><path fill="#559DA6" d="M617.5 158.8c-25.4 1.7-50.8 3.3-76.3 6.2l-75.7 11.3a1174.8 1174.8 0 0 0-75.1 14.7 1149 1149 0 0 0 76.3-5.1c12.4-1.2 25.4-2.9 37.8-4l37.9-4.5c12.4-1.7 25.4-2.8 37.8-4 12.4-1.6 25.4-2.8 37.9-4.5 25.4-3.4 50.3-6.7 75.1-11.8a679 679 0 0 0-75.7 1.7Z"/><path fill="#5BA9B2" d="m728.8 130-29.4-17C636.7 197.8 621 297.2 621 297.2l11.3 3.4c0 .5 20.3-97.8 96.6-170.7Z"/><path fill="#5FAFB9" d="M672.3 758.2C661 794.9 618.6 879.7 509 889.8c-42.9 4-89.2-10.1-137.2-49.1-61.6-10.2-105.1-36.7-132.2-71.8-56-71.7-38.5-177.4-3.4-236.1 73.4-123.2 142.9-76.9 248-213 50.3-65 65.5-110.2 104.5-116.4 23.2-3.4 40.1 20.9 49.2 49.1 22-11.3 59.8-12.4 71.1 4.6 24.9 36.7-3.4 83.6-17.5 191-22.6 168.3 7.4 224.8-19.2 310Z"/><path fill="#5EA8B1" d="M280.2 578c-10.7-2.3-23.7 8.4-28.2 20.9-5.1 12.4-.6 24.8 11.3 27.7 11.3 2.2 22.6-8 27.7-20.4 4.5-13 .5-26-10.8-28.2Zm90.4-.6c5.1-6.8 5.7-16.4-.5-20.9-5.7-4-14.7 0-19.8 6.8-5.1 6.8-5.1 15.8 1.1 20.9 5.7 4 14.7 0 19.2-6.8Zm36.7-121.5c-2.8-6.2-13-6.8-20.9-3.4-7.3 4-11.8 12-8.4 18.7 3.4 6.2 12.4 6.8 20.3 2.8 8-2.8 12.4-11.3 9-18Zm-84.7 34.5c5.7.6 10.7-5 12.4-11.3 1.7-6.2-1.1-12.4-6.7-13-5.7-.6-11.3 5.1-13 11.3-1.7 6.2 1 11.9 7.3 13ZM452 410.7c3.4 4.6 11.3 4 17 .6 5.6-3.4 7.8-9.6 4.5-14.1-3.5-4-12-4-17.6-.6s-7.9 9.6-4 14.1ZM246.9 673.5c-5 2.2-6.8 9.6-5 15.8 1.6 6.2 7.2 10.1 12.3 7.9s6.8-10.2 5.1-16.4c-1.7-6.2-6.8-10.2-12.4-7.3Zm300 141.8c6.8 11.8 27.1 12.4 41.8 4 14.7-8.6 22.6-25.5 14.7-39-7.3-12.5-26-12.5-41.2-4-14.7 8.5-23.2 26-15.3 39Zm100-108.5c-6.8-.6-12.4 6.8-14.1 14.1-1.7 7.4 1.7 14.7 9 15.3 6.2.5 12.4-7.4 14.1-14.7 1.7-7.4-1.7-14.1-9-14.7Zm-144 123.1c-5.7-5.6-16.5-4.5-23.8.6-7.4 5-10.7 14.1-5 20.4 5 5.6 16.9 4.5 24.8-.6 7.3-5.1 10.1-14.1 4-20.4Z"/></g><defs><clipPath id="a"><path fill="#fff" d="M0 0h1000v1000H0z"/></clipPath></defs></svg>