<?xml version="1.0" standalone="no"?>
<!DOCTYPE svg PUBLIC "-//W3C//DTD SVG 20010904//EN"
 "http://www.w3.org/TR/2001/REC-SVG-20010904/DTD/svg10.dtd">
<svg version="1.0" xmlns="http://www.w3.org/2000/svg"
 width="426.000000pt" height="426.000000pt" viewBox="0 0 426.000000 426.000000"
 preserveAspectRatio="xMidYMid meet">
<metadata>
Created by potrace 1.14, written by Peter Selinger 2001-2017
</metadata>
<g transform="translate(0.000000,426.000000) scale(0.100000,-0.100000)"
fill="#000000" stroke="none">
<path d="M2710 4225 c-128 -37 -319 -100 -327 -108 -2 -3 13 -29 34 -59 204
-276 432 -653 592 -979 101 -206 103 -211 143 -309 17 -41 32 -78 34 -82 3 -4
27 6 55 22 27 17 54 30 58 30 14 0 116 83 147 120 59 68 99 153 110 230 16
106 11 148 -38 325 -16 61 -31 117 -33 125 -2 8 -34 110 -73 226 -72 220 -107
290 -175 354 -97 91 -192 131 -322 135 -78 3 -105 -1 -205 -30z"/>
<path d="M1642 4159 c-123 -15 -199 -50 -402 -184 -179 -119 -323 -238 -496
-410 -166 -166 -227 -234 -332 -375 -39 -52 -75 -99 -79 -105 -5 -5 -40 -59
-77 -120 -116 -184 -144 -268 -144 -423 0 -115 34 -233 92 -325 34 -53 151
-177 167 -177 4 0 14 -6 21 -13 23 -22 178 -131 313 -220 319 -209 799 -456
975 -502 191 -50 417 14 566 160 39 38 78 81 87 94 50 75 210 237 358 362 120
101 174 165 218 259 66 141 76 309 28 450 -46 136 -195 439 -330 675 -152 265
-365 584 -451 673 -86 90 -229 164 -344 178 -88 10 -102 11 -170 3z"/>
<path d="M3790 4143 c-14 -2 -71 -13 -128 -25 -84 -18 -101 -25 -96 -37 82
-203 223 -673 240 -800 4 -28 11 -51 15 -51 21 0 186 62 223 84 91 54 173 164
200 269 10 37 14 90 12 141 -3 72 -8 94 -41 161 -67 140 -194 236 -335 251
-25 3 -49 6 -55 8 -5 1 -21 1 -35 -1z"/>
<path d="M136 1855 c-9 -20 -25 -69 -38 -108 -68 -224 -96 -345 -96 -412 1
-200 108 -360 300 -449 165 -77 425 -166 584 -199 134 -29 266 -5 376 66 64
42 102 81 159 167 24 36 58 85 76 109 18 24 33 47 33 51 0 3 -35 21 -77 40
-387 166 -863 444 -1203 700 -103 78 -97 76 -114 35z"/>
<path d="M154 592 c-18 -78 -23 -183 -12 -237 29 -145 140 -274 282 -327 66
-25 195 -32 262 -14 115 30 231 121 281 220 22 44 75 185 70 187 -1 0 -29 2
-62 4 -97 5 -142 14 -290 56 -154 44 -258 80 -412 145 l-101 42 -18 -76z"/>
</g>
</svg>
